%TF.GenerationSoftware,KiCad,Pcbnew,7.0.7*%
%TF.CreationDate,2024-01-15T18:38:01+01:00*%
%TF.ProjectId,MarshallGuvnor,4d617273-6861-46c6-9c47-75766e6f722e,rev?*%
%TF.SameCoordinates,Original*%
%TF.FileFunction,Soldermask,Top*%
%TF.FilePolarity,Negative*%
%FSLAX46Y46*%
G04 Gerber Fmt 4.6, Leading zero omitted, Abs format (unit mm)*
G04 Created by KiCad (PCBNEW 7.0.7) date 2024-01-15 18:38:01*
%MOMM*%
%LPD*%
G01*
G04 APERTURE LIST*
G04 Aperture macros list*
%AMRoundRect*
0 Rectangle with rounded corners*
0 $1 Rounding radius*
0 $2 $3 $4 $5 $6 $7 $8 $9 X,Y pos of 4 corners*
0 Add a 4 corners polygon primitive as box body*
4,1,4,$2,$3,$4,$5,$6,$7,$8,$9,$2,$3,0*
0 Add four circle primitives for the rounded corners*
1,1,$1+$1,$2,$3*
1,1,$1+$1,$4,$5*
1,1,$1+$1,$6,$7*
1,1,$1+$1,$8,$9*
0 Add four rect primitives between the rounded corners*
20,1,$1+$1,$2,$3,$4,$5,0*
20,1,$1+$1,$4,$5,$6,$7,0*
20,1,$1+$1,$6,$7,$8,$9,0*
20,1,$1+$1,$8,$9,$2,$3,0*%
G04 Aperture macros list end*
%ADD10RoundRect,0.250000X0.625000X-0.312500X0.625000X0.312500X-0.625000X0.312500X-0.625000X-0.312500X0*%
%ADD11RoundRect,0.250000X-0.312500X-0.625000X0.312500X-0.625000X0.312500X0.625000X-0.312500X0.625000X0*%
%ADD12R,1.800000X1.800000*%
%ADD13C,1.800000*%
%ADD14R,3.000000X3.000000*%
%ADD15C,3.000000*%
%ADD16RoundRect,0.250000X-0.650000X0.325000X-0.650000X-0.325000X0.650000X-0.325000X0.650000X0.325000X0*%
%ADD17RoundRect,0.250000X-0.625000X0.312500X-0.625000X-0.312500X0.625000X-0.312500X0.625000X0.312500X0*%
%ADD18RoundRect,0.250000X0.650000X-0.325000X0.650000X0.325000X-0.650000X0.325000X-0.650000X-0.325000X0*%
%ADD19O,1.800000X1.800000*%
%ADD20C,0.800000*%
%ADD21C,6.400000*%
%ADD22RoundRect,0.250000X0.325000X0.650000X-0.325000X0.650000X-0.325000X-0.650000X0.325000X-0.650000X0*%
%ADD23RoundRect,0.250001X-1.099999X1.099999X-1.099999X-1.099999X1.099999X-1.099999X1.099999X1.099999X0*%
%ADD24C,2.700000*%
%ADD25R,1.200000X1.200000*%
%ADD26C,1.200000*%
%ADD27RoundRect,0.250000X0.312500X0.625000X-0.312500X0.625000X-0.312500X-0.625000X0.312500X-0.625000X0*%
%ADD28RoundRect,0.150000X0.150000X-0.837500X0.150000X0.837500X-0.150000X0.837500X-0.150000X-0.837500X0*%
%ADD29RoundRect,0.250000X-0.325000X-0.650000X0.325000X-0.650000X0.325000X0.650000X-0.325000X0.650000X0*%
%ADD30R,2.800000X1.800000*%
%ADD31RoundRect,0.250001X1.099999X-1.099999X1.099999X1.099999X-1.099999X1.099999X-1.099999X-1.099999X0*%
G04 APERTURE END LIST*
D10*
%TO.C,R14*%
X137725000Y-139937500D03*
X137725000Y-137012500D03*
%TD*%
D11*
%TO.C,R3*%
X115675000Y-104400000D03*
X118600000Y-104400000D03*
%TD*%
D12*
%TO.C,D2*%
X127597500Y-106900000D03*
D13*
X130137500Y-106900000D03*
%TD*%
D14*
%TO.C,RV3*%
X138000000Y-151000000D03*
D15*
X143000000Y-151000000D03*
X148000000Y-151000000D03*
%TD*%
D16*
%TO.C,C12*%
X151475000Y-137000000D03*
X151475000Y-139950000D03*
%TD*%
D17*
%TO.C,R11*%
X148225000Y-137012500D03*
X148225000Y-139937500D03*
%TD*%
D18*
%TO.C,C1*%
X113137500Y-113275000D03*
X113137500Y-110325000D03*
%TD*%
D12*
%TO.C,D1*%
X116055000Y-109400000D03*
D19*
X123675000Y-109400000D03*
%TD*%
D11*
%TO.C,R10*%
X144012500Y-124000000D03*
X146937500Y-124000000D03*
%TD*%
D16*
%TO.C,C13*%
X154725000Y-137000000D03*
X154725000Y-139950000D03*
%TD*%
D20*
%TO.C,H3*%
X102600000Y-151000000D03*
X103302944Y-149302944D03*
X103302944Y-152697056D03*
X105000000Y-148600000D03*
D21*
X105000000Y-151000000D03*
D20*
X105000000Y-153400000D03*
X106697056Y-149302944D03*
X106697056Y-152697056D03*
X107400000Y-151000000D03*
%TD*%
D22*
%TO.C,C10*%
X146950000Y-116500000D03*
X144000000Y-116500000D03*
%TD*%
D23*
%TO.C,J1*%
X106000000Y-115500000D03*
D24*
X106000000Y-120500000D03*
%TD*%
D22*
%TO.C,C8*%
X164975000Y-124000000D03*
X162025000Y-124000000D03*
%TD*%
D11*
%TO.C,R6*%
X162037500Y-120250000D03*
X164962500Y-120250000D03*
%TD*%
D14*
%TO.C,RV1*%
X147000000Y-105050000D03*
D15*
X142000000Y-105050000D03*
X137000000Y-105050000D03*
%TD*%
D25*
%TO.C,C4*%
X128564901Y-114900000D03*
D26*
X130564901Y-114900000D03*
%TD*%
D20*
%TO.C,H4*%
X177600000Y-151000000D03*
X178302944Y-149302944D03*
X178302944Y-152697056D03*
X180000000Y-148600000D03*
D21*
X180000000Y-151000000D03*
D20*
X180000000Y-153400000D03*
X181697056Y-149302944D03*
X181697056Y-152697056D03*
X182400000Y-151000000D03*
%TD*%
D17*
%TO.C,R12*%
X169000000Y-131262500D03*
X169000000Y-134187500D03*
%TD*%
D14*
%TO.C,RV5*%
X159000000Y-151000000D03*
D15*
X164000000Y-151000000D03*
X169000000Y-151000000D03*
%TD*%
D23*
%TO.C,J2*%
X106000000Y-135000000D03*
D24*
X106000000Y-140000000D03*
%TD*%
D18*
%TO.C,C14*%
X164225000Y-139950000D03*
X164225000Y-137000000D03*
%TD*%
D16*
%TO.C,C16*%
X160975000Y-137000000D03*
X160975000Y-139950000D03*
%TD*%
D27*
%TO.C,R5*%
X159187500Y-128250000D03*
X156262500Y-128250000D03*
%TD*%
D28*
%TO.C,U1*%
X150795000Y-124425000D03*
X152065000Y-124425000D03*
X153335000Y-124425000D03*
X154605000Y-124425000D03*
X155875000Y-124425000D03*
X157145000Y-124425000D03*
X158415000Y-124425000D03*
X158415000Y-117500000D03*
X157145000Y-117500000D03*
X155875000Y-117500000D03*
X154605000Y-117500000D03*
X153335000Y-117500000D03*
X152065000Y-117500000D03*
X150795000Y-117500000D03*
%TD*%
D18*
%TO.C,C15*%
X169000000Y-139700000D03*
X169000000Y-136750000D03*
%TD*%
D27*
%TO.C,R8*%
X139687500Y-128250000D03*
X136762500Y-128250000D03*
%TD*%
D25*
%TO.C,C3*%
X128537500Y-120325000D03*
D26*
X130537500Y-120325000D03*
%TD*%
D11*
%TO.C,R2*%
X121212500Y-104400000D03*
X124137500Y-104400000D03*
%TD*%
D10*
%TO.C,R1*%
X125137500Y-115825000D03*
X125137500Y-112900000D03*
%TD*%
D14*
%TO.C,RV2*%
X169000000Y-105000000D03*
D15*
X164000000Y-105000000D03*
X159000000Y-105000000D03*
%TD*%
D22*
%TO.C,C6*%
X159200000Y-132000000D03*
X156250000Y-132000000D03*
%TD*%
D20*
%TO.C,H1*%
X102600000Y-105000000D03*
X103302944Y-103302944D03*
X103302944Y-106697056D03*
X105000000Y-102600000D03*
D21*
X105000000Y-105000000D03*
D20*
X105000000Y-107400000D03*
X106697056Y-103302944D03*
X106697056Y-106697056D03*
X107400000Y-105000000D03*
%TD*%
D17*
%TO.C,R15*%
X157725000Y-137012500D03*
X157725000Y-139937500D03*
%TD*%
D11*
%TO.C,R7*%
X136762500Y-132000000D03*
X139687500Y-132000000D03*
%TD*%
D29*
%TO.C,C9*%
X162025000Y-128250000D03*
X164975000Y-128250000D03*
%TD*%
D20*
%TO.C,H2*%
X177600000Y-105000000D03*
X178302944Y-103302944D03*
X178302944Y-106697056D03*
X180000000Y-102600000D03*
D21*
X180000000Y-105000000D03*
D20*
X180000000Y-107400000D03*
X181697056Y-103302944D03*
X181697056Y-106697056D03*
X182400000Y-105000000D03*
%TD*%
D14*
%TO.C,RV4*%
X117000000Y-151000000D03*
D15*
X122000000Y-151000000D03*
X127000000Y-151000000D03*
%TD*%
D12*
%TO.C,Q1*%
X117367500Y-121020000D03*
D30*
X119407500Y-121020000D03*
D19*
X119907500Y-113400000D03*
X117367500Y-113400000D03*
%TD*%
D12*
%TO.C,D3*%
X144190000Y-128500000D03*
D19*
X151810000Y-128500000D03*
%TD*%
D10*
%TO.C,R4*%
X125137500Y-121362500D03*
X125137500Y-118437500D03*
%TD*%
D22*
%TO.C,C7*%
X164975000Y-116500000D03*
X162025000Y-116500000D03*
%TD*%
D18*
%TO.C,C17*%
X141225000Y-139950000D03*
X141225000Y-137000000D03*
%TD*%
D29*
%TO.C,C5*%
X136750000Y-124500000D03*
X139700000Y-124500000D03*
%TD*%
D22*
%TO.C,C11*%
X146950000Y-120250000D03*
X144000000Y-120250000D03*
%TD*%
D16*
%TO.C,C2*%
X113137500Y-104125000D03*
X113137500Y-107075000D03*
%TD*%
D17*
%TO.C,R13*%
X144725000Y-137012500D03*
X144725000Y-139937500D03*
%TD*%
D12*
%TO.C,D4*%
X151810000Y-132200000D03*
D19*
X144190000Y-132200000D03*
%TD*%
D11*
%TO.C,R9*%
X162037500Y-132000000D03*
X164962500Y-132000000D03*
%TD*%
D31*
%TO.C,J3*%
X177861441Y-142299722D03*
D24*
X177861441Y-137299722D03*
%TD*%
M02*
