%TF.GenerationSoftware,KiCad,Pcbnew,7.0.7*%
%TF.CreationDate,2024-01-13T16:34:17+01:00*%
%TF.ProjectId,MarshallGuvnor,4d617273-6861-46c6-9c47-75766e6f722e,rev?*%
%TF.SameCoordinates,Original*%
%TF.FileFunction,Copper,L3,Inr*%
%TF.FilePolarity,Positive*%
%FSLAX46Y46*%
G04 Gerber Fmt 4.6, Leading zero omitted, Abs format (unit mm)*
G04 Created by KiCad (PCBNEW 7.0.7) date 2024-01-13 16:34:17*
%MOMM*%
%LPD*%
G01*
G04 APERTURE LIST*
G04 Aperture macros list*
%AMRoundRect*
0 Rectangle with rounded corners*
0 $1 Rounding radius*
0 $2 $3 $4 $5 $6 $7 $8 $9 X,Y pos of 4 corners*
0 Add a 4 corners polygon primitive as box body*
4,1,4,$2,$3,$4,$5,$6,$7,$8,$9,$2,$3,0*
0 Add four circle primitives for the rounded corners*
1,1,$1+$1,$2,$3*
1,1,$1+$1,$4,$5*
1,1,$1+$1,$6,$7*
1,1,$1+$1,$8,$9*
0 Add four rect primitives between the rounded corners*
20,1,$1+$1,$2,$3,$4,$5,0*
20,1,$1+$1,$4,$5,$6,$7,0*
20,1,$1+$1,$6,$7,$8,$9,0*
20,1,$1+$1,$8,$9,$2,$3,0*%
G04 Aperture macros list end*
%TA.AperFunction,ComponentPad*%
%ADD10R,1.200000X1.200000*%
%TD*%
%TA.AperFunction,ComponentPad*%
%ADD11C,1.200000*%
%TD*%
%TA.AperFunction,ComponentPad*%
%ADD12R,3.000000X3.000000*%
%TD*%
%TA.AperFunction,ComponentPad*%
%ADD13C,3.000000*%
%TD*%
%TA.AperFunction,ComponentPad*%
%ADD14O,1.800000X1.800000*%
%TD*%
%TA.AperFunction,ComponentPad*%
%ADD15R,1.800000X1.800000*%
%TD*%
%TA.AperFunction,ComponentPad*%
%ADD16R,2.800000X1.800000*%
%TD*%
%TA.AperFunction,ComponentPad*%
%ADD17C,2.700000*%
%TD*%
%TA.AperFunction,ComponentPad*%
%ADD18RoundRect,0.250001X1.099999X-1.099999X1.099999X1.099999X-1.099999X1.099999X-1.099999X-1.099999X0*%
%TD*%
%TA.AperFunction,ComponentPad*%
%ADD19C,0.800000*%
%TD*%
%TA.AperFunction,ComponentPad*%
%ADD20C,6.400000*%
%TD*%
%TA.AperFunction,ComponentPad*%
%ADD21C,1.800000*%
%TD*%
%TA.AperFunction,ViaPad*%
%ADD22C,0.800000*%
%TD*%
G04 APERTURE END LIST*
D10*
%TO.N,+9V*%
%TO.C,C3*%
X128537500Y-120325000D03*
D11*
%TO.N,GND*%
X130537500Y-120325000D03*
%TD*%
D12*
%TO.N,Net-(C17-Pad1)*%
%TO.C,RV5*%
X159000000Y-151000000D03*
D13*
%TO.N,MIX_OUT*%
X164000000Y-151000000D03*
%TO.N,Net-(C14-Pad1)*%
X169000000Y-151000000D03*
%TD*%
D12*
%TO.N,GND*%
%TO.C,RV4*%
X117000000Y-151000000D03*
D13*
%TO.N,Net-(C12-Pad1)*%
X122000000Y-151000000D03*
%TO.N,Net-(C17-Pad1)*%
X127000000Y-151000000D03*
%TD*%
D12*
%TO.N,GND*%
%TO.C,RV3*%
X138000000Y-151000000D03*
D13*
%TO.N,Net-(C13-Pad1)*%
X143000000Y-151000000D03*
%TO.N,Net-(R15-Pad2)*%
X148000000Y-151000000D03*
%TD*%
D12*
%TO.N,GND*%
%TO.C,RV2*%
X169000000Y-105000000D03*
D13*
%TO.N,Net-(R12-Pad1)*%
X164000000Y-105000000D03*
%TO.N,MIX_OUT*%
X159000000Y-105000000D03*
%TD*%
D12*
%TO.N,Net-(U1A--)*%
%TO.C,RV1*%
X147000000Y-105050000D03*
D13*
%TO.N,Net-(C10-Pad2)*%
X142000000Y-105050000D03*
%TO.N,Net-(C7-Pad1)*%
X137000000Y-105050000D03*
%TD*%
D14*
%TO.N,+9V*%
%TO.C,Q1*%
X117367500Y-113400000D03*
%TO.N,Net-(D1-A)*%
X119907500Y-113400000D03*
D15*
%TO.N,Net-(J1-Pin_1)*%
X117367500Y-121020000D03*
D16*
X119407500Y-121020000D03*
%TD*%
D17*
%TO.N,Net-(J3-Pin_2)*%
%TO.C,J3*%
X177861441Y-137299722D03*
D18*
%TO.N,GND*%
X177861441Y-142299722D03*
%TD*%
%TO.N,Net-(J2-Pin_1)*%
%TO.C,J2*%
X106000000Y-140000000D03*
D17*
%TO.N,GND*%
X106000000Y-135000000D03*
%TD*%
D18*
%TO.N,Net-(J1-Pin_1)*%
%TO.C,J1*%
X106000000Y-120277500D03*
D17*
%TO.N,GND*%
X106000000Y-115277500D03*
%TD*%
D19*
%TO.N,GND*%
%TO.C,H4*%
X180000000Y-148600000D03*
X181697056Y-152697056D03*
X181697056Y-149302944D03*
X182400000Y-151000000D03*
D20*
X180000000Y-151000000D03*
D19*
X180000000Y-153400000D03*
X178302944Y-149302944D03*
X178302944Y-152697056D03*
X177600000Y-151000000D03*
%TD*%
%TO.N,GND*%
%TO.C,H3*%
X105000000Y-148600000D03*
X106697056Y-152697056D03*
X106697056Y-149302944D03*
X107400000Y-151000000D03*
D20*
X105000000Y-151000000D03*
D19*
X105000000Y-153400000D03*
X103302944Y-149302944D03*
X103302944Y-152697056D03*
X102600000Y-151000000D03*
%TD*%
%TO.N,GND*%
%TO.C,H2*%
X180000000Y-102600000D03*
X181697056Y-106697056D03*
X181697056Y-103302944D03*
X182400000Y-105000000D03*
D20*
X180000000Y-105000000D03*
D19*
X180000000Y-107400000D03*
X178302944Y-103302944D03*
X178302944Y-106697056D03*
X177600000Y-105000000D03*
%TD*%
%TO.N,GND*%
%TO.C,H1*%
X105000000Y-102600000D03*
X106697056Y-106697056D03*
X106697056Y-103302944D03*
X107400000Y-105000000D03*
D20*
X105000000Y-105000000D03*
D19*
X105000000Y-107400000D03*
X103302944Y-103302944D03*
X103302944Y-106697056D03*
X102600000Y-105000000D03*
%TD*%
D14*
%TO.N,GND*%
%TO.C,D4*%
X144190000Y-132200000D03*
D15*
%TO.N,DISTORSION_OUT*%
X151810000Y-132200000D03*
%TD*%
D14*
%TO.N,DISTORSION_OUT*%
%TO.C,D3*%
X151810000Y-128500000D03*
D15*
%TO.N,GND*%
X144190000Y-128500000D03*
%TD*%
%TO.N,Net-(D2-K)*%
%TO.C,D2*%
X127597500Y-106900000D03*
D21*
%TO.N,+9V*%
X130137500Y-106900000D03*
%TD*%
D15*
%TO.N,+9V*%
%TO.C,D1*%
X116055000Y-109400000D03*
D14*
%TO.N,Net-(D1-A)*%
X123675000Y-109400000D03*
%TD*%
D10*
%TO.N,+4V*%
%TO.C,C4*%
X128564901Y-114900000D03*
D11*
%TO.N,GND*%
X130564901Y-114900000D03*
%TD*%
D22*
%TO.N,Net-(C17-Pad1)*%
X154200000Y-142000000D03*
%TO.N,Net-(C13-Pad1)*%
X153200000Y-137000000D03*
%TO.N,Net-(C12-Pad2)*%
X146600000Y-140000000D03*
X139400000Y-137000000D03*
%TO.N,MIX_OUT*%
X164000000Y-147400000D03*
%TO.N,Net-(C7-Pad1)*%
X152800000Y-112400000D03*
%TO.N,GND*%
X115000000Y-102400000D03*
X115000000Y-113600000D03*
X147000000Y-122200000D03*
X154600000Y-115600000D03*
%TO.N,+9V*%
X154600000Y-126400000D03*
%TO.N,+4V*%
X152400000Y-115600000D03*
%TD*%
%TA.AperFunction,Conductor*%
%TO.N,+9V*%
G36*
X180217318Y-100009488D02*
G01*
X180415934Y-100018160D01*
X180420865Y-100018574D01*
X180636792Y-100045489D01*
X180832940Y-100071313D01*
X180837265Y-100071883D01*
X180841894Y-100072671D01*
X181054183Y-100117183D01*
X181252534Y-100161157D01*
X181256778Y-100162257D01*
X181464544Y-100224112D01*
X181658658Y-100285317D01*
X181662530Y-100286680D01*
X181864457Y-100365472D01*
X182052817Y-100443494D01*
X182056252Y-100445045D01*
X182131343Y-100481755D01*
X182250992Y-100540249D01*
X182388629Y-100611897D01*
X182432009Y-100634479D01*
X182435107Y-100636207D01*
X182621382Y-100747202D01*
X182793662Y-100856957D01*
X182796377Y-100858789D01*
X182972918Y-100984837D01*
X183135098Y-101109282D01*
X183137426Y-101111159D01*
X183303055Y-101251439D01*
X183454895Y-101390574D01*
X183609424Y-101545103D01*
X183673278Y-101614787D01*
X183748555Y-101696938D01*
X183763008Y-101714003D01*
X183888839Y-101862572D01*
X183890716Y-101864900D01*
X184015162Y-102027081D01*
X184141209Y-102203621D01*
X184143040Y-102206335D01*
X184252797Y-102378617D01*
X184363791Y-102564891D01*
X184365525Y-102568000D01*
X184459750Y-102749007D01*
X184495395Y-102821917D01*
X184554953Y-102943744D01*
X184556524Y-102947229D01*
X184634536Y-103135566D01*
X184713309Y-103337445D01*
X184714681Y-103341340D01*
X184775899Y-103535496D01*
X184837735Y-103743200D01*
X184838843Y-103747472D01*
X184882818Y-103945826D01*
X184927326Y-104158101D01*
X184928115Y-104162733D01*
X184954524Y-104363319D01*
X184981422Y-104579114D01*
X184981839Y-104584080D01*
X184990513Y-104782728D01*
X184999500Y-105000000D01*
X184999500Y-151000000D01*
X184990513Y-151217271D01*
X184981839Y-151415918D01*
X184981422Y-151420884D01*
X184954524Y-151636680D01*
X184928115Y-151837265D01*
X184927326Y-151841897D01*
X184882818Y-152054173D01*
X184838843Y-152252526D01*
X184837735Y-152256798D01*
X184775899Y-152464503D01*
X184714681Y-152658658D01*
X184713309Y-152662552D01*
X184634536Y-152864433D01*
X184556524Y-153052769D01*
X184554944Y-153056274D01*
X184459750Y-153250992D01*
X184365525Y-153431998D01*
X184363791Y-153435107D01*
X184252797Y-153621382D01*
X184143040Y-153793663D01*
X184141209Y-153796377D01*
X184015162Y-153972918D01*
X183890716Y-154135099D01*
X183888839Y-154137426D01*
X183748557Y-154303059D01*
X183609426Y-154454895D01*
X183454895Y-154609426D01*
X183303059Y-154748557D01*
X183137426Y-154888839D01*
X183135099Y-154890716D01*
X182972918Y-155015162D01*
X182796377Y-155141209D01*
X182793663Y-155143040D01*
X182621382Y-155252797D01*
X182435107Y-155363791D01*
X182431998Y-155365525D01*
X182250992Y-155459750D01*
X182056274Y-155554944D01*
X182052769Y-155556524D01*
X181864433Y-155634536D01*
X181662552Y-155713309D01*
X181658658Y-155714681D01*
X181464503Y-155775899D01*
X181256798Y-155837735D01*
X181252526Y-155838843D01*
X181054173Y-155882818D01*
X180841897Y-155927326D01*
X180837265Y-155928115D01*
X180636680Y-155954524D01*
X180420884Y-155981422D01*
X180415918Y-155981839D01*
X180217271Y-155990513D01*
X180000000Y-155999500D01*
X105000000Y-155999500D01*
X104782728Y-155990513D01*
X104584080Y-155981839D01*
X104579114Y-155981422D01*
X104363319Y-155954524D01*
X104162733Y-155928115D01*
X104158101Y-155927326D01*
X103945826Y-155882818D01*
X103747472Y-155838843D01*
X103743200Y-155837735D01*
X103535496Y-155775899D01*
X103341340Y-155714681D01*
X103337445Y-155713309D01*
X103135566Y-155634536D01*
X102947229Y-155556524D01*
X102943744Y-155554953D01*
X102884503Y-155525992D01*
X102749007Y-155459750D01*
X102568000Y-155365525D01*
X102564891Y-155363791D01*
X102378617Y-155252797D01*
X102206335Y-155143040D01*
X102203621Y-155141209D01*
X102027081Y-155015162D01*
X101864900Y-154890716D01*
X101862572Y-154888839D01*
X101696940Y-154748557D01*
X101545103Y-154609424D01*
X101390574Y-154454895D01*
X101251439Y-154303055D01*
X101111159Y-154137426D01*
X101109282Y-154135098D01*
X100984837Y-153972918D01*
X100858789Y-153796377D01*
X100856957Y-153793662D01*
X100747202Y-153621382D01*
X100636207Y-153435107D01*
X100634473Y-153431998D01*
X100540249Y-153250992D01*
X100481755Y-153131343D01*
X100445045Y-153056252D01*
X100443494Y-153052817D01*
X100365463Y-152864433D01*
X100286680Y-152662530D01*
X100285317Y-152658658D01*
X100250390Y-152547883D01*
X100224100Y-152464503D01*
X100162257Y-152256778D01*
X100161155Y-152252526D01*
X100117181Y-152054173D01*
X100111495Y-152027057D01*
X100072671Y-151841894D01*
X100071883Y-151837265D01*
X100063084Y-151770429D01*
X100045489Y-151636791D01*
X100018574Y-151420865D01*
X100018160Y-151415934D01*
X100009486Y-151217271D01*
X100000500Y-151000000D01*
X101294422Y-151000000D01*
X101314722Y-151387339D01*
X101375397Y-151770427D01*
X101375397Y-151770429D01*
X101475788Y-152145094D01*
X101614787Y-152507197D01*
X101790877Y-152852793D01*
X102002122Y-153178082D01*
X102002124Y-153178084D01*
X102246219Y-153479516D01*
X102520484Y-153753781D01*
X102520488Y-153753784D01*
X102821917Y-153997877D01*
X103036804Y-154137426D01*
X103147211Y-154209125D01*
X103492806Y-154385214D01*
X103854913Y-154524214D01*
X104229567Y-154624602D01*
X104612662Y-154685278D01*
X104978576Y-154704455D01*
X104999999Y-154705578D01*
X105000000Y-154705578D01*
X105000001Y-154705578D01*
X105020301Y-154704514D01*
X105387338Y-154685278D01*
X105770433Y-154624602D01*
X106145087Y-154524214D01*
X106507194Y-154385214D01*
X106852789Y-154209125D01*
X107178084Y-153997876D01*
X107479516Y-153753781D01*
X107753781Y-153479516D01*
X107997876Y-153178084D01*
X108209125Y-152852789D01*
X108364489Y-152547870D01*
X114999500Y-152547870D01*
X114999501Y-152547876D01*
X115005908Y-152607483D01*
X115056202Y-152742328D01*
X115056206Y-152742335D01*
X115142452Y-152857544D01*
X115142455Y-152857547D01*
X115257664Y-152943793D01*
X115257671Y-152943797D01*
X115392517Y-152994091D01*
X115392516Y-152994091D01*
X115399444Y-152994835D01*
X115452127Y-153000500D01*
X118547872Y-153000499D01*
X118607483Y-152994091D01*
X118742331Y-152943796D01*
X118857546Y-152857546D01*
X118943796Y-152742331D01*
X118994091Y-152607483D01*
X119000500Y-152547873D01*
X119000499Y-151000000D01*
X119994390Y-151000000D01*
X120014804Y-151285433D01*
X120075628Y-151565037D01*
X120075630Y-151565043D01*
X120075631Y-151565046D01*
X120175633Y-151833161D01*
X120175635Y-151833166D01*
X120312770Y-152084309D01*
X120312775Y-152084317D01*
X120484254Y-152313387D01*
X120484270Y-152313405D01*
X120686594Y-152515729D01*
X120686612Y-152515745D01*
X120915682Y-152687224D01*
X120915690Y-152687229D01*
X121166833Y-152824364D01*
X121166832Y-152824364D01*
X121166836Y-152824365D01*
X121166839Y-152824367D01*
X121434954Y-152924369D01*
X121434960Y-152924370D01*
X121434962Y-152924371D01*
X121714566Y-152985195D01*
X121714568Y-152985195D01*
X121714572Y-152985196D01*
X121968220Y-153003337D01*
X121999999Y-153005610D01*
X122000000Y-153005610D01*
X122000001Y-153005610D01*
X122028595Y-153003564D01*
X122285428Y-152985196D01*
X122475742Y-152943796D01*
X122565037Y-152924371D01*
X122565037Y-152924370D01*
X122565046Y-152924369D01*
X122833161Y-152824367D01*
X123084315Y-152687226D01*
X123313395Y-152515739D01*
X123515739Y-152313395D01*
X123687226Y-152084315D01*
X123824367Y-151833161D01*
X123924369Y-151565046D01*
X123924371Y-151565037D01*
X123985195Y-151285433D01*
X123985195Y-151285432D01*
X123985196Y-151285428D01*
X124005610Y-151000000D01*
X124994390Y-151000000D01*
X125014804Y-151285433D01*
X125075628Y-151565037D01*
X125075630Y-151565043D01*
X125075631Y-151565046D01*
X125175633Y-151833161D01*
X125175635Y-151833166D01*
X125312770Y-152084309D01*
X125312775Y-152084317D01*
X125484254Y-152313387D01*
X125484270Y-152313405D01*
X125686594Y-152515729D01*
X125686612Y-152515745D01*
X125915682Y-152687224D01*
X125915690Y-152687229D01*
X126166833Y-152824364D01*
X126166832Y-152824364D01*
X126166836Y-152824365D01*
X126166839Y-152824367D01*
X126434954Y-152924369D01*
X126434960Y-152924370D01*
X126434962Y-152924371D01*
X126714566Y-152985195D01*
X126714568Y-152985195D01*
X126714572Y-152985196D01*
X126968220Y-153003337D01*
X126999999Y-153005610D01*
X127000000Y-153005610D01*
X127000001Y-153005610D01*
X127028595Y-153003564D01*
X127285428Y-152985196D01*
X127475742Y-152943796D01*
X127565037Y-152924371D01*
X127565037Y-152924370D01*
X127565046Y-152924369D01*
X127833161Y-152824367D01*
X128084315Y-152687226D01*
X128270473Y-152547870D01*
X135999500Y-152547870D01*
X135999501Y-152547876D01*
X136005908Y-152607483D01*
X136056202Y-152742328D01*
X136056206Y-152742335D01*
X136142452Y-152857544D01*
X136142455Y-152857547D01*
X136257664Y-152943793D01*
X136257671Y-152943797D01*
X136392517Y-152994091D01*
X136392516Y-152994091D01*
X136399444Y-152994835D01*
X136452127Y-153000500D01*
X139547872Y-153000499D01*
X139607483Y-152994091D01*
X139742331Y-152943796D01*
X139857546Y-152857546D01*
X139943796Y-152742331D01*
X139994091Y-152607483D01*
X140000500Y-152547873D01*
X140000499Y-151000000D01*
X140994390Y-151000000D01*
X141014804Y-151285433D01*
X141075628Y-151565037D01*
X141075630Y-151565043D01*
X141075631Y-151565046D01*
X141175633Y-151833161D01*
X141175635Y-151833166D01*
X141312770Y-152084309D01*
X141312775Y-152084317D01*
X141484254Y-152313387D01*
X141484270Y-152313405D01*
X141686594Y-152515729D01*
X141686612Y-152515745D01*
X141915682Y-152687224D01*
X141915690Y-152687229D01*
X142166833Y-152824364D01*
X142166832Y-152824364D01*
X142166836Y-152824365D01*
X142166839Y-152824367D01*
X142434954Y-152924369D01*
X142434960Y-152924370D01*
X142434962Y-152924371D01*
X142714566Y-152985195D01*
X142714568Y-152985195D01*
X142714572Y-152985196D01*
X142968220Y-153003337D01*
X142999999Y-153005610D01*
X143000000Y-153005610D01*
X143000001Y-153005610D01*
X143028595Y-153003564D01*
X143285428Y-152985196D01*
X143475742Y-152943796D01*
X143565037Y-152924371D01*
X143565037Y-152924370D01*
X143565046Y-152924369D01*
X143833161Y-152824367D01*
X144084315Y-152687226D01*
X144313395Y-152515739D01*
X144515739Y-152313395D01*
X144687226Y-152084315D01*
X144824367Y-151833161D01*
X144924369Y-151565046D01*
X144924371Y-151565037D01*
X144985195Y-151285433D01*
X144985195Y-151285432D01*
X144985196Y-151285428D01*
X145005610Y-151000000D01*
X145994390Y-151000000D01*
X146014804Y-151285433D01*
X146075628Y-151565037D01*
X146075630Y-151565043D01*
X146075631Y-151565046D01*
X146175633Y-151833161D01*
X146175635Y-151833166D01*
X146312770Y-152084309D01*
X146312775Y-152084317D01*
X146484254Y-152313387D01*
X146484270Y-152313405D01*
X146686594Y-152515729D01*
X146686612Y-152515745D01*
X146915682Y-152687224D01*
X146915690Y-152687229D01*
X147166833Y-152824364D01*
X147166832Y-152824364D01*
X147166836Y-152824365D01*
X147166839Y-152824367D01*
X147434954Y-152924369D01*
X147434960Y-152924370D01*
X147434962Y-152924371D01*
X147714566Y-152985195D01*
X147714568Y-152985195D01*
X147714572Y-152985196D01*
X147968220Y-153003337D01*
X147999999Y-153005610D01*
X148000000Y-153005610D01*
X148000001Y-153005610D01*
X148028595Y-153003564D01*
X148285428Y-152985196D01*
X148475742Y-152943796D01*
X148565037Y-152924371D01*
X148565037Y-152924370D01*
X148565046Y-152924369D01*
X148833161Y-152824367D01*
X149084315Y-152687226D01*
X149270473Y-152547870D01*
X156999500Y-152547870D01*
X156999501Y-152547876D01*
X157005908Y-152607483D01*
X157056202Y-152742328D01*
X157056206Y-152742335D01*
X157142452Y-152857544D01*
X157142455Y-152857547D01*
X157257664Y-152943793D01*
X157257671Y-152943797D01*
X157392517Y-152994091D01*
X157392516Y-152994091D01*
X157399444Y-152994835D01*
X157452127Y-153000500D01*
X160547872Y-153000499D01*
X160607483Y-152994091D01*
X160742331Y-152943796D01*
X160857546Y-152857546D01*
X160943796Y-152742331D01*
X160994091Y-152607483D01*
X161000500Y-152547873D01*
X161000499Y-151000000D01*
X161994390Y-151000000D01*
X162014804Y-151285433D01*
X162075628Y-151565037D01*
X162075630Y-151565043D01*
X162075631Y-151565046D01*
X162175633Y-151833161D01*
X162175635Y-151833166D01*
X162312770Y-152084309D01*
X162312775Y-152084317D01*
X162484254Y-152313387D01*
X162484270Y-152313405D01*
X162686594Y-152515729D01*
X162686612Y-152515745D01*
X162915682Y-152687224D01*
X162915690Y-152687229D01*
X163166833Y-152824364D01*
X163166832Y-152824364D01*
X163166836Y-152824365D01*
X163166839Y-152824367D01*
X163434954Y-152924369D01*
X163434960Y-152924370D01*
X163434962Y-152924371D01*
X163714566Y-152985195D01*
X163714568Y-152985195D01*
X163714572Y-152985196D01*
X163968220Y-153003337D01*
X163999999Y-153005610D01*
X164000000Y-153005610D01*
X164000001Y-153005610D01*
X164028595Y-153003564D01*
X164285428Y-152985196D01*
X164475742Y-152943796D01*
X164565037Y-152924371D01*
X164565037Y-152924370D01*
X164565046Y-152924369D01*
X164833161Y-152824367D01*
X165084315Y-152687226D01*
X165313395Y-152515739D01*
X165515739Y-152313395D01*
X165687226Y-152084315D01*
X165824367Y-151833161D01*
X165924369Y-151565046D01*
X165924371Y-151565037D01*
X165985195Y-151285433D01*
X165985195Y-151285432D01*
X165985196Y-151285428D01*
X166005610Y-151000000D01*
X166994390Y-151000000D01*
X167014804Y-151285433D01*
X167075628Y-151565037D01*
X167075630Y-151565043D01*
X167075631Y-151565046D01*
X167175633Y-151833161D01*
X167175635Y-151833166D01*
X167312770Y-152084309D01*
X167312775Y-152084317D01*
X167484254Y-152313387D01*
X167484270Y-152313405D01*
X167686594Y-152515729D01*
X167686612Y-152515745D01*
X167915682Y-152687224D01*
X167915690Y-152687229D01*
X168166833Y-152824364D01*
X168166832Y-152824364D01*
X168166836Y-152824365D01*
X168166839Y-152824367D01*
X168434954Y-152924369D01*
X168434960Y-152924370D01*
X168434962Y-152924371D01*
X168714566Y-152985195D01*
X168714568Y-152985195D01*
X168714572Y-152985196D01*
X168968220Y-153003337D01*
X168999999Y-153005610D01*
X169000000Y-153005610D01*
X169000001Y-153005610D01*
X169028595Y-153003564D01*
X169285428Y-152985196D01*
X169475742Y-152943796D01*
X169565037Y-152924371D01*
X169565037Y-152924370D01*
X169565046Y-152924369D01*
X169833161Y-152824367D01*
X170084315Y-152687226D01*
X170313395Y-152515739D01*
X170515739Y-152313395D01*
X170687226Y-152084315D01*
X170824367Y-151833161D01*
X170924369Y-151565046D01*
X170924371Y-151565037D01*
X170985195Y-151285433D01*
X170985195Y-151285432D01*
X170985196Y-151285428D01*
X171005610Y-151000000D01*
X176294422Y-151000000D01*
X176314722Y-151387339D01*
X176375397Y-151770427D01*
X176375397Y-151770429D01*
X176475788Y-152145094D01*
X176614787Y-152507197D01*
X176790877Y-152852793D01*
X177002122Y-153178082D01*
X177002124Y-153178084D01*
X177246219Y-153479516D01*
X177520484Y-153753781D01*
X177520488Y-153753784D01*
X177821917Y-153997877D01*
X178036804Y-154137426D01*
X178147211Y-154209125D01*
X178492806Y-154385214D01*
X178854913Y-154524214D01*
X179229567Y-154624602D01*
X179612662Y-154685278D01*
X179978576Y-154704455D01*
X179999999Y-154705578D01*
X180000000Y-154705578D01*
X180000001Y-154705578D01*
X180020300Y-154704514D01*
X180387338Y-154685278D01*
X180770433Y-154624602D01*
X181145087Y-154524214D01*
X181507194Y-154385214D01*
X181852789Y-154209125D01*
X182178084Y-153997876D01*
X182479516Y-153753781D01*
X182753781Y-153479516D01*
X182997876Y-153178084D01*
X183209125Y-152852789D01*
X183385214Y-152507194D01*
X183524214Y-152145087D01*
X183624602Y-151770433D01*
X183685278Y-151387338D01*
X183705578Y-151000000D01*
X183685278Y-150612662D01*
X183624602Y-150229567D01*
X183524214Y-149854913D01*
X183385214Y-149492806D01*
X183209125Y-149147211D01*
X183209122Y-149147206D01*
X182997877Y-148821917D01*
X182753784Y-148520488D01*
X182753781Y-148520484D01*
X182479516Y-148246219D01*
X182445164Y-148218401D01*
X182178082Y-148002122D01*
X181852793Y-147790877D01*
X181507197Y-147614787D01*
X181145094Y-147475788D01*
X181145087Y-147475786D01*
X180770433Y-147375398D01*
X180770429Y-147375397D01*
X180770428Y-147375397D01*
X180387339Y-147314722D01*
X180000001Y-147294422D01*
X179999999Y-147294422D01*
X179612660Y-147314722D01*
X179229572Y-147375397D01*
X179229570Y-147375397D01*
X178854905Y-147475788D01*
X178492802Y-147614787D01*
X178147206Y-147790877D01*
X177821917Y-148002122D01*
X177520488Y-148246215D01*
X177520480Y-148246222D01*
X177246222Y-148520480D01*
X177246215Y-148520488D01*
X177002122Y-148821917D01*
X176790877Y-149147206D01*
X176614787Y-149492802D01*
X176475788Y-149854905D01*
X176375397Y-150229570D01*
X176375397Y-150229572D01*
X176314722Y-150612660D01*
X176294422Y-150999999D01*
X176294422Y-151000000D01*
X171005610Y-151000000D01*
X170985196Y-150714572D01*
X170963026Y-150612660D01*
X170924371Y-150434962D01*
X170924370Y-150434960D01*
X170924369Y-150434954D01*
X170824367Y-150166839D01*
X170687226Y-149915685D01*
X170641727Y-149854905D01*
X170515745Y-149686612D01*
X170515729Y-149686594D01*
X170313405Y-149484270D01*
X170313387Y-149484254D01*
X170084317Y-149312775D01*
X170084309Y-149312770D01*
X169833166Y-149175635D01*
X169833167Y-149175635D01*
X169725914Y-149135632D01*
X169565046Y-149075631D01*
X169565043Y-149075630D01*
X169565037Y-149075628D01*
X169285433Y-149014804D01*
X169000001Y-148994390D01*
X168999999Y-148994390D01*
X168714566Y-149014804D01*
X168434962Y-149075628D01*
X168166833Y-149175635D01*
X167915690Y-149312770D01*
X167915682Y-149312775D01*
X167686612Y-149484254D01*
X167686594Y-149484270D01*
X167484270Y-149686594D01*
X167484254Y-149686612D01*
X167312775Y-149915682D01*
X167312770Y-149915690D01*
X167175635Y-150166833D01*
X167075628Y-150434962D01*
X167014804Y-150714566D01*
X166994390Y-150999998D01*
X166994390Y-151000000D01*
X166005610Y-151000000D01*
X165985196Y-150714572D01*
X165963026Y-150612660D01*
X165924371Y-150434962D01*
X165924370Y-150434960D01*
X165924369Y-150434954D01*
X165824367Y-150166839D01*
X165687226Y-149915685D01*
X165641727Y-149854905D01*
X165515745Y-149686612D01*
X165515729Y-149686594D01*
X165313405Y-149484270D01*
X165313387Y-149484254D01*
X165084317Y-149312775D01*
X165084309Y-149312770D01*
X164833166Y-149175635D01*
X164833167Y-149175635D01*
X164725914Y-149135632D01*
X164565046Y-149075631D01*
X164565043Y-149075630D01*
X164565037Y-149075628D01*
X164285433Y-149014804D01*
X164000001Y-148994390D01*
X163999999Y-148994390D01*
X163714566Y-149014804D01*
X163434962Y-149075628D01*
X163166833Y-149175635D01*
X162915690Y-149312770D01*
X162915682Y-149312775D01*
X162686612Y-149484254D01*
X162686594Y-149484270D01*
X162484270Y-149686594D01*
X162484254Y-149686612D01*
X162312775Y-149915682D01*
X162312770Y-149915690D01*
X162175635Y-150166833D01*
X162075628Y-150434962D01*
X162014804Y-150714566D01*
X161994390Y-150999998D01*
X161994390Y-151000000D01*
X161000499Y-151000000D01*
X161000499Y-149452128D01*
X160994091Y-149392517D01*
X160964347Y-149312770D01*
X160943797Y-149257671D01*
X160943793Y-149257664D01*
X160857547Y-149142455D01*
X160857544Y-149142452D01*
X160742335Y-149056206D01*
X160742328Y-149056202D01*
X160607482Y-149005908D01*
X160607483Y-149005908D01*
X160547883Y-148999501D01*
X160547881Y-148999500D01*
X160547873Y-148999500D01*
X160547864Y-148999500D01*
X157452129Y-148999500D01*
X157452123Y-148999501D01*
X157392516Y-149005908D01*
X157257671Y-149056202D01*
X157257664Y-149056206D01*
X157142455Y-149142452D01*
X157142452Y-149142455D01*
X157056206Y-149257664D01*
X157056202Y-149257671D01*
X157005908Y-149392517D01*
X156999501Y-149452116D01*
X156999501Y-149452123D01*
X156999500Y-149452135D01*
X156999500Y-152547870D01*
X149270473Y-152547870D01*
X149313395Y-152515739D01*
X149515739Y-152313395D01*
X149687226Y-152084315D01*
X149824367Y-151833161D01*
X149924369Y-151565046D01*
X149924371Y-151565037D01*
X149985195Y-151285433D01*
X149985195Y-151285432D01*
X149985196Y-151285428D01*
X150005610Y-151000000D01*
X149985196Y-150714572D01*
X149963026Y-150612660D01*
X149924371Y-150434962D01*
X149924370Y-150434960D01*
X149924369Y-150434954D01*
X149824367Y-150166839D01*
X149687226Y-149915685D01*
X149641727Y-149854905D01*
X149515745Y-149686612D01*
X149515729Y-149686594D01*
X149313405Y-149484270D01*
X149313387Y-149484254D01*
X149084317Y-149312775D01*
X149084309Y-149312770D01*
X148833166Y-149175635D01*
X148833167Y-149175635D01*
X148725914Y-149135632D01*
X148565046Y-149075631D01*
X148565043Y-149075630D01*
X148565037Y-149075628D01*
X148285433Y-149014804D01*
X148000001Y-148994390D01*
X147999999Y-148994390D01*
X147714566Y-149014804D01*
X147434962Y-149075628D01*
X147166833Y-149175635D01*
X146915690Y-149312770D01*
X146915682Y-149312775D01*
X146686612Y-149484254D01*
X146686594Y-149484270D01*
X146484270Y-149686594D01*
X146484254Y-149686612D01*
X146312775Y-149915682D01*
X146312770Y-149915690D01*
X146175635Y-150166833D01*
X146075628Y-150434962D01*
X146014804Y-150714566D01*
X145994390Y-150999998D01*
X145994390Y-151000000D01*
X145005610Y-151000000D01*
X144985196Y-150714572D01*
X144963026Y-150612660D01*
X144924371Y-150434962D01*
X144924370Y-150434960D01*
X144924369Y-150434954D01*
X144824367Y-150166839D01*
X144687226Y-149915685D01*
X144641727Y-149854905D01*
X144515745Y-149686612D01*
X144515729Y-149686594D01*
X144313405Y-149484270D01*
X144313387Y-149484254D01*
X144084317Y-149312775D01*
X144084309Y-149312770D01*
X143833166Y-149175635D01*
X143833167Y-149175635D01*
X143725914Y-149135632D01*
X143565046Y-149075631D01*
X143565043Y-149075630D01*
X143565037Y-149075628D01*
X143285433Y-149014804D01*
X143000001Y-148994390D01*
X142999999Y-148994390D01*
X142714566Y-149014804D01*
X142434962Y-149075628D01*
X142166833Y-149175635D01*
X141915690Y-149312770D01*
X141915682Y-149312775D01*
X141686612Y-149484254D01*
X141686594Y-149484270D01*
X141484270Y-149686594D01*
X141484254Y-149686612D01*
X141312775Y-149915682D01*
X141312770Y-149915690D01*
X141175635Y-150166833D01*
X141075628Y-150434962D01*
X141014804Y-150714566D01*
X140994390Y-150999998D01*
X140994390Y-151000000D01*
X140000499Y-151000000D01*
X140000499Y-149452128D01*
X139994091Y-149392517D01*
X139964347Y-149312770D01*
X139943797Y-149257671D01*
X139943793Y-149257664D01*
X139857547Y-149142455D01*
X139857544Y-149142452D01*
X139742335Y-149056206D01*
X139742328Y-149056202D01*
X139607482Y-149005908D01*
X139607483Y-149005908D01*
X139547883Y-148999501D01*
X139547881Y-148999500D01*
X139547873Y-148999500D01*
X139547864Y-148999500D01*
X136452129Y-148999500D01*
X136452123Y-148999501D01*
X136392516Y-149005908D01*
X136257671Y-149056202D01*
X136257664Y-149056206D01*
X136142455Y-149142452D01*
X136142452Y-149142455D01*
X136056206Y-149257664D01*
X136056202Y-149257671D01*
X136005908Y-149392517D01*
X135999501Y-149452116D01*
X135999501Y-149452123D01*
X135999500Y-149452135D01*
X135999500Y-152547870D01*
X128270473Y-152547870D01*
X128313395Y-152515739D01*
X128515739Y-152313395D01*
X128687226Y-152084315D01*
X128824367Y-151833161D01*
X128924369Y-151565046D01*
X128924371Y-151565037D01*
X128985195Y-151285433D01*
X128985195Y-151285432D01*
X128985196Y-151285428D01*
X129005610Y-151000000D01*
X128985196Y-150714572D01*
X128963026Y-150612660D01*
X128924371Y-150434962D01*
X128924370Y-150434960D01*
X128924369Y-150434954D01*
X128824367Y-150166839D01*
X128687226Y-149915685D01*
X128641727Y-149854905D01*
X128515745Y-149686612D01*
X128515729Y-149686594D01*
X128313405Y-149484270D01*
X128313387Y-149484254D01*
X128084317Y-149312775D01*
X128084309Y-149312770D01*
X127833166Y-149175635D01*
X127833167Y-149175635D01*
X127725914Y-149135632D01*
X127565046Y-149075631D01*
X127565043Y-149075630D01*
X127565037Y-149075628D01*
X127285433Y-149014804D01*
X127000001Y-148994390D01*
X126999999Y-148994390D01*
X126714566Y-149014804D01*
X126434962Y-149075628D01*
X126166833Y-149175635D01*
X125915690Y-149312770D01*
X125915682Y-149312775D01*
X125686612Y-149484254D01*
X125686594Y-149484270D01*
X125484270Y-149686594D01*
X125484254Y-149686612D01*
X125312775Y-149915682D01*
X125312770Y-149915690D01*
X125175635Y-150166833D01*
X125075628Y-150434962D01*
X125014804Y-150714566D01*
X124994390Y-150999998D01*
X124994390Y-151000000D01*
X124005610Y-151000000D01*
X123985196Y-150714572D01*
X123963026Y-150612660D01*
X123924371Y-150434962D01*
X123924370Y-150434960D01*
X123924369Y-150434954D01*
X123824367Y-150166839D01*
X123687226Y-149915685D01*
X123641727Y-149854905D01*
X123515745Y-149686612D01*
X123515729Y-149686594D01*
X123313405Y-149484270D01*
X123313387Y-149484254D01*
X123084317Y-149312775D01*
X123084309Y-149312770D01*
X122833166Y-149175635D01*
X122833167Y-149175635D01*
X122725915Y-149135632D01*
X122565046Y-149075631D01*
X122565043Y-149075630D01*
X122565037Y-149075628D01*
X122285433Y-149014804D01*
X122000001Y-148994390D01*
X121999999Y-148994390D01*
X121714566Y-149014804D01*
X121434962Y-149075628D01*
X121166833Y-149175635D01*
X120915690Y-149312770D01*
X120915682Y-149312775D01*
X120686612Y-149484254D01*
X120686594Y-149484270D01*
X120484270Y-149686594D01*
X120484254Y-149686612D01*
X120312775Y-149915682D01*
X120312770Y-149915690D01*
X120175635Y-150166833D01*
X120075628Y-150434962D01*
X120014804Y-150714566D01*
X119994390Y-150999998D01*
X119994390Y-151000000D01*
X119000499Y-151000000D01*
X119000499Y-149452128D01*
X118994091Y-149392517D01*
X118964347Y-149312770D01*
X118943797Y-149257671D01*
X118943793Y-149257664D01*
X118857547Y-149142455D01*
X118857544Y-149142452D01*
X118742335Y-149056206D01*
X118742328Y-149056202D01*
X118607482Y-149005908D01*
X118607483Y-149005908D01*
X118547883Y-148999501D01*
X118547881Y-148999500D01*
X118547873Y-148999500D01*
X118547864Y-148999500D01*
X115452129Y-148999500D01*
X115452123Y-148999501D01*
X115392516Y-149005908D01*
X115257671Y-149056202D01*
X115257664Y-149056206D01*
X115142455Y-149142452D01*
X115142452Y-149142455D01*
X115056206Y-149257664D01*
X115056202Y-149257671D01*
X115005908Y-149392517D01*
X114999501Y-149452116D01*
X114999501Y-149452123D01*
X114999500Y-149452135D01*
X114999500Y-152547870D01*
X108364489Y-152547870D01*
X108385214Y-152507194D01*
X108524214Y-152145087D01*
X108624602Y-151770433D01*
X108685278Y-151387338D01*
X108705578Y-151000000D01*
X108685278Y-150612662D01*
X108624602Y-150229567D01*
X108524214Y-149854913D01*
X108385214Y-149492806D01*
X108209125Y-149147211D01*
X108209122Y-149147206D01*
X107997877Y-148821917D01*
X107753784Y-148520488D01*
X107753781Y-148520484D01*
X107479516Y-148246219D01*
X107445164Y-148218401D01*
X107178082Y-148002122D01*
X106852793Y-147790877D01*
X106507197Y-147614787D01*
X106145094Y-147475788D01*
X106145087Y-147475786D01*
X105862249Y-147400000D01*
X163094540Y-147400000D01*
X163114326Y-147588256D01*
X163114327Y-147588259D01*
X163172818Y-147768277D01*
X163172821Y-147768284D01*
X163267467Y-147932216D01*
X163330411Y-148002122D01*
X163394129Y-148072888D01*
X163547265Y-148184148D01*
X163547270Y-148184151D01*
X163720192Y-148261142D01*
X163720197Y-148261144D01*
X163905354Y-148300500D01*
X163905355Y-148300500D01*
X164094644Y-148300500D01*
X164094646Y-148300500D01*
X164279803Y-148261144D01*
X164452730Y-148184151D01*
X164605871Y-148072888D01*
X164732533Y-147932216D01*
X164827179Y-147768284D01*
X164885674Y-147588256D01*
X164905460Y-147400000D01*
X164885674Y-147211744D01*
X164827179Y-147031716D01*
X164732533Y-146867784D01*
X164605871Y-146727112D01*
X164605870Y-146727111D01*
X164452734Y-146615851D01*
X164452729Y-146615848D01*
X164279807Y-146538857D01*
X164279802Y-146538855D01*
X164134000Y-146507865D01*
X164094646Y-146499500D01*
X163905354Y-146499500D01*
X163872897Y-146506398D01*
X163720197Y-146538855D01*
X163720192Y-146538857D01*
X163547270Y-146615848D01*
X163547265Y-146615851D01*
X163394129Y-146727111D01*
X163267466Y-146867785D01*
X163172821Y-147031715D01*
X163172818Y-147031722D01*
X163114327Y-147211740D01*
X163114326Y-147211744D01*
X163094540Y-147400000D01*
X105862249Y-147400000D01*
X105770433Y-147375398D01*
X105770429Y-147375397D01*
X105770428Y-147375397D01*
X105387339Y-147314722D01*
X105000001Y-147294422D01*
X104999999Y-147294422D01*
X104612660Y-147314722D01*
X104229572Y-147375397D01*
X104229570Y-147375397D01*
X103854905Y-147475788D01*
X103492802Y-147614787D01*
X103147206Y-147790877D01*
X102821917Y-148002122D01*
X102520488Y-148246215D01*
X102520480Y-148246222D01*
X102246222Y-148520480D01*
X102246215Y-148520488D01*
X102002122Y-148821917D01*
X101790877Y-149147206D01*
X101614787Y-149492802D01*
X101475788Y-149854905D01*
X101375397Y-150229570D01*
X101375397Y-150229572D01*
X101314722Y-150612660D01*
X101294422Y-150999999D01*
X101294422Y-151000000D01*
X100000500Y-151000000D01*
X100000500Y-150999500D01*
X100000500Y-143449737D01*
X176010941Y-143449737D01*
X176021441Y-143552517D01*
X176021442Y-143552518D01*
X176076627Y-143719057D01*
X176076628Y-143719059D01*
X176168727Y-143868373D01*
X176168730Y-143868377D01*
X176292785Y-143992432D01*
X176292789Y-143992435D01*
X176442103Y-144084534D01*
X176442105Y-144084535D01*
X176442107Y-144084536D01*
X176608644Y-144139721D01*
X176711433Y-144150222D01*
X176711438Y-144150222D01*
X179011444Y-144150222D01*
X179011449Y-144150222D01*
X179114238Y-144139721D01*
X179280775Y-144084536D01*
X179430096Y-143992433D01*
X179554152Y-143868377D01*
X179646255Y-143719056D01*
X179701440Y-143552519D01*
X179711941Y-143449730D01*
X179711941Y-141149714D01*
X179701440Y-141046925D01*
X179646255Y-140880388D01*
X179554152Y-140731067D01*
X179430096Y-140607011D01*
X179430092Y-140607008D01*
X179280778Y-140514909D01*
X179280776Y-140514908D01*
X179197506Y-140487315D01*
X179114238Y-140459723D01*
X179114236Y-140459722D01*
X179011456Y-140449222D01*
X179011449Y-140449222D01*
X176711433Y-140449222D01*
X176711425Y-140449222D01*
X176608645Y-140459722D01*
X176608644Y-140459723D01*
X176442105Y-140514908D01*
X176442103Y-140514909D01*
X176292789Y-140607008D01*
X176292785Y-140607011D01*
X176168730Y-140731066D01*
X176168727Y-140731070D01*
X176076628Y-140880384D01*
X176076627Y-140880386D01*
X176021442Y-141046925D01*
X176021441Y-141046926D01*
X176010941Y-141149706D01*
X176010941Y-143449737D01*
X100000500Y-143449737D01*
X100000500Y-142000000D01*
X153294540Y-142000000D01*
X153314326Y-142188256D01*
X153314327Y-142188259D01*
X153372818Y-142368277D01*
X153372821Y-142368284D01*
X153467467Y-142532216D01*
X153594128Y-142672887D01*
X153594129Y-142672888D01*
X153747265Y-142784148D01*
X153747270Y-142784151D01*
X153920192Y-142861142D01*
X153920197Y-142861144D01*
X154105354Y-142900500D01*
X154105355Y-142900500D01*
X154294644Y-142900500D01*
X154294646Y-142900500D01*
X154479803Y-142861144D01*
X154652730Y-142784151D01*
X154805871Y-142672888D01*
X154932533Y-142532216D01*
X155027179Y-142368284D01*
X155085674Y-142188256D01*
X155105460Y-142000000D01*
X155085674Y-141811744D01*
X155027179Y-141631716D01*
X154932533Y-141467784D01*
X154805871Y-141327112D01*
X154805870Y-141327111D01*
X154652734Y-141215851D01*
X154652729Y-141215848D01*
X154479807Y-141138857D01*
X154479802Y-141138855D01*
X154334001Y-141107865D01*
X154294646Y-141099500D01*
X154105354Y-141099500D01*
X154072897Y-141106398D01*
X153920197Y-141138855D01*
X153920192Y-141138857D01*
X153747270Y-141215848D01*
X153747265Y-141215851D01*
X153594129Y-141327111D01*
X153467466Y-141467785D01*
X153372821Y-141631715D01*
X153372818Y-141631722D01*
X153323076Y-141784813D01*
X153314326Y-141811744D01*
X153294540Y-142000000D01*
X100000500Y-142000000D01*
X100000500Y-141150015D01*
X104149500Y-141150015D01*
X104160000Y-141252795D01*
X104160001Y-141252796D01*
X104215186Y-141419335D01*
X104215187Y-141419337D01*
X104307286Y-141568651D01*
X104307289Y-141568655D01*
X104431344Y-141692710D01*
X104431348Y-141692713D01*
X104580662Y-141784812D01*
X104580664Y-141784813D01*
X104580666Y-141784814D01*
X104747203Y-141839999D01*
X104849992Y-141850500D01*
X104849997Y-141850500D01*
X107150003Y-141850500D01*
X107150008Y-141850500D01*
X107252797Y-141839999D01*
X107419334Y-141784814D01*
X107568655Y-141692711D01*
X107692711Y-141568655D01*
X107784814Y-141419334D01*
X107839999Y-141252797D01*
X107850500Y-141150008D01*
X107850500Y-140000000D01*
X145694540Y-140000000D01*
X145714326Y-140188256D01*
X145714327Y-140188259D01*
X145772818Y-140368277D01*
X145772821Y-140368284D01*
X145867467Y-140532216D01*
X145934813Y-140607011D01*
X145994129Y-140672888D01*
X146147265Y-140784148D01*
X146147270Y-140784151D01*
X146320192Y-140861142D01*
X146320197Y-140861144D01*
X146505354Y-140900500D01*
X146505355Y-140900500D01*
X146694644Y-140900500D01*
X146694646Y-140900500D01*
X146879803Y-140861144D01*
X147052730Y-140784151D01*
X147205871Y-140672888D01*
X147332533Y-140532216D01*
X147427179Y-140368284D01*
X147485674Y-140188256D01*
X147505460Y-140000000D01*
X147485674Y-139811744D01*
X147427179Y-139631716D01*
X147332533Y-139467784D01*
X147205871Y-139327112D01*
X147205870Y-139327111D01*
X147052734Y-139215851D01*
X147052729Y-139215848D01*
X146879807Y-139138857D01*
X146879802Y-139138855D01*
X146734001Y-139107865D01*
X146694646Y-139099500D01*
X146505354Y-139099500D01*
X146472897Y-139106398D01*
X146320197Y-139138855D01*
X146320192Y-139138857D01*
X146147270Y-139215848D01*
X146147265Y-139215851D01*
X145994129Y-139327111D01*
X145867466Y-139467785D01*
X145772821Y-139631715D01*
X145772818Y-139631722D01*
X145714327Y-139811740D01*
X145714326Y-139811744D01*
X145694540Y-140000000D01*
X107850500Y-140000000D01*
X107850500Y-138849992D01*
X107839999Y-138747203D01*
X107784814Y-138580666D01*
X107692711Y-138431345D01*
X107568655Y-138307289D01*
X107568651Y-138307286D01*
X107419337Y-138215187D01*
X107419335Y-138215186D01*
X107336065Y-138187593D01*
X107252797Y-138160001D01*
X107252795Y-138160000D01*
X107150015Y-138149500D01*
X107150008Y-138149500D01*
X104849992Y-138149500D01*
X104849984Y-138149500D01*
X104747204Y-138160000D01*
X104747203Y-138160001D01*
X104580664Y-138215186D01*
X104580662Y-138215187D01*
X104431348Y-138307286D01*
X104431344Y-138307289D01*
X104307289Y-138431344D01*
X104307286Y-138431348D01*
X104215187Y-138580662D01*
X104215186Y-138580664D01*
X104160001Y-138747203D01*
X104160000Y-138747204D01*
X104149500Y-138849984D01*
X104149500Y-141150015D01*
X100000500Y-141150015D01*
X100000500Y-137000000D01*
X138494540Y-137000000D01*
X138514326Y-137188256D01*
X138514327Y-137188259D01*
X138572818Y-137368277D01*
X138572821Y-137368284D01*
X138667467Y-137532216D01*
X138695859Y-137563748D01*
X138794129Y-137672888D01*
X138947265Y-137784148D01*
X138947270Y-137784151D01*
X139120192Y-137861142D01*
X139120197Y-137861144D01*
X139305354Y-137900500D01*
X139305355Y-137900500D01*
X139494644Y-137900500D01*
X139494646Y-137900500D01*
X139679803Y-137861144D01*
X139852730Y-137784151D01*
X140005871Y-137672888D01*
X140132533Y-137532216D01*
X140227179Y-137368284D01*
X140285674Y-137188256D01*
X140305460Y-137000000D01*
X152294540Y-137000000D01*
X152314326Y-137188256D01*
X152314327Y-137188259D01*
X152372818Y-137368277D01*
X152372821Y-137368284D01*
X152467467Y-137532216D01*
X152495859Y-137563748D01*
X152594129Y-137672888D01*
X152747265Y-137784148D01*
X152747270Y-137784151D01*
X152920192Y-137861142D01*
X152920197Y-137861144D01*
X153105354Y-137900500D01*
X153105355Y-137900500D01*
X153294644Y-137900500D01*
X153294646Y-137900500D01*
X153479803Y-137861144D01*
X153652730Y-137784151D01*
X153805871Y-137672888D01*
X153932533Y-137532216D01*
X154027179Y-137368284D01*
X154049456Y-137299723D01*
X176006214Y-137299723D01*
X176025098Y-137563749D01*
X176025099Y-137563756D01*
X176081362Y-137822395D01*
X176173867Y-138070412D01*
X176173869Y-138070416D01*
X176300721Y-138302727D01*
X176300726Y-138302735D01*
X176459347Y-138514629D01*
X176459363Y-138514647D01*
X176646515Y-138701799D01*
X176646533Y-138701815D01*
X176858427Y-138860436D01*
X176858435Y-138860441D01*
X177090746Y-138987293D01*
X177090750Y-138987295D01*
X177090752Y-138987296D01*
X177338763Y-139079799D01*
X177338766Y-139079799D01*
X177338767Y-139079800D01*
X177533993Y-139122268D01*
X177597415Y-139136065D01*
X177841101Y-139153494D01*
X177861440Y-139154949D01*
X177861441Y-139154949D01*
X177861442Y-139154949D01*
X177880326Y-139153598D01*
X178125467Y-139136065D01*
X178384119Y-139079799D01*
X178632130Y-138987296D01*
X178864452Y-138860438D01*
X179076356Y-138701809D01*
X179263528Y-138514637D01*
X179422157Y-138302733D01*
X179549015Y-138070411D01*
X179641518Y-137822400D01*
X179697784Y-137563748D01*
X179716668Y-137299722D01*
X179697784Y-137035696D01*
X179654418Y-136836343D01*
X179641519Y-136777048D01*
X179608147Y-136687574D01*
X179549015Y-136529033D01*
X179515570Y-136467784D01*
X179422160Y-136296716D01*
X179422155Y-136296708D01*
X179263534Y-136084814D01*
X179263518Y-136084796D01*
X179076366Y-135897644D01*
X179076348Y-135897628D01*
X178864454Y-135739007D01*
X178864446Y-135739002D01*
X178632135Y-135612150D01*
X178632131Y-135612148D01*
X178384114Y-135519643D01*
X178125475Y-135463380D01*
X178125468Y-135463379D01*
X177861442Y-135444495D01*
X177861440Y-135444495D01*
X177597413Y-135463379D01*
X177597406Y-135463380D01*
X177338767Y-135519643D01*
X177090750Y-135612148D01*
X177090746Y-135612150D01*
X176858435Y-135739002D01*
X176858427Y-135739007D01*
X176646533Y-135897628D01*
X176646515Y-135897644D01*
X176459363Y-136084796D01*
X176459347Y-136084814D01*
X176300726Y-136296708D01*
X176300721Y-136296716D01*
X176173869Y-136529027D01*
X176173867Y-136529031D01*
X176081362Y-136777048D01*
X176025099Y-137035687D01*
X176025098Y-137035694D01*
X176006214Y-137299720D01*
X176006214Y-137299723D01*
X154049456Y-137299723D01*
X154085674Y-137188256D01*
X154105460Y-137000000D01*
X154085674Y-136811744D01*
X154027179Y-136631716D01*
X153932533Y-136467784D01*
X153805871Y-136327112D01*
X153805870Y-136327111D01*
X153652734Y-136215851D01*
X153652729Y-136215848D01*
X153479807Y-136138857D01*
X153479802Y-136138855D01*
X153334001Y-136107865D01*
X153294646Y-136099500D01*
X153105354Y-136099500D01*
X153072897Y-136106398D01*
X152920197Y-136138855D01*
X152920192Y-136138857D01*
X152747270Y-136215848D01*
X152747265Y-136215851D01*
X152594129Y-136327111D01*
X152467466Y-136467785D01*
X152372821Y-136631715D01*
X152372818Y-136631722D01*
X152325599Y-136777048D01*
X152314326Y-136811744D01*
X152294540Y-137000000D01*
X140305460Y-137000000D01*
X140285674Y-136811744D01*
X140227179Y-136631716D01*
X140132533Y-136467784D01*
X140005871Y-136327112D01*
X140005870Y-136327111D01*
X139852734Y-136215851D01*
X139852729Y-136215848D01*
X139679807Y-136138857D01*
X139679802Y-136138855D01*
X139534000Y-136107865D01*
X139494646Y-136099500D01*
X139305354Y-136099500D01*
X139272897Y-136106398D01*
X139120197Y-136138855D01*
X139120192Y-136138857D01*
X138947270Y-136215848D01*
X138947265Y-136215851D01*
X138794129Y-136327111D01*
X138667466Y-136467785D01*
X138572821Y-136631715D01*
X138572818Y-136631722D01*
X138525599Y-136777048D01*
X138514326Y-136811744D01*
X138494540Y-137000000D01*
X100000500Y-137000000D01*
X100000500Y-135000001D01*
X104144773Y-135000001D01*
X104163657Y-135264027D01*
X104163658Y-135264034D01*
X104219921Y-135522673D01*
X104312426Y-135770690D01*
X104312428Y-135770694D01*
X104439280Y-136003005D01*
X104439285Y-136003013D01*
X104597906Y-136214907D01*
X104597922Y-136214925D01*
X104785074Y-136402077D01*
X104785092Y-136402093D01*
X104996986Y-136560714D01*
X104996994Y-136560719D01*
X105229305Y-136687571D01*
X105229309Y-136687573D01*
X105229311Y-136687574D01*
X105477322Y-136780077D01*
X105477325Y-136780077D01*
X105477326Y-136780078D01*
X105672552Y-136822546D01*
X105735974Y-136836343D01*
X105979660Y-136853772D01*
X105999999Y-136855227D01*
X106000000Y-136855227D01*
X106000001Y-136855227D01*
X106018884Y-136853876D01*
X106264026Y-136836343D01*
X106522678Y-136780077D01*
X106770689Y-136687574D01*
X107003011Y-136560716D01*
X107214915Y-136402087D01*
X107402087Y-136214915D01*
X107560716Y-136003011D01*
X107687574Y-135770689D01*
X107780077Y-135522678D01*
X107836343Y-135264026D01*
X107855227Y-135000000D01*
X107836343Y-134735974D01*
X107780077Y-134477322D01*
X107687574Y-134229311D01*
X107560716Y-133996989D01*
X107560714Y-133996986D01*
X107402093Y-133785092D01*
X107402077Y-133785074D01*
X107214925Y-133597922D01*
X107214907Y-133597906D01*
X107003013Y-133439285D01*
X107003005Y-133439280D01*
X106770694Y-133312428D01*
X106770690Y-133312426D01*
X106522673Y-133219921D01*
X106264034Y-133163658D01*
X106264027Y-133163657D01*
X106000001Y-133144773D01*
X105999999Y-133144773D01*
X105735972Y-133163657D01*
X105735965Y-133163658D01*
X105477326Y-133219921D01*
X105229309Y-133312426D01*
X105229305Y-133312428D01*
X104996994Y-133439280D01*
X104996986Y-133439285D01*
X104785092Y-133597906D01*
X104785074Y-133597922D01*
X104597922Y-133785074D01*
X104597906Y-133785092D01*
X104439285Y-133996986D01*
X104439280Y-133996994D01*
X104312428Y-134229305D01*
X104312426Y-134229309D01*
X104219921Y-134477326D01*
X104163658Y-134735965D01*
X104163657Y-134735972D01*
X104144773Y-134999998D01*
X104144773Y-135000001D01*
X100000500Y-135000001D01*
X100000500Y-132200006D01*
X142784700Y-132200006D01*
X142803864Y-132431297D01*
X142803866Y-132431308D01*
X142860842Y-132656300D01*
X142954075Y-132868848D01*
X143081016Y-133063147D01*
X143081019Y-133063151D01*
X143081021Y-133063153D01*
X143238216Y-133233913D01*
X143238219Y-133233915D01*
X143238222Y-133233918D01*
X143421365Y-133376464D01*
X143421371Y-133376468D01*
X143421374Y-133376470D01*
X143625497Y-133486936D01*
X143739487Y-133526068D01*
X143845015Y-133562297D01*
X143845017Y-133562297D01*
X143845019Y-133562298D01*
X144073951Y-133600500D01*
X144073952Y-133600500D01*
X144306048Y-133600500D01*
X144306049Y-133600500D01*
X144534981Y-133562298D01*
X144754503Y-133486936D01*
X144958626Y-133376470D01*
X145141784Y-133233913D01*
X145220992Y-133147870D01*
X150409500Y-133147870D01*
X150409501Y-133147876D01*
X150415908Y-133207483D01*
X150466202Y-133342328D01*
X150466206Y-133342335D01*
X150552452Y-133457544D01*
X150552455Y-133457547D01*
X150667664Y-133543793D01*
X150667671Y-133543797D01*
X150802517Y-133594091D01*
X150802516Y-133594091D01*
X150809444Y-133594835D01*
X150862127Y-133600500D01*
X152757872Y-133600499D01*
X152817483Y-133594091D01*
X152952331Y-133543796D01*
X153067546Y-133457546D01*
X153153796Y-133342331D01*
X153204091Y-133207483D01*
X153210500Y-133147873D01*
X153210499Y-131252128D01*
X153204091Y-131192517D01*
X153194233Y-131166087D01*
X153153797Y-131057671D01*
X153153793Y-131057664D01*
X153067547Y-130942455D01*
X153067544Y-130942452D01*
X152952335Y-130856206D01*
X152952328Y-130856202D01*
X152817482Y-130805908D01*
X152817483Y-130805908D01*
X152757883Y-130799501D01*
X152757881Y-130799500D01*
X152757873Y-130799500D01*
X152757864Y-130799500D01*
X150862129Y-130799500D01*
X150862123Y-130799501D01*
X150802516Y-130805908D01*
X150667671Y-130856202D01*
X150667664Y-130856206D01*
X150552455Y-130942452D01*
X150552452Y-130942455D01*
X150466206Y-131057664D01*
X150466202Y-131057671D01*
X150415908Y-131192517D01*
X150409501Y-131252116D01*
X150409501Y-131252123D01*
X150409500Y-131252135D01*
X150409500Y-133147870D01*
X145220992Y-133147870D01*
X145298979Y-133063153D01*
X145425924Y-132868849D01*
X145519157Y-132656300D01*
X145576134Y-132431305D01*
X145595300Y-132200000D01*
X145595300Y-132199993D01*
X145576135Y-131968702D01*
X145576133Y-131968691D01*
X145519157Y-131743699D01*
X145425924Y-131531151D01*
X145298983Y-131336852D01*
X145298980Y-131336849D01*
X145298979Y-131336847D01*
X145141784Y-131166087D01*
X145141779Y-131166083D01*
X145141777Y-131166081D01*
X144958634Y-131023535D01*
X144958628Y-131023531D01*
X144754504Y-130913064D01*
X144754495Y-130913061D01*
X144534984Y-130837702D01*
X144344450Y-130805908D01*
X144306049Y-130799500D01*
X144073951Y-130799500D01*
X144035550Y-130805908D01*
X143845015Y-130837702D01*
X143625504Y-130913061D01*
X143625495Y-130913064D01*
X143421371Y-131023531D01*
X143421365Y-131023535D01*
X143238222Y-131166081D01*
X143238219Y-131166084D01*
X143238216Y-131166086D01*
X143238216Y-131166087D01*
X143213886Y-131192517D01*
X143081016Y-131336852D01*
X142954075Y-131531151D01*
X142860842Y-131743699D01*
X142803866Y-131968691D01*
X142803864Y-131968702D01*
X142784700Y-132199993D01*
X142784700Y-132200006D01*
X100000500Y-132200006D01*
X100000500Y-129447870D01*
X142789500Y-129447870D01*
X142789501Y-129447876D01*
X142795908Y-129507483D01*
X142846202Y-129642328D01*
X142846206Y-129642335D01*
X142932452Y-129757544D01*
X142932455Y-129757547D01*
X143047664Y-129843793D01*
X143047671Y-129843797D01*
X143182517Y-129894091D01*
X143182516Y-129894091D01*
X143189444Y-129894835D01*
X143242127Y-129900500D01*
X145137872Y-129900499D01*
X145197483Y-129894091D01*
X145332331Y-129843796D01*
X145447546Y-129757546D01*
X145533796Y-129642331D01*
X145584091Y-129507483D01*
X145590500Y-129447873D01*
X145590500Y-128500006D01*
X150404700Y-128500006D01*
X150423864Y-128731297D01*
X150423866Y-128731308D01*
X150480842Y-128956300D01*
X150574075Y-129168848D01*
X150701016Y-129363147D01*
X150701019Y-129363151D01*
X150701021Y-129363153D01*
X150858216Y-129533913D01*
X150858219Y-129533915D01*
X150858222Y-129533918D01*
X151041365Y-129676464D01*
X151041371Y-129676468D01*
X151041374Y-129676470D01*
X151245497Y-129786936D01*
X151359487Y-129826068D01*
X151465015Y-129862297D01*
X151465017Y-129862297D01*
X151465019Y-129862298D01*
X151693951Y-129900500D01*
X151693952Y-129900500D01*
X151926048Y-129900500D01*
X151926049Y-129900500D01*
X152154981Y-129862298D01*
X152374503Y-129786936D01*
X152578626Y-129676470D01*
X152761784Y-129533913D01*
X152918979Y-129363153D01*
X153045924Y-129168849D01*
X153139157Y-128956300D01*
X153196134Y-128731305D01*
X153215300Y-128500000D01*
X153215300Y-128499993D01*
X153196135Y-128268702D01*
X153196133Y-128268691D01*
X153139157Y-128043699D01*
X153045924Y-127831151D01*
X152918983Y-127636852D01*
X152918980Y-127636849D01*
X152918979Y-127636847D01*
X152761784Y-127466087D01*
X152761779Y-127466083D01*
X152761777Y-127466081D01*
X152578634Y-127323535D01*
X152578628Y-127323531D01*
X152374504Y-127213064D01*
X152374495Y-127213061D01*
X152154984Y-127137702D01*
X151964450Y-127105908D01*
X151926049Y-127099500D01*
X151693951Y-127099500D01*
X151655550Y-127105908D01*
X151465015Y-127137702D01*
X151245504Y-127213061D01*
X151245495Y-127213064D01*
X151041371Y-127323531D01*
X151041365Y-127323535D01*
X150858222Y-127466081D01*
X150858219Y-127466084D01*
X150858216Y-127466086D01*
X150858216Y-127466087D01*
X150833886Y-127492517D01*
X150701016Y-127636852D01*
X150574075Y-127831151D01*
X150480842Y-128043699D01*
X150423866Y-128268691D01*
X150423864Y-128268702D01*
X150404700Y-128499993D01*
X150404700Y-128500006D01*
X145590500Y-128500006D01*
X145590499Y-127552128D01*
X145584091Y-127492517D01*
X145574233Y-127466087D01*
X145533797Y-127357671D01*
X145533793Y-127357664D01*
X145447547Y-127242455D01*
X145447544Y-127242452D01*
X145332335Y-127156206D01*
X145332328Y-127156202D01*
X145197482Y-127105908D01*
X145197483Y-127105908D01*
X145137883Y-127099501D01*
X145137881Y-127099500D01*
X145137873Y-127099500D01*
X145137864Y-127099500D01*
X143242129Y-127099500D01*
X143242123Y-127099501D01*
X143182516Y-127105908D01*
X143047671Y-127156202D01*
X143047664Y-127156206D01*
X142932455Y-127242452D01*
X142932452Y-127242455D01*
X142846206Y-127357664D01*
X142846202Y-127357671D01*
X142795908Y-127492517D01*
X142789501Y-127552116D01*
X142789501Y-127552123D01*
X142789500Y-127552135D01*
X142789500Y-129447870D01*
X100000500Y-129447870D01*
X100000500Y-121427515D01*
X104149500Y-121427515D01*
X104160000Y-121530295D01*
X104160001Y-121530296D01*
X104215186Y-121696835D01*
X104215187Y-121696837D01*
X104307286Y-121846151D01*
X104307289Y-121846155D01*
X104431344Y-121970210D01*
X104431348Y-121970213D01*
X104580662Y-122062312D01*
X104580664Y-122062313D01*
X104580666Y-122062314D01*
X104747203Y-122117499D01*
X104849992Y-122128000D01*
X104849997Y-122128000D01*
X107150003Y-122128000D01*
X107150008Y-122128000D01*
X107252797Y-122117499D01*
X107419334Y-122062314D01*
X107568655Y-121970211D01*
X107570996Y-121967870D01*
X115967000Y-121967870D01*
X115967001Y-121967876D01*
X115973408Y-122027483D01*
X116023702Y-122162328D01*
X116023706Y-122162335D01*
X116109952Y-122277544D01*
X116109955Y-122277547D01*
X116225164Y-122363793D01*
X116225171Y-122363797D01*
X116360017Y-122414091D01*
X116360016Y-122414091D01*
X116366944Y-122414835D01*
X116419627Y-122420500D01*
X117959619Y-122420499D01*
X117959627Y-122420500D01*
X120855372Y-122420499D01*
X120914983Y-122414091D01*
X121049831Y-122363796D01*
X121165046Y-122277546D01*
X121223097Y-122200000D01*
X146094540Y-122200000D01*
X146114326Y-122388256D01*
X146114327Y-122388259D01*
X146172818Y-122568277D01*
X146172821Y-122568284D01*
X146267467Y-122732216D01*
X146394128Y-122872887D01*
X146394129Y-122872888D01*
X146547265Y-122984148D01*
X146547270Y-122984151D01*
X146720192Y-123061142D01*
X146720197Y-123061144D01*
X146905354Y-123100500D01*
X146905355Y-123100500D01*
X147094644Y-123100500D01*
X147094646Y-123100500D01*
X147279803Y-123061144D01*
X147452730Y-122984151D01*
X147605871Y-122872888D01*
X147732533Y-122732216D01*
X147827179Y-122568284D01*
X147885674Y-122388256D01*
X147905460Y-122200000D01*
X147885674Y-122011744D01*
X147827179Y-121831716D01*
X147732533Y-121667784D01*
X147605871Y-121527112D01*
X147605870Y-121527111D01*
X147452734Y-121415851D01*
X147452729Y-121415848D01*
X147279807Y-121338857D01*
X147279802Y-121338855D01*
X147134000Y-121307865D01*
X147094646Y-121299500D01*
X146905354Y-121299500D01*
X146872897Y-121306398D01*
X146720197Y-121338855D01*
X146720192Y-121338857D01*
X146547270Y-121415848D01*
X146547265Y-121415851D01*
X146394129Y-121527111D01*
X146267466Y-121667785D01*
X146172821Y-121831715D01*
X146172818Y-121831722D01*
X146127820Y-121970213D01*
X146114326Y-122011744D01*
X146094540Y-122200000D01*
X121223097Y-122200000D01*
X121251296Y-122162331D01*
X121301591Y-122027483D01*
X121308000Y-121967873D01*
X121307999Y-120972844D01*
X127437500Y-120972844D01*
X127443901Y-121032372D01*
X127443903Y-121032379D01*
X127494145Y-121167086D01*
X127494149Y-121167093D01*
X127580309Y-121282187D01*
X127580312Y-121282190D01*
X127695406Y-121368350D01*
X127695413Y-121368354D01*
X127830120Y-121418596D01*
X127830127Y-121418598D01*
X127889655Y-121424999D01*
X127889672Y-121425000D01*
X128287500Y-121425000D01*
X128287500Y-120730892D01*
X128307185Y-120663853D01*
X128359989Y-120618098D01*
X128429147Y-120608154D01*
X128456291Y-120615265D01*
X128481420Y-120625000D01*
X128565299Y-120625000D01*
X128565302Y-120625000D01*
X128640718Y-120610902D01*
X128710230Y-120617933D01*
X128764908Y-120661430D01*
X128787391Y-120727584D01*
X128787500Y-120732791D01*
X128787500Y-121425000D01*
X129185328Y-121425000D01*
X129185344Y-121424999D01*
X129244872Y-121418598D01*
X129244879Y-121418596D01*
X129379586Y-121368354D01*
X129379593Y-121368350D01*
X129494687Y-121282190D01*
X129494690Y-121282187D01*
X129580850Y-121167093D01*
X129585104Y-121159304D01*
X129587288Y-121160496D01*
X129621230Y-121115148D01*
X129686692Y-121090726D01*
X129754966Y-121105572D01*
X129779086Y-121122772D01*
X129871458Y-121206980D01*
X129871460Y-121206982D01*
X129970641Y-121268392D01*
X130044863Y-121314348D01*
X130235044Y-121388024D01*
X130435524Y-121425500D01*
X130435526Y-121425500D01*
X130639474Y-121425500D01*
X130639476Y-121425500D01*
X130839956Y-121388024D01*
X131030137Y-121314348D01*
X131203541Y-121206981D01*
X131354264Y-121069579D01*
X131477173Y-120906821D01*
X131568082Y-120724250D01*
X131623897Y-120528083D01*
X131642715Y-120325000D01*
X131630109Y-120188962D01*
X131623897Y-120121917D01*
X131623897Y-120121916D01*
X131568082Y-119925750D01*
X131566420Y-119922413D01*
X131486771Y-119762455D01*
X131477173Y-119743179D01*
X131354264Y-119580421D01*
X131354262Y-119580418D01*
X131203541Y-119443019D01*
X131203539Y-119443017D01*
X131030142Y-119335655D01*
X131030135Y-119335651D01*
X130890728Y-119281645D01*
X130839956Y-119261976D01*
X130639476Y-119224500D01*
X130435524Y-119224500D01*
X130235044Y-119261976D01*
X130235041Y-119261976D01*
X130235041Y-119261977D01*
X130044864Y-119335651D01*
X130044857Y-119335655D01*
X129871460Y-119443017D01*
X129871457Y-119443019D01*
X129779086Y-119527227D01*
X129716282Y-119557844D01*
X129646895Y-119549646D01*
X129592955Y-119505236D01*
X129585370Y-119490550D01*
X129585104Y-119490696D01*
X129580850Y-119482906D01*
X129494690Y-119367812D01*
X129494687Y-119367809D01*
X129379593Y-119281649D01*
X129379586Y-119281645D01*
X129244879Y-119231403D01*
X129244872Y-119231401D01*
X129185344Y-119225000D01*
X128787500Y-119225000D01*
X128787500Y-119919107D01*
X128767815Y-119986146D01*
X128715011Y-120031901D01*
X128645853Y-120041845D01*
X128618712Y-120034736D01*
X128593580Y-120025000D01*
X128509698Y-120025000D01*
X128457620Y-120034735D01*
X128434284Y-120039097D01*
X128364769Y-120032065D01*
X128310091Y-119988567D01*
X128287609Y-119922413D01*
X128287500Y-119917208D01*
X128287500Y-119225000D01*
X127889655Y-119225000D01*
X127830127Y-119231401D01*
X127830120Y-119231403D01*
X127695413Y-119281645D01*
X127695406Y-119281649D01*
X127580312Y-119367809D01*
X127580309Y-119367812D01*
X127494149Y-119482906D01*
X127494145Y-119482913D01*
X127443903Y-119617620D01*
X127443901Y-119617627D01*
X127437500Y-119677155D01*
X127437500Y-120075000D01*
X128132521Y-120075000D01*
X128199560Y-120094685D01*
X128245315Y-120147489D01*
X128255259Y-120216647D01*
X128251787Y-120232934D01*
X128233605Y-120296837D01*
X128233604Y-120296837D01*
X128243953Y-120408517D01*
X128246385Y-120417063D01*
X128245799Y-120486930D01*
X128207534Y-120545390D01*
X128143737Y-120573881D01*
X128127119Y-120575000D01*
X127437500Y-120575000D01*
X127437500Y-120972844D01*
X121307999Y-120972844D01*
X121307999Y-120072128D01*
X121301591Y-120012517D01*
X121292658Y-119988567D01*
X121251297Y-119877671D01*
X121251293Y-119877664D01*
X121165047Y-119762455D01*
X121165044Y-119762452D01*
X121049835Y-119676206D01*
X121049828Y-119676202D01*
X120914982Y-119625908D01*
X120914983Y-119625908D01*
X120855383Y-119619501D01*
X120855381Y-119619500D01*
X120855373Y-119619500D01*
X118315381Y-119619500D01*
X118315373Y-119619500D01*
X116419629Y-119619500D01*
X116419623Y-119619501D01*
X116360016Y-119625908D01*
X116225171Y-119676202D01*
X116225164Y-119676206D01*
X116109955Y-119762452D01*
X116109952Y-119762455D01*
X116023706Y-119877664D01*
X116023702Y-119877671D01*
X115973408Y-120012517D01*
X115967711Y-120065516D01*
X115967001Y-120072123D01*
X115967000Y-120072135D01*
X115967000Y-121967870D01*
X107570996Y-121967870D01*
X107692711Y-121846155D01*
X107784814Y-121696834D01*
X107839999Y-121530297D01*
X107850500Y-121427508D01*
X107850500Y-119127492D01*
X107839999Y-119024703D01*
X107784814Y-118858166D01*
X107692711Y-118708845D01*
X107568655Y-118584789D01*
X107568651Y-118584786D01*
X107419337Y-118492687D01*
X107419335Y-118492686D01*
X107336065Y-118465093D01*
X107252797Y-118437501D01*
X107252795Y-118437500D01*
X107150015Y-118427000D01*
X107150008Y-118427000D01*
X104849992Y-118427000D01*
X104849984Y-118427000D01*
X104747204Y-118437500D01*
X104747203Y-118437501D01*
X104580664Y-118492686D01*
X104580662Y-118492687D01*
X104431348Y-118584786D01*
X104431344Y-118584789D01*
X104307289Y-118708844D01*
X104307286Y-118708848D01*
X104215187Y-118858162D01*
X104215186Y-118858164D01*
X104160001Y-119024703D01*
X104160000Y-119024704D01*
X104149500Y-119127484D01*
X104149500Y-121427515D01*
X100000500Y-121427515D01*
X100000500Y-115277501D01*
X104144773Y-115277501D01*
X104163657Y-115541527D01*
X104163658Y-115541534D01*
X104219921Y-115800173D01*
X104312426Y-116048190D01*
X104312428Y-116048194D01*
X104439280Y-116280505D01*
X104439285Y-116280513D01*
X104597906Y-116492407D01*
X104597922Y-116492425D01*
X104785074Y-116679577D01*
X104785092Y-116679593D01*
X104996986Y-116838214D01*
X104996994Y-116838219D01*
X105229305Y-116965071D01*
X105229309Y-116965073D01*
X105229311Y-116965074D01*
X105477322Y-117057577D01*
X105477325Y-117057577D01*
X105477326Y-117057578D01*
X105672552Y-117100046D01*
X105735974Y-117113843D01*
X105979660Y-117131272D01*
X105999999Y-117132727D01*
X106000000Y-117132727D01*
X106000001Y-117132727D01*
X106018884Y-117131376D01*
X106264026Y-117113843D01*
X106522678Y-117057577D01*
X106770689Y-116965074D01*
X107003011Y-116838216D01*
X107214915Y-116679587D01*
X107402087Y-116492415D01*
X107560716Y-116280511D01*
X107687574Y-116048189D01*
X107780077Y-115800178D01*
X107834963Y-115547870D01*
X127464401Y-115547870D01*
X127464402Y-115547876D01*
X127470809Y-115607483D01*
X127521103Y-115742328D01*
X127521107Y-115742335D01*
X127607353Y-115857544D01*
X127607356Y-115857547D01*
X127722565Y-115943793D01*
X127722572Y-115943797D01*
X127857418Y-115994091D01*
X127857417Y-115994091D01*
X127864345Y-115994835D01*
X127917028Y-116000500D01*
X129212773Y-116000499D01*
X129272384Y-115994091D01*
X129407232Y-115943796D01*
X129522447Y-115857546D01*
X129608697Y-115742331D01*
X129608698Y-115742326D01*
X129612948Y-115734546D01*
X129615163Y-115735755D01*
X129649031Y-115690509D01*
X129714494Y-115666088D01*
X129782768Y-115680937D01*
X129806885Y-115698135D01*
X129898859Y-115781980D01*
X129898861Y-115781982D01*
X129908994Y-115788256D01*
X130072264Y-115889348D01*
X130262445Y-115963024D01*
X130462925Y-116000500D01*
X130462927Y-116000500D01*
X130666875Y-116000500D01*
X130666877Y-116000500D01*
X130867357Y-115963024D01*
X131057538Y-115889348D01*
X131230942Y-115781981D01*
X131381665Y-115644579D01*
X131415329Y-115600000D01*
X151494540Y-115600000D01*
X151514326Y-115788256D01*
X151514327Y-115788259D01*
X151572818Y-115968277D01*
X151572821Y-115968284D01*
X151667467Y-116132216D01*
X151794128Y-116272887D01*
X151794129Y-116272888D01*
X151947265Y-116384148D01*
X151947270Y-116384151D01*
X152120192Y-116461142D01*
X152120197Y-116461144D01*
X152305354Y-116500500D01*
X152305355Y-116500500D01*
X152494644Y-116500500D01*
X152494646Y-116500500D01*
X152679803Y-116461144D01*
X152852730Y-116384151D01*
X153005871Y-116272888D01*
X153132533Y-116132216D01*
X153227179Y-115968284D01*
X153285674Y-115788256D01*
X153305460Y-115600000D01*
X153694540Y-115600000D01*
X153714326Y-115788256D01*
X153714327Y-115788259D01*
X153772818Y-115968277D01*
X153772821Y-115968284D01*
X153867467Y-116132216D01*
X153994128Y-116272887D01*
X153994129Y-116272888D01*
X154147265Y-116384148D01*
X154147270Y-116384151D01*
X154320192Y-116461142D01*
X154320197Y-116461144D01*
X154505354Y-116500500D01*
X154505355Y-116500500D01*
X154694644Y-116500500D01*
X154694646Y-116500500D01*
X154879803Y-116461144D01*
X155052730Y-116384151D01*
X155205871Y-116272888D01*
X155332533Y-116132216D01*
X155427179Y-115968284D01*
X155485674Y-115788256D01*
X155505460Y-115600000D01*
X155485674Y-115411744D01*
X155427179Y-115231716D01*
X155332533Y-115067784D01*
X155205871Y-114927112D01*
X155205870Y-114927111D01*
X155052734Y-114815851D01*
X155052729Y-114815848D01*
X154879807Y-114738857D01*
X154879802Y-114738855D01*
X154734001Y-114707865D01*
X154694646Y-114699500D01*
X154505354Y-114699500D01*
X154472897Y-114706398D01*
X154320197Y-114738855D01*
X154320192Y-114738857D01*
X154147270Y-114815848D01*
X154147265Y-114815851D01*
X153994129Y-114927111D01*
X153867466Y-115067785D01*
X153772821Y-115231715D01*
X153772818Y-115231722D01*
X153750874Y-115299260D01*
X153714326Y-115411744D01*
X153694540Y-115600000D01*
X153305460Y-115600000D01*
X153285674Y-115411744D01*
X153227179Y-115231716D01*
X153132533Y-115067784D01*
X153005871Y-114927112D01*
X153005870Y-114927111D01*
X152852734Y-114815851D01*
X152852729Y-114815848D01*
X152679807Y-114738857D01*
X152679802Y-114738855D01*
X152534001Y-114707865D01*
X152494646Y-114699500D01*
X152305354Y-114699500D01*
X152272897Y-114706398D01*
X152120197Y-114738855D01*
X152120192Y-114738857D01*
X151947270Y-114815848D01*
X151947265Y-114815851D01*
X151794129Y-114927111D01*
X151667466Y-115067785D01*
X151572821Y-115231715D01*
X151572818Y-115231722D01*
X151550874Y-115299260D01*
X151514326Y-115411744D01*
X151494540Y-115600000D01*
X131415329Y-115600000D01*
X131504574Y-115481821D01*
X131595483Y-115299250D01*
X131651298Y-115103083D01*
X131670116Y-114900000D01*
X131651298Y-114696917D01*
X131595483Y-114500750D01*
X131504574Y-114318179D01*
X131381665Y-114155421D01*
X131381663Y-114155418D01*
X131230942Y-114018019D01*
X131230940Y-114018017D01*
X131057543Y-113910655D01*
X131057536Y-113910651D01*
X130917238Y-113856300D01*
X130867357Y-113836976D01*
X130666877Y-113799500D01*
X130462925Y-113799500D01*
X130262445Y-113836976D01*
X130262442Y-113836976D01*
X130262442Y-113836977D01*
X130072265Y-113910651D01*
X130072258Y-113910655D01*
X129898863Y-114018016D01*
X129806885Y-114101865D01*
X129744080Y-114132481D01*
X129674693Y-114124283D01*
X129620754Y-114079873D01*
X129613228Y-114065301D01*
X129612948Y-114065454D01*
X129608694Y-114057664D01*
X129522448Y-113942455D01*
X129522445Y-113942452D01*
X129407236Y-113856206D01*
X129407229Y-113856202D01*
X129272383Y-113805908D01*
X129272384Y-113805908D01*
X129212784Y-113799501D01*
X129212782Y-113799500D01*
X129212774Y-113799500D01*
X129212765Y-113799500D01*
X127917030Y-113799500D01*
X127917024Y-113799501D01*
X127857417Y-113805908D01*
X127722572Y-113856202D01*
X127722565Y-113856206D01*
X127607356Y-113942452D01*
X127607353Y-113942455D01*
X127521107Y-114057664D01*
X127521103Y-114057671D01*
X127470809Y-114192517D01*
X127464402Y-114252116D01*
X127464401Y-114252135D01*
X127464401Y-115547870D01*
X107834963Y-115547870D01*
X107836343Y-115541526D01*
X107855227Y-115277500D01*
X107836343Y-115013474D01*
X107780077Y-114754822D01*
X107687574Y-114506811D01*
X107684264Y-114500750D01*
X107560719Y-114274494D01*
X107560714Y-114274486D01*
X107402093Y-114062592D01*
X107402077Y-114062574D01*
X107214925Y-113875422D01*
X107214907Y-113875406D01*
X107003013Y-113716785D01*
X107003005Y-113716780D01*
X106789139Y-113600000D01*
X114094540Y-113600000D01*
X114114326Y-113788256D01*
X114114327Y-113788259D01*
X114172818Y-113968277D01*
X114172821Y-113968284D01*
X114267467Y-114132216D01*
X114375426Y-114252116D01*
X114394129Y-114272888D01*
X114547265Y-114384148D01*
X114547270Y-114384151D01*
X114720192Y-114461142D01*
X114720197Y-114461144D01*
X114905354Y-114500500D01*
X114905355Y-114500500D01*
X115094644Y-114500500D01*
X115094646Y-114500500D01*
X115279803Y-114461144D01*
X115452730Y-114384151D01*
X115605871Y-114272888D01*
X115732533Y-114132216D01*
X115827179Y-113968284D01*
X115837520Y-113936455D01*
X115876958Y-113878780D01*
X115941316Y-113851581D01*
X116010163Y-113863495D01*
X116061639Y-113910739D01*
X116069008Y-113924963D01*
X116132016Y-114068609D01*
X116258914Y-114262842D01*
X116416058Y-114433545D01*
X116416062Y-114433548D01*
X116599144Y-114576047D01*
X116599148Y-114576050D01*
X116803197Y-114686476D01*
X116803206Y-114686479D01*
X117022639Y-114761811D01*
X117117499Y-114777640D01*
X117117499Y-113961820D01*
X117137183Y-113894781D01*
X117189987Y-113849026D01*
X117259146Y-113839082D01*
X117278044Y-113843328D01*
X117299673Y-113850000D01*
X117401223Y-113850000D01*
X117401224Y-113850000D01*
X117475019Y-113838877D01*
X117544242Y-113848350D01*
X117597357Y-113893744D01*
X117617497Y-113960648D01*
X117617500Y-113961492D01*
X117617500Y-114777640D01*
X117712360Y-114761811D01*
X117931793Y-114686479D01*
X117931802Y-114686476D01*
X118135851Y-114576050D01*
X118135855Y-114576047D01*
X118318937Y-114433548D01*
X118318941Y-114433545D01*
X118476084Y-114262842D01*
X118533392Y-114175126D01*
X118586538Y-114129769D01*
X118655769Y-114120345D01*
X118719105Y-114149846D01*
X118741010Y-114175126D01*
X118798516Y-114263147D01*
X118798519Y-114263151D01*
X118798521Y-114263153D01*
X118955716Y-114433913D01*
X118955719Y-114433915D01*
X118955722Y-114433918D01*
X119138865Y-114576464D01*
X119138871Y-114576468D01*
X119138874Y-114576470D01*
X119306360Y-114667109D01*
X119342152Y-114686479D01*
X119342997Y-114686936D01*
X119379595Y-114699500D01*
X119562515Y-114762297D01*
X119562517Y-114762297D01*
X119562519Y-114762298D01*
X119791451Y-114800500D01*
X119791452Y-114800500D01*
X120023548Y-114800500D01*
X120023549Y-114800500D01*
X120252481Y-114762298D01*
X120472003Y-114686936D01*
X120676126Y-114576470D01*
X120676670Y-114576047D01*
X120773411Y-114500750D01*
X120859284Y-114433913D01*
X121016479Y-114263153D01*
X121143424Y-114068849D01*
X121236657Y-113856300D01*
X121293634Y-113631305D01*
X121299024Y-113566260D01*
X121312800Y-113400006D01*
X121312800Y-113399993D01*
X121293635Y-113168702D01*
X121293633Y-113168691D01*
X121236657Y-112943699D01*
X121143424Y-112731151D01*
X121016483Y-112536852D01*
X121016480Y-112536849D01*
X121016479Y-112536847D01*
X120890503Y-112400000D01*
X151894540Y-112400000D01*
X151914326Y-112588256D01*
X151914327Y-112588259D01*
X151972818Y-112768277D01*
X151972821Y-112768284D01*
X152067467Y-112932216D01*
X152119482Y-112989984D01*
X152194129Y-113072888D01*
X152347265Y-113184148D01*
X152347270Y-113184151D01*
X152520192Y-113261142D01*
X152520197Y-113261144D01*
X152705354Y-113300500D01*
X152705355Y-113300500D01*
X152894644Y-113300500D01*
X152894646Y-113300500D01*
X153079803Y-113261144D01*
X153252730Y-113184151D01*
X153405871Y-113072888D01*
X153532533Y-112932216D01*
X153627179Y-112768284D01*
X153685674Y-112588256D01*
X153705460Y-112400000D01*
X153685674Y-112211744D01*
X153627179Y-112031716D01*
X153532533Y-111867784D01*
X153405871Y-111727112D01*
X153405870Y-111727111D01*
X153252734Y-111615851D01*
X153252729Y-111615848D01*
X153079807Y-111538857D01*
X153079802Y-111538855D01*
X152934001Y-111507865D01*
X152894646Y-111499500D01*
X152705354Y-111499500D01*
X152672897Y-111506398D01*
X152520197Y-111538855D01*
X152520192Y-111538857D01*
X152347270Y-111615848D01*
X152347265Y-111615851D01*
X152194129Y-111727111D01*
X152067466Y-111867785D01*
X151972821Y-112031715D01*
X151972818Y-112031722D01*
X151914327Y-112211740D01*
X151914326Y-112211744D01*
X151894540Y-112400000D01*
X120890503Y-112400000D01*
X120859284Y-112366087D01*
X120859279Y-112366083D01*
X120859277Y-112366081D01*
X120676134Y-112223535D01*
X120676128Y-112223531D01*
X120472004Y-112113064D01*
X120471995Y-112113061D01*
X120252484Y-112037702D01*
X120080781Y-112009050D01*
X120023549Y-111999500D01*
X119791451Y-111999500D01*
X119745664Y-112007140D01*
X119562515Y-112037702D01*
X119343004Y-112113061D01*
X119342995Y-112113064D01*
X119138871Y-112223531D01*
X119138865Y-112223535D01*
X118955722Y-112366081D01*
X118955719Y-112366084D01*
X118798515Y-112536854D01*
X118741009Y-112624874D01*
X118687863Y-112670230D01*
X118618632Y-112679654D01*
X118555296Y-112650152D01*
X118533392Y-112624873D01*
X118476085Y-112537157D01*
X118318941Y-112366454D01*
X118318937Y-112366451D01*
X118135855Y-112223952D01*
X118135851Y-112223949D01*
X117931802Y-112113523D01*
X117931793Y-112113520D01*
X117712361Y-112038188D01*
X117617500Y-112022359D01*
X117617500Y-112838178D01*
X117597815Y-112905217D01*
X117545011Y-112950972D01*
X117475853Y-112960916D01*
X117456954Y-112956670D01*
X117435329Y-112950000D01*
X117435327Y-112950000D01*
X117333776Y-112950000D01*
X117333768Y-112950000D01*
X117259981Y-112961122D01*
X117190756Y-112951649D01*
X117137643Y-112906254D01*
X117117503Y-112839350D01*
X117117500Y-112838507D01*
X117117500Y-112022359D01*
X117117499Y-112022359D01*
X117022638Y-112038188D01*
X116803206Y-112113520D01*
X116803197Y-112113523D01*
X116599148Y-112223949D01*
X116599144Y-112223952D01*
X116416062Y-112366451D01*
X116416058Y-112366454D01*
X116258914Y-112537157D01*
X116132016Y-112731390D01*
X116038817Y-112943865D01*
X116038814Y-112943873D01*
X115998566Y-113102808D01*
X115963027Y-113162963D01*
X115900606Y-113194355D01*
X115831123Y-113187017D01*
X115776638Y-113143278D01*
X115770984Y-113134384D01*
X115732533Y-113067784D01*
X115605871Y-112927112D01*
X115605870Y-112927111D01*
X115452734Y-112815851D01*
X115452729Y-112815848D01*
X115279807Y-112738857D01*
X115279802Y-112738855D01*
X115134000Y-112707865D01*
X115094646Y-112699500D01*
X114905354Y-112699500D01*
X114872897Y-112706398D01*
X114720197Y-112738855D01*
X114720192Y-112738857D01*
X114547270Y-112815848D01*
X114547265Y-112815851D01*
X114394129Y-112927111D01*
X114267466Y-113067785D01*
X114172821Y-113231715D01*
X114172818Y-113231722D01*
X114118144Y-113399993D01*
X114114326Y-113411744D01*
X114094540Y-113600000D01*
X106789139Y-113600000D01*
X106770694Y-113589928D01*
X106770690Y-113589926D01*
X106522673Y-113497421D01*
X106264034Y-113441158D01*
X106264027Y-113441157D01*
X106000001Y-113422273D01*
X105999999Y-113422273D01*
X105735972Y-113441157D01*
X105735965Y-113441158D01*
X105477326Y-113497421D01*
X105229309Y-113589926D01*
X105229305Y-113589928D01*
X104996994Y-113716780D01*
X104996986Y-113716785D01*
X104785092Y-113875406D01*
X104785074Y-113875422D01*
X104597922Y-114062574D01*
X104597906Y-114062592D01*
X104439285Y-114274486D01*
X104439280Y-114274494D01*
X104312428Y-114506805D01*
X104312426Y-114506809D01*
X104219921Y-114754826D01*
X104163658Y-115013465D01*
X104163657Y-115013472D01*
X104144773Y-115277498D01*
X104144773Y-115277501D01*
X100000500Y-115277501D01*
X100000500Y-110347844D01*
X114655000Y-110347844D01*
X114661401Y-110407372D01*
X114661403Y-110407379D01*
X114711645Y-110542086D01*
X114711649Y-110542093D01*
X114797809Y-110657187D01*
X114797812Y-110657190D01*
X114912906Y-110743350D01*
X114912913Y-110743354D01*
X115047620Y-110793596D01*
X115047627Y-110793598D01*
X115107155Y-110799999D01*
X115107172Y-110800000D01*
X115805000Y-110800000D01*
X115805000Y-109961821D01*
X115824685Y-109894782D01*
X115877489Y-109849027D01*
X115946647Y-109839083D01*
X115965547Y-109843329D01*
X115987173Y-109850000D01*
X116088723Y-109850000D01*
X116088724Y-109850000D01*
X116162519Y-109838877D01*
X116231742Y-109848350D01*
X116284857Y-109893744D01*
X116304997Y-109960648D01*
X116305000Y-109961492D01*
X116305000Y-110800000D01*
X117002828Y-110800000D01*
X117002844Y-110799999D01*
X117062372Y-110793598D01*
X117062379Y-110793596D01*
X117197086Y-110743354D01*
X117197093Y-110743350D01*
X117312187Y-110657190D01*
X117312190Y-110657187D01*
X117398350Y-110542093D01*
X117398354Y-110542086D01*
X117448596Y-110407379D01*
X117448598Y-110407372D01*
X117454999Y-110347844D01*
X117455000Y-110347827D01*
X117455000Y-109650000D01*
X116615003Y-109650000D01*
X116547964Y-109630315D01*
X116502209Y-109577511D01*
X116492265Y-109508353D01*
X116494112Y-109498408D01*
X116508810Y-109434007D01*
X116508810Y-109434006D01*
X116506262Y-109400006D01*
X122269700Y-109400006D01*
X122288864Y-109631297D01*
X122288866Y-109631308D01*
X122345842Y-109856300D01*
X122439075Y-110068848D01*
X122566016Y-110263147D01*
X122566019Y-110263151D01*
X122566021Y-110263153D01*
X122723216Y-110433913D01*
X122723219Y-110433915D01*
X122723222Y-110433918D01*
X122906365Y-110576464D01*
X122906371Y-110576468D01*
X122906374Y-110576470D01*
X123110497Y-110686936D01*
X123224487Y-110726068D01*
X123330015Y-110762297D01*
X123330017Y-110762297D01*
X123330019Y-110762298D01*
X123558951Y-110800500D01*
X123558952Y-110800500D01*
X123791048Y-110800500D01*
X123791049Y-110800500D01*
X124019981Y-110762298D01*
X124239503Y-110686936D01*
X124443626Y-110576470D01*
X124626784Y-110433913D01*
X124783979Y-110263153D01*
X124910924Y-110068849D01*
X125004157Y-109856300D01*
X125061134Y-109631305D01*
X125061698Y-109624499D01*
X125080300Y-109400006D01*
X125080300Y-109399993D01*
X125061135Y-109168702D01*
X125061133Y-109168691D01*
X125004157Y-108943699D01*
X124910924Y-108731151D01*
X124783983Y-108536852D01*
X124783980Y-108536849D01*
X124783979Y-108536847D01*
X124626784Y-108366087D01*
X124626779Y-108366083D01*
X124626777Y-108366081D01*
X124443634Y-108223535D01*
X124443628Y-108223531D01*
X124239504Y-108113064D01*
X124239495Y-108113061D01*
X124019984Y-108037702D01*
X123832404Y-108006401D01*
X123791049Y-107999500D01*
X123558951Y-107999500D01*
X123517596Y-108006401D01*
X123330015Y-108037702D01*
X123110504Y-108113061D01*
X123110495Y-108113064D01*
X122906371Y-108223531D01*
X122906365Y-108223535D01*
X122723222Y-108366081D01*
X122723219Y-108366084D01*
X122723216Y-108366086D01*
X122723216Y-108366087D01*
X122698791Y-108392620D01*
X122566016Y-108536852D01*
X122439075Y-108731151D01*
X122345842Y-108943699D01*
X122288866Y-109168691D01*
X122288864Y-109168702D01*
X122269700Y-109399993D01*
X122269700Y-109400006D01*
X116506262Y-109400006D01*
X116497979Y-109289468D01*
X116500079Y-109289310D01*
X116503595Y-109231861D01*
X116544890Y-109175501D01*
X116610101Y-109150413D01*
X116620216Y-109150000D01*
X117455000Y-109150000D01*
X117455000Y-108452172D01*
X117454999Y-108452155D01*
X117448598Y-108392627D01*
X117448596Y-108392620D01*
X117398354Y-108257913D01*
X117398350Y-108257906D01*
X117312190Y-108142812D01*
X117312187Y-108142809D01*
X117197093Y-108056649D01*
X117197086Y-108056645D01*
X117062379Y-108006403D01*
X117062372Y-108006401D01*
X117002844Y-108000000D01*
X116305000Y-108000000D01*
X116305000Y-108838178D01*
X116285315Y-108905217D01*
X116232511Y-108950972D01*
X116163353Y-108960916D01*
X116144454Y-108956670D01*
X116122829Y-108950000D01*
X116122827Y-108950000D01*
X116021276Y-108950000D01*
X116021268Y-108950000D01*
X115947481Y-108961122D01*
X115878256Y-108951649D01*
X115825143Y-108906254D01*
X115805003Y-108839350D01*
X115805000Y-108838507D01*
X115805000Y-108000000D01*
X115107155Y-108000000D01*
X115047627Y-108006401D01*
X115047620Y-108006403D01*
X114912913Y-108056645D01*
X114912906Y-108056649D01*
X114797812Y-108142809D01*
X114797809Y-108142812D01*
X114711649Y-108257906D01*
X114711645Y-108257913D01*
X114661403Y-108392620D01*
X114661401Y-108392627D01*
X114655000Y-108452155D01*
X114655000Y-109150000D01*
X115494997Y-109150000D01*
X115562036Y-109169685D01*
X115607791Y-109222489D01*
X115617735Y-109291647D01*
X115615888Y-109301592D01*
X115601189Y-109365992D01*
X115601189Y-109365993D01*
X115612021Y-109510532D01*
X115609920Y-109510689D01*
X115606405Y-109568139D01*
X115565110Y-109624499D01*
X115499899Y-109649587D01*
X115489784Y-109650000D01*
X114655000Y-109650000D01*
X114655000Y-110347844D01*
X100000500Y-110347844D01*
X100000500Y-104999999D01*
X101294422Y-104999999D01*
X101314722Y-105387339D01*
X101350546Y-105613523D01*
X101375398Y-105770433D01*
X101464338Y-106102364D01*
X101475788Y-106145094D01*
X101614787Y-106507197D01*
X101790877Y-106852793D01*
X102002122Y-107178082D01*
X102129083Y-107334865D01*
X102246219Y-107479516D01*
X102520484Y-107753781D01*
X102520488Y-107753784D01*
X102821917Y-107997877D01*
X103112339Y-108186479D01*
X103147211Y-108209125D01*
X103492806Y-108385214D01*
X103854913Y-108524214D01*
X104229567Y-108624602D01*
X104612662Y-108685278D01*
X104978576Y-108704455D01*
X104999999Y-108705578D01*
X105000000Y-108705578D01*
X105000001Y-108705578D01*
X105020300Y-108704514D01*
X105387338Y-108685278D01*
X105770433Y-108624602D01*
X106145087Y-108524214D01*
X106507194Y-108385214D01*
X106852789Y-108209125D01*
X107178084Y-107997876D01*
X107363326Y-107847870D01*
X126197000Y-107847870D01*
X126197001Y-107847876D01*
X126203408Y-107907483D01*
X126253702Y-108042328D01*
X126253706Y-108042335D01*
X126339952Y-108157544D01*
X126339955Y-108157547D01*
X126455164Y-108243793D01*
X126455171Y-108243797D01*
X126590017Y-108294091D01*
X126590016Y-108294091D01*
X126596944Y-108294835D01*
X126649627Y-108300500D01*
X128545372Y-108300499D01*
X128604983Y-108294091D01*
X128739831Y-108243796D01*
X128855046Y-108157546D01*
X128941296Y-108042331D01*
X128991591Y-107907483D01*
X128998000Y-107847873D01*
X128997999Y-107737305D01*
X129017683Y-107670269D01*
X129034318Y-107649627D01*
X129562314Y-107121631D01*
X129623637Y-107088146D01*
X129693329Y-107093130D01*
X129746943Y-107132000D01*
X129827964Y-107233599D01*
X129827966Y-107233600D01*
X129900223Y-107282865D01*
X129944525Y-107336894D01*
X129952583Y-107406297D01*
X129921840Y-107469040D01*
X129918052Y-107472999D01*
X129338699Y-108052351D01*
X129369150Y-108076050D01*
X129573197Y-108186476D01*
X129573206Y-108186479D01*
X129792639Y-108261811D01*
X130021493Y-108300000D01*
X130253507Y-108300000D01*
X130482360Y-108261811D01*
X130701793Y-108186479D01*
X130701802Y-108186476D01*
X130905850Y-108076050D01*
X130936298Y-108052351D01*
X130359557Y-107475610D01*
X130326072Y-107414287D01*
X130331056Y-107344595D01*
X130372928Y-107288662D01*
X130393430Y-107276212D01*
X130393857Y-107276007D01*
X130493298Y-107183740D01*
X130515533Y-107145226D01*
X130566096Y-107097014D01*
X130634703Y-107083789D01*
X130699568Y-107109756D01*
X130710600Y-107119547D01*
X131288686Y-107697634D01*
X131372984Y-107568606D01*
X131466182Y-107356135D01*
X131523138Y-107131218D01*
X131542298Y-106900005D01*
X131542298Y-106899994D01*
X131523138Y-106668781D01*
X131466182Y-106443864D01*
X131372983Y-106231390D01*
X131288686Y-106102364D01*
X130712684Y-106678367D01*
X130651361Y-106711852D01*
X130581669Y-106706868D01*
X130528055Y-106667998D01*
X130447035Y-106566400D01*
X130447033Y-106566399D01*
X130374775Y-106517134D01*
X130330473Y-106463106D01*
X130322415Y-106393702D01*
X130353157Y-106330959D01*
X130356946Y-106327000D01*
X130936299Y-105747647D01*
X130905849Y-105723949D01*
X130701802Y-105613523D01*
X130701793Y-105613520D01*
X130482360Y-105538188D01*
X130253507Y-105500000D01*
X130021493Y-105500000D01*
X129792639Y-105538188D01*
X129573206Y-105613520D01*
X129573198Y-105613523D01*
X129369144Y-105723952D01*
X129338700Y-105747646D01*
X129338700Y-105747647D01*
X129915442Y-106324389D01*
X129948927Y-106385712D01*
X129943943Y-106455404D01*
X129902071Y-106511337D01*
X129881573Y-106523785D01*
X129881146Y-106523990D01*
X129881145Y-106523990D01*
X129781702Y-106616260D01*
X129781699Y-106616264D01*
X129759467Y-106654771D01*
X129708900Y-106702987D01*
X129640293Y-106716209D01*
X129575428Y-106690241D01*
X129564399Y-106680452D01*
X129034318Y-106150371D01*
X129000833Y-106089048D01*
X128997999Y-106062690D01*
X128997999Y-105952129D01*
X128997998Y-105952123D01*
X128997997Y-105952116D01*
X128991591Y-105892517D01*
X128988103Y-105883166D01*
X128941297Y-105757671D01*
X128941293Y-105757664D01*
X128855047Y-105642455D01*
X128855044Y-105642452D01*
X128739835Y-105556206D01*
X128739828Y-105556202D01*
X128604982Y-105505908D01*
X128604983Y-105505908D01*
X128545383Y-105499501D01*
X128545381Y-105499500D01*
X128545373Y-105499500D01*
X128545364Y-105499500D01*
X126649629Y-105499500D01*
X126649623Y-105499501D01*
X126590016Y-105505908D01*
X126455171Y-105556202D01*
X126455164Y-105556206D01*
X126339955Y-105642452D01*
X126339952Y-105642455D01*
X126253706Y-105757664D01*
X126253702Y-105757671D01*
X126203408Y-105892517D01*
X126197001Y-105952116D01*
X126197001Y-105952123D01*
X126197000Y-105952135D01*
X126197000Y-107847870D01*
X107363326Y-107847870D01*
X107479516Y-107753781D01*
X107753781Y-107479516D01*
X107997876Y-107178084D01*
X108209125Y-106852789D01*
X108385214Y-106507194D01*
X108524214Y-106145087D01*
X108624602Y-105770433D01*
X108685278Y-105387338D01*
X108702957Y-105050001D01*
X134994390Y-105050001D01*
X135014804Y-105335433D01*
X135075628Y-105615037D01*
X135075630Y-105615043D01*
X135075631Y-105615046D01*
X135133586Y-105770429D01*
X135175635Y-105883166D01*
X135312770Y-106134309D01*
X135312775Y-106134317D01*
X135484254Y-106363387D01*
X135484270Y-106363405D01*
X135686594Y-106565729D01*
X135686612Y-106565745D01*
X135915682Y-106737224D01*
X135915690Y-106737229D01*
X136166833Y-106874364D01*
X136166832Y-106874364D01*
X136166836Y-106874365D01*
X136166839Y-106874367D01*
X136434954Y-106974369D01*
X136434960Y-106974370D01*
X136434962Y-106974371D01*
X136714566Y-107035195D01*
X136714568Y-107035195D01*
X136714572Y-107035196D01*
X136968220Y-107053337D01*
X136999999Y-107055610D01*
X137000000Y-107055610D01*
X137000001Y-107055610D01*
X137028595Y-107053564D01*
X137285428Y-107035196D01*
X137444924Y-107000500D01*
X137565037Y-106974371D01*
X137565037Y-106974370D01*
X137565046Y-106974369D01*
X137833161Y-106874367D01*
X138084315Y-106737226D01*
X138313395Y-106565739D01*
X138515739Y-106363395D01*
X138687226Y-106134315D01*
X138824367Y-105883161D01*
X138924369Y-105615046D01*
X138948110Y-105505909D01*
X138985195Y-105335433D01*
X138985195Y-105335432D01*
X138985196Y-105335428D01*
X139005610Y-105050001D01*
X139994390Y-105050001D01*
X140014804Y-105335433D01*
X140075628Y-105615037D01*
X140075630Y-105615043D01*
X140075631Y-105615046D01*
X140133586Y-105770429D01*
X140175635Y-105883166D01*
X140312770Y-106134309D01*
X140312775Y-106134317D01*
X140484254Y-106363387D01*
X140484270Y-106363405D01*
X140686594Y-106565729D01*
X140686612Y-106565745D01*
X140915682Y-106737224D01*
X140915690Y-106737229D01*
X141166833Y-106874364D01*
X141166832Y-106874364D01*
X141166836Y-106874365D01*
X141166839Y-106874367D01*
X141434954Y-106974369D01*
X141434960Y-106974370D01*
X141434962Y-106974371D01*
X141714566Y-107035195D01*
X141714568Y-107035195D01*
X141714572Y-107035196D01*
X141968220Y-107053337D01*
X141999999Y-107055610D01*
X142000000Y-107055610D01*
X142000001Y-107055610D01*
X142028595Y-107053564D01*
X142285428Y-107035196D01*
X142444924Y-107000500D01*
X142565037Y-106974371D01*
X142565037Y-106974370D01*
X142565046Y-106974369D01*
X142833161Y-106874367D01*
X143084315Y-106737226D01*
X143270473Y-106597870D01*
X144999500Y-106597870D01*
X144999501Y-106597876D01*
X145005908Y-106657483D01*
X145056202Y-106792328D01*
X145056206Y-106792335D01*
X145142452Y-106907544D01*
X145142455Y-106907547D01*
X145257664Y-106993793D01*
X145257671Y-106993797D01*
X145392517Y-107044091D01*
X145392516Y-107044091D01*
X145399444Y-107044835D01*
X145452127Y-107050500D01*
X148547872Y-107050499D01*
X148607483Y-107044091D01*
X148742331Y-106993796D01*
X148857546Y-106907546D01*
X148943796Y-106792331D01*
X148994091Y-106657483D01*
X149000500Y-106597873D01*
X149000499Y-104999999D01*
X156994390Y-104999999D01*
X157014804Y-105285433D01*
X157075628Y-105565037D01*
X157075630Y-105565043D01*
X157075631Y-105565046D01*
X157152235Y-105770429D01*
X157175635Y-105833166D01*
X157312770Y-106084309D01*
X157312775Y-106084317D01*
X157484254Y-106313387D01*
X157484270Y-106313405D01*
X157686594Y-106515729D01*
X157686612Y-106515745D01*
X157915682Y-106687224D01*
X157915690Y-106687229D01*
X158166833Y-106824364D01*
X158166832Y-106824364D01*
X158166836Y-106824365D01*
X158166839Y-106824367D01*
X158434954Y-106924369D01*
X158434960Y-106924370D01*
X158434962Y-106924371D01*
X158714566Y-106985195D01*
X158714568Y-106985195D01*
X158714572Y-106985196D01*
X158968220Y-107003337D01*
X158999999Y-107005610D01*
X159000000Y-107005610D01*
X159000001Y-107005610D01*
X159028595Y-107003564D01*
X159285428Y-106985196D01*
X159475742Y-106943796D01*
X159565037Y-106924371D01*
X159565037Y-106924370D01*
X159565046Y-106924369D01*
X159833161Y-106824367D01*
X160084315Y-106687226D01*
X160308360Y-106519507D01*
X160313387Y-106515745D01*
X160313387Y-106515744D01*
X160313395Y-106515739D01*
X160515739Y-106313395D01*
X160687226Y-106084315D01*
X160824367Y-105833161D01*
X160924369Y-105565046D01*
X160985196Y-105285428D01*
X161005610Y-105000000D01*
X161005610Y-104999999D01*
X161994390Y-104999999D01*
X162014804Y-105285433D01*
X162075628Y-105565037D01*
X162075630Y-105565043D01*
X162075631Y-105565046D01*
X162152235Y-105770429D01*
X162175635Y-105833166D01*
X162312770Y-106084309D01*
X162312775Y-106084317D01*
X162484254Y-106313387D01*
X162484270Y-106313405D01*
X162686594Y-106515729D01*
X162686612Y-106515745D01*
X162915682Y-106687224D01*
X162915690Y-106687229D01*
X163166833Y-106824364D01*
X163166832Y-106824364D01*
X163166836Y-106824365D01*
X163166839Y-106824367D01*
X163434954Y-106924369D01*
X163434960Y-106924370D01*
X163434962Y-106924371D01*
X163714566Y-106985195D01*
X163714568Y-106985195D01*
X163714572Y-106985196D01*
X163968220Y-107003337D01*
X163999999Y-107005610D01*
X164000000Y-107005610D01*
X164000001Y-107005610D01*
X164028595Y-107003564D01*
X164285428Y-106985196D01*
X164475742Y-106943796D01*
X164565037Y-106924371D01*
X164565037Y-106924370D01*
X164565046Y-106924369D01*
X164833161Y-106824367D01*
X165084315Y-106687226D01*
X165270472Y-106547870D01*
X166999500Y-106547870D01*
X166999501Y-106547876D01*
X167005908Y-106607483D01*
X167056202Y-106742328D01*
X167056206Y-106742335D01*
X167142452Y-106857544D01*
X167142455Y-106857547D01*
X167257664Y-106943793D01*
X167257671Y-106943797D01*
X167392517Y-106994091D01*
X167392516Y-106994091D01*
X167399444Y-106994835D01*
X167452127Y-107000500D01*
X170547872Y-107000499D01*
X170607483Y-106994091D01*
X170742331Y-106943796D01*
X170857546Y-106857546D01*
X170943796Y-106742331D01*
X170994091Y-106607483D01*
X171000500Y-106547873D01*
X171000499Y-104999999D01*
X176294422Y-104999999D01*
X176314722Y-105387339D01*
X176350546Y-105613523D01*
X176375398Y-105770433D01*
X176464338Y-106102364D01*
X176475788Y-106145094D01*
X176614787Y-106507197D01*
X176790877Y-106852793D01*
X177002122Y-107178082D01*
X177129083Y-107334865D01*
X177246219Y-107479516D01*
X177520484Y-107753781D01*
X177520488Y-107753784D01*
X177821917Y-107997877D01*
X178112339Y-108186479D01*
X178147211Y-108209125D01*
X178492806Y-108385214D01*
X178854913Y-108524214D01*
X179229567Y-108624602D01*
X179612662Y-108685278D01*
X179978576Y-108704455D01*
X179999999Y-108705578D01*
X180000000Y-108705578D01*
X180000001Y-108705578D01*
X180020300Y-108704514D01*
X180387338Y-108685278D01*
X180770433Y-108624602D01*
X181145087Y-108524214D01*
X181507194Y-108385214D01*
X181852789Y-108209125D01*
X182178084Y-107997876D01*
X182479516Y-107753781D01*
X182753781Y-107479516D01*
X182997876Y-107178084D01*
X183209125Y-106852789D01*
X183385214Y-106507194D01*
X183524214Y-106145087D01*
X183624602Y-105770433D01*
X183685278Y-105387338D01*
X183705578Y-105000000D01*
X183685278Y-104612662D01*
X183624602Y-104229567D01*
X183524214Y-103854913D01*
X183385214Y-103492806D01*
X183209125Y-103147211D01*
X183209122Y-103147206D01*
X182997877Y-102821917D01*
X182753784Y-102520488D01*
X182753781Y-102520484D01*
X182479516Y-102246219D01*
X182288875Y-102091841D01*
X182178082Y-102002122D01*
X181852793Y-101790877D01*
X181507197Y-101614787D01*
X181145094Y-101475788D01*
X181145087Y-101475786D01*
X180770433Y-101375398D01*
X180770429Y-101375397D01*
X180770428Y-101375397D01*
X180387339Y-101314722D01*
X180000001Y-101294422D01*
X179999999Y-101294422D01*
X179612660Y-101314722D01*
X179229572Y-101375397D01*
X179229570Y-101375397D01*
X178854905Y-101475788D01*
X178492802Y-101614787D01*
X178147206Y-101790877D01*
X177821917Y-102002122D01*
X177520488Y-102246215D01*
X177520480Y-102246222D01*
X177246222Y-102520480D01*
X177246215Y-102520488D01*
X177002122Y-102821917D01*
X176790877Y-103147206D01*
X176614787Y-103492802D01*
X176475788Y-103854905D01*
X176375397Y-104229570D01*
X176375397Y-104229572D01*
X176314722Y-104612660D01*
X176294422Y-104999999D01*
X171000499Y-104999999D01*
X171000499Y-103452128D01*
X170994091Y-103392517D01*
X170975003Y-103341340D01*
X170943797Y-103257671D01*
X170943793Y-103257664D01*
X170857547Y-103142455D01*
X170857544Y-103142452D01*
X170742335Y-103056206D01*
X170742328Y-103056202D01*
X170607482Y-103005908D01*
X170607483Y-103005908D01*
X170547883Y-102999501D01*
X170547881Y-102999500D01*
X170547873Y-102999500D01*
X170547864Y-102999500D01*
X167452129Y-102999500D01*
X167452123Y-102999501D01*
X167392516Y-103005908D01*
X167257671Y-103056202D01*
X167257664Y-103056206D01*
X167142455Y-103142452D01*
X167142452Y-103142455D01*
X167056206Y-103257664D01*
X167056202Y-103257671D01*
X167005908Y-103392517D01*
X167000533Y-103442516D01*
X166999501Y-103452123D01*
X166999500Y-103452135D01*
X166999500Y-106547870D01*
X165270472Y-106547870D01*
X165308360Y-106519507D01*
X165313387Y-106515745D01*
X165313387Y-106515744D01*
X165313395Y-106515739D01*
X165515739Y-106313395D01*
X165687226Y-106084315D01*
X165824367Y-105833161D01*
X165924369Y-105565046D01*
X165985196Y-105285428D01*
X166005610Y-105000000D01*
X165985196Y-104714572D01*
X165963026Y-104612660D01*
X165924371Y-104434962D01*
X165924370Y-104434960D01*
X165924369Y-104434954D01*
X165824367Y-104166839D01*
X165718491Y-103972943D01*
X165687229Y-103915690D01*
X165687224Y-103915682D01*
X165515745Y-103686612D01*
X165515729Y-103686594D01*
X165313405Y-103484270D01*
X165313387Y-103484254D01*
X165084317Y-103312775D01*
X165084309Y-103312770D01*
X164833166Y-103175635D01*
X164833167Y-103175635D01*
X164699093Y-103125628D01*
X164565046Y-103075631D01*
X164565043Y-103075630D01*
X164565037Y-103075628D01*
X164285433Y-103014804D01*
X164000001Y-102994390D01*
X163999999Y-102994390D01*
X163714566Y-103014804D01*
X163434962Y-103075628D01*
X163166833Y-103175635D01*
X162915690Y-103312770D01*
X162915682Y-103312775D01*
X162686612Y-103484254D01*
X162686594Y-103484270D01*
X162484270Y-103686594D01*
X162484254Y-103686612D01*
X162312775Y-103915682D01*
X162312770Y-103915690D01*
X162175635Y-104166833D01*
X162075628Y-104434962D01*
X162014804Y-104714566D01*
X161994390Y-104999998D01*
X161994390Y-104999999D01*
X161005610Y-104999999D01*
X160985196Y-104714572D01*
X160963026Y-104612660D01*
X160924371Y-104434962D01*
X160924370Y-104434960D01*
X160924369Y-104434954D01*
X160824367Y-104166839D01*
X160718491Y-103972943D01*
X160687229Y-103915690D01*
X160687224Y-103915682D01*
X160515745Y-103686612D01*
X160515729Y-103686594D01*
X160313405Y-103484270D01*
X160313387Y-103484254D01*
X160084317Y-103312775D01*
X160084309Y-103312770D01*
X159833166Y-103175635D01*
X159833167Y-103175635D01*
X159699093Y-103125628D01*
X159565046Y-103075631D01*
X159565043Y-103075630D01*
X159565037Y-103075628D01*
X159285433Y-103014804D01*
X159000001Y-102994390D01*
X158999999Y-102994390D01*
X158714566Y-103014804D01*
X158434962Y-103075628D01*
X158166833Y-103175635D01*
X157915690Y-103312770D01*
X157915682Y-103312775D01*
X157686612Y-103484254D01*
X157686594Y-103484270D01*
X157484270Y-103686594D01*
X157484254Y-103686612D01*
X157312775Y-103915682D01*
X157312770Y-103915690D01*
X157175635Y-104166833D01*
X157075628Y-104434962D01*
X157014804Y-104714566D01*
X156994390Y-104999998D01*
X156994390Y-104999999D01*
X149000499Y-104999999D01*
X149000499Y-103502128D01*
X148994091Y-103442517D01*
X148975442Y-103392517D01*
X148943797Y-103307671D01*
X148943793Y-103307664D01*
X148857547Y-103192455D01*
X148857544Y-103192452D01*
X148742335Y-103106206D01*
X148742328Y-103106202D01*
X148607482Y-103055908D01*
X148607483Y-103055908D01*
X148547883Y-103049501D01*
X148547881Y-103049500D01*
X148547873Y-103049500D01*
X148547864Y-103049500D01*
X145452129Y-103049500D01*
X145452123Y-103049501D01*
X145392516Y-103055908D01*
X145257671Y-103106202D01*
X145257664Y-103106206D01*
X145142455Y-103192452D01*
X145142452Y-103192455D01*
X145056206Y-103307664D01*
X145056202Y-103307671D01*
X145005908Y-103442517D01*
X145000502Y-103492806D01*
X144999501Y-103502123D01*
X144999500Y-103502135D01*
X144999500Y-106597870D01*
X143270473Y-106597870D01*
X143313395Y-106565739D01*
X143515739Y-106363395D01*
X143687226Y-106134315D01*
X143824367Y-105883161D01*
X143924369Y-105615046D01*
X143948110Y-105505909D01*
X143985195Y-105335433D01*
X143985195Y-105335432D01*
X143985196Y-105335428D01*
X144005610Y-105050000D01*
X143985196Y-104764572D01*
X143946599Y-104587145D01*
X143924371Y-104484962D01*
X143924370Y-104484960D01*
X143924369Y-104484954D01*
X143824367Y-104216839D01*
X143792293Y-104158101D01*
X143687229Y-103965690D01*
X143687224Y-103965682D01*
X143515745Y-103736612D01*
X143515729Y-103736594D01*
X143313405Y-103534270D01*
X143313387Y-103534254D01*
X143084317Y-103362775D01*
X143084309Y-103362770D01*
X142833166Y-103225635D01*
X142833167Y-103225635D01*
X142712756Y-103180724D01*
X142565046Y-103125631D01*
X142565043Y-103125630D01*
X142565037Y-103125628D01*
X142285433Y-103064804D01*
X142000001Y-103044390D01*
X141999999Y-103044390D01*
X141714566Y-103064804D01*
X141434962Y-103125628D01*
X141166833Y-103225635D01*
X140915690Y-103362770D01*
X140915682Y-103362775D01*
X140686612Y-103534254D01*
X140686594Y-103534270D01*
X140484270Y-103736594D01*
X140484254Y-103736612D01*
X140312775Y-103965682D01*
X140312770Y-103965690D01*
X140175635Y-104216833D01*
X140075628Y-104484962D01*
X140014804Y-104764566D01*
X139994390Y-105049998D01*
X139994390Y-105050001D01*
X139005610Y-105050001D01*
X139005610Y-105050000D01*
X138985196Y-104764572D01*
X138946599Y-104587145D01*
X138924371Y-104484962D01*
X138924370Y-104484960D01*
X138924369Y-104484954D01*
X138824367Y-104216839D01*
X138792293Y-104158101D01*
X138687229Y-103965690D01*
X138687224Y-103965682D01*
X138515745Y-103736612D01*
X138515729Y-103736594D01*
X138313405Y-103534270D01*
X138313387Y-103534254D01*
X138084317Y-103362775D01*
X138084309Y-103362770D01*
X137833166Y-103225635D01*
X137833167Y-103225635D01*
X137712756Y-103180724D01*
X137565046Y-103125631D01*
X137565043Y-103125630D01*
X137565037Y-103125628D01*
X137285433Y-103064804D01*
X137000001Y-103044390D01*
X136999999Y-103044390D01*
X136714566Y-103064804D01*
X136434962Y-103125628D01*
X136166833Y-103225635D01*
X135915690Y-103362770D01*
X135915682Y-103362775D01*
X135686612Y-103534254D01*
X135686594Y-103534270D01*
X135484270Y-103736594D01*
X135484254Y-103736612D01*
X135312775Y-103965682D01*
X135312770Y-103965690D01*
X135175635Y-104216833D01*
X135075628Y-104484962D01*
X135014804Y-104764566D01*
X134994390Y-105049998D01*
X134994390Y-105050001D01*
X108702957Y-105050001D01*
X108705578Y-105000000D01*
X108685278Y-104612662D01*
X108624602Y-104229567D01*
X108524214Y-103854913D01*
X108385214Y-103492806D01*
X108209125Y-103147211D01*
X108209122Y-103147206D01*
X107997877Y-102821917D01*
X107753784Y-102520488D01*
X107753781Y-102520484D01*
X107633297Y-102400000D01*
X114094540Y-102400000D01*
X114114326Y-102588256D01*
X114114327Y-102588259D01*
X114172818Y-102768277D01*
X114172821Y-102768284D01*
X114267467Y-102932216D01*
X114386850Y-103064804D01*
X114394129Y-103072888D01*
X114547265Y-103184148D01*
X114547270Y-103184151D01*
X114720192Y-103261142D01*
X114720197Y-103261144D01*
X114905354Y-103300500D01*
X114905355Y-103300500D01*
X115094644Y-103300500D01*
X115094646Y-103300500D01*
X115279803Y-103261144D01*
X115452730Y-103184151D01*
X115605871Y-103072888D01*
X115732533Y-102932216D01*
X115827179Y-102768284D01*
X115885674Y-102588256D01*
X115905460Y-102400000D01*
X115885674Y-102211744D01*
X115827179Y-102031716D01*
X115732533Y-101867784D01*
X115605871Y-101727112D01*
X115564343Y-101696940D01*
X115452734Y-101615851D01*
X115452729Y-101615848D01*
X115279807Y-101538857D01*
X115279802Y-101538855D01*
X115134000Y-101507865D01*
X115094646Y-101499500D01*
X114905354Y-101499500D01*
X114872897Y-101506398D01*
X114720197Y-101538855D01*
X114720192Y-101538857D01*
X114547270Y-101615848D01*
X114547265Y-101615851D01*
X114394129Y-101727111D01*
X114267466Y-101867785D01*
X114172821Y-102031715D01*
X114172818Y-102031722D01*
X114114327Y-102211740D01*
X114114326Y-102211744D01*
X114094540Y-102400000D01*
X107633297Y-102400000D01*
X107479516Y-102246219D01*
X107288875Y-102091841D01*
X107178082Y-102002122D01*
X106852793Y-101790877D01*
X106507197Y-101614787D01*
X106145094Y-101475788D01*
X106145087Y-101475786D01*
X105770433Y-101375398D01*
X105770429Y-101375397D01*
X105770428Y-101375397D01*
X105387339Y-101314722D01*
X105000001Y-101294422D01*
X104999999Y-101294422D01*
X104612660Y-101314722D01*
X104229572Y-101375397D01*
X104229570Y-101375397D01*
X103854905Y-101475788D01*
X103492802Y-101614787D01*
X103147206Y-101790877D01*
X102821917Y-102002122D01*
X102520488Y-102246215D01*
X102520480Y-102246222D01*
X102246222Y-102520480D01*
X102246215Y-102520488D01*
X102002122Y-102821917D01*
X101790877Y-103147206D01*
X101614787Y-103492802D01*
X101475788Y-103854905D01*
X101375397Y-104229570D01*
X101375397Y-104229572D01*
X101314722Y-104612660D01*
X101294422Y-104999999D01*
X100000500Y-104999999D01*
X100009488Y-104782673D01*
X100018160Y-104584059D01*
X100018573Y-104579140D01*
X100045487Y-104363223D01*
X100071884Y-104162726D01*
X100072669Y-104158114D01*
X100117191Y-103945778D01*
X100161160Y-103747451D01*
X100162253Y-103743235D01*
X100224112Y-103535457D01*
X100285324Y-103341320D01*
X100286673Y-103337488D01*
X100365469Y-103135551D01*
X100443499Y-102947170D01*
X100445033Y-102943771D01*
X100514381Y-102801920D01*
X100540249Y-102749007D01*
X100573419Y-102685284D01*
X100634494Y-102567960D01*
X100636207Y-102564891D01*
X100747211Y-102378601D01*
X100856972Y-102206313D01*
X100858765Y-102203656D01*
X100984856Y-102027054D01*
X101109313Y-101864861D01*
X101111135Y-101862601D01*
X101251448Y-101696933D01*
X101390563Y-101545115D01*
X101545115Y-101390563D01*
X101696933Y-101251448D01*
X101862601Y-101111135D01*
X101864861Y-101109313D01*
X102027054Y-100984856D01*
X102203656Y-100858765D01*
X102206313Y-100856972D01*
X102378601Y-100747211D01*
X102564900Y-100636201D01*
X102567960Y-100634494D01*
X102685284Y-100573419D01*
X102749007Y-100540249D01*
X102823655Y-100503755D01*
X102943771Y-100445033D01*
X102947170Y-100443499D01*
X103135551Y-100365469D01*
X103337488Y-100286673D01*
X103341320Y-100285324D01*
X103535457Y-100224112D01*
X103743235Y-100162253D01*
X103747451Y-100161160D01*
X103945778Y-100117191D01*
X104158114Y-100072669D01*
X104162726Y-100071884D01*
X104363223Y-100045487D01*
X104579138Y-100018574D01*
X104584061Y-100018160D01*
X104782569Y-100009493D01*
X105000000Y-100000500D01*
X105000500Y-100000500D01*
X179999500Y-100000500D01*
X180000000Y-100000500D01*
X180217318Y-100009488D01*
G37*
%TD.AperFunction*%
%TD*%
M02*
