%TF.GenerationSoftware,KiCad,Pcbnew,7.0.7*%
%TF.CreationDate,2024-01-15T18:38:01+01:00*%
%TF.ProjectId,MarshallGuvnor,4d617273-6861-46c6-9c47-75766e6f722e,rev?*%
%TF.SameCoordinates,Original*%
%TF.FileFunction,Copper,L2,Inr*%
%TF.FilePolarity,Positive*%
%FSLAX46Y46*%
G04 Gerber Fmt 4.6, Leading zero omitted, Abs format (unit mm)*
G04 Created by KiCad (PCBNEW 7.0.7) date 2024-01-15 18:38:01*
%MOMM*%
%LPD*%
G01*
G04 APERTURE LIST*
G04 Aperture macros list*
%AMRoundRect*
0 Rectangle with rounded corners*
0 $1 Rounding radius*
0 $2 $3 $4 $5 $6 $7 $8 $9 X,Y pos of 4 corners*
0 Add a 4 corners polygon primitive as box body*
4,1,4,$2,$3,$4,$5,$6,$7,$8,$9,$2,$3,0*
0 Add four circle primitives for the rounded corners*
1,1,$1+$1,$2,$3*
1,1,$1+$1,$4,$5*
1,1,$1+$1,$6,$7*
1,1,$1+$1,$8,$9*
0 Add four rect primitives between the rounded corners*
20,1,$1+$1,$2,$3,$4,$5,0*
20,1,$1+$1,$4,$5,$6,$7,0*
20,1,$1+$1,$6,$7,$8,$9,0*
20,1,$1+$1,$8,$9,$2,$3,0*%
G04 Aperture macros list end*
%TA.AperFunction,ComponentPad*%
%ADD10R,1.800000X1.800000*%
%TD*%
%TA.AperFunction,ComponentPad*%
%ADD11C,1.800000*%
%TD*%
%TA.AperFunction,ComponentPad*%
%ADD12R,3.000000X3.000000*%
%TD*%
%TA.AperFunction,ComponentPad*%
%ADD13C,3.000000*%
%TD*%
%TA.AperFunction,ComponentPad*%
%ADD14O,1.800000X1.800000*%
%TD*%
%TA.AperFunction,ComponentPad*%
%ADD15C,0.800000*%
%TD*%
%TA.AperFunction,ComponentPad*%
%ADD16C,6.400000*%
%TD*%
%TA.AperFunction,ComponentPad*%
%ADD17RoundRect,0.250001X-1.099999X1.099999X-1.099999X-1.099999X1.099999X-1.099999X1.099999X1.099999X0*%
%TD*%
%TA.AperFunction,ComponentPad*%
%ADD18C,2.700000*%
%TD*%
%TA.AperFunction,ComponentPad*%
%ADD19R,1.200000X1.200000*%
%TD*%
%TA.AperFunction,ComponentPad*%
%ADD20C,1.200000*%
%TD*%
%TA.AperFunction,ComponentPad*%
%ADD21R,2.800000X1.800000*%
%TD*%
%TA.AperFunction,ComponentPad*%
%ADD22RoundRect,0.250001X1.099999X-1.099999X1.099999X1.099999X-1.099999X1.099999X-1.099999X-1.099999X0*%
%TD*%
%TA.AperFunction,ViaPad*%
%ADD23C,0.800000*%
%TD*%
G04 APERTURE END LIST*
D10*
%TO.N,Net-(D2-K)*%
%TO.C,D2*%
X127597500Y-106900000D03*
D11*
%TO.N,+9V*%
X130137500Y-106900000D03*
%TD*%
D12*
%TO.N,GND*%
%TO.C,RV3*%
X138000000Y-151000000D03*
D13*
%TO.N,Net-(C13-Pad1)*%
X143000000Y-151000000D03*
%TO.N,Net-(R15-Pad2)*%
X148000000Y-151000000D03*
%TD*%
D10*
%TO.N,+9V*%
%TO.C,D1*%
X116055000Y-109400000D03*
D14*
%TO.N,Net-(D1-A)*%
X123675000Y-109400000D03*
%TD*%
D15*
%TO.N,GND*%
%TO.C,H3*%
X102600000Y-151000000D03*
X103302944Y-149302944D03*
X103302944Y-152697056D03*
X105000000Y-148600000D03*
D16*
X105000000Y-151000000D03*
D15*
X105000000Y-153400000D03*
X106697056Y-149302944D03*
X106697056Y-152697056D03*
X107400000Y-151000000D03*
%TD*%
D17*
%TO.N,Net-(J1-Pin_1)*%
%TO.C,J1*%
X106000000Y-115500000D03*
D18*
%TO.N,GND*%
X106000000Y-120500000D03*
%TD*%
D12*
%TO.N,Net-(U1A--)*%
%TO.C,RV1*%
X147000000Y-105050000D03*
D13*
%TO.N,Net-(C10-Pad2)*%
X142000000Y-105050000D03*
%TO.N,Net-(C7-Pad1)*%
X137000000Y-105050000D03*
%TD*%
D19*
%TO.N,+4V*%
%TO.C,C4*%
X128564901Y-114900000D03*
D20*
%TO.N,GND*%
X130564901Y-114900000D03*
%TD*%
D15*
%TO.N,GND*%
%TO.C,H4*%
X177600000Y-151000000D03*
X178302944Y-149302944D03*
X178302944Y-152697056D03*
X180000000Y-148600000D03*
D16*
X180000000Y-151000000D03*
D15*
X180000000Y-153400000D03*
X181697056Y-149302944D03*
X181697056Y-152697056D03*
X182400000Y-151000000D03*
%TD*%
D12*
%TO.N,Net-(C17-Pad1)*%
%TO.C,RV5*%
X159000000Y-151000000D03*
D13*
%TO.N,MIX_OUT*%
X164000000Y-151000000D03*
%TO.N,Net-(C14-Pad1)*%
X169000000Y-151000000D03*
%TD*%
D17*
%TO.N,Net-(J2-Pin_1)*%
%TO.C,J2*%
X106000000Y-135000000D03*
D18*
%TO.N,GND*%
X106000000Y-140000000D03*
%TD*%
D19*
%TO.N,+9V*%
%TO.C,C3*%
X128537500Y-120325000D03*
D20*
%TO.N,GND*%
X130537500Y-120325000D03*
%TD*%
D12*
%TO.N,GND*%
%TO.C,RV2*%
X169000000Y-105000000D03*
D13*
%TO.N,Net-(R12-Pad1)*%
X164000000Y-105000000D03*
%TO.N,MIX_OUT*%
X159000000Y-105000000D03*
%TD*%
D15*
%TO.N,GND*%
%TO.C,H1*%
X102600000Y-105000000D03*
X103302944Y-103302944D03*
X103302944Y-106697056D03*
X105000000Y-102600000D03*
D16*
X105000000Y-105000000D03*
D15*
X105000000Y-107400000D03*
X106697056Y-103302944D03*
X106697056Y-106697056D03*
X107400000Y-105000000D03*
%TD*%
%TO.N,GND*%
%TO.C,H2*%
X177600000Y-105000000D03*
X178302944Y-103302944D03*
X178302944Y-106697056D03*
X180000000Y-102600000D03*
D16*
X180000000Y-105000000D03*
D15*
X180000000Y-107400000D03*
X181697056Y-103302944D03*
X181697056Y-106697056D03*
X182400000Y-105000000D03*
%TD*%
D12*
%TO.N,GND*%
%TO.C,RV4*%
X117000000Y-151000000D03*
D13*
%TO.N,Net-(C12-Pad1)*%
X122000000Y-151000000D03*
%TO.N,Net-(C17-Pad1)*%
X127000000Y-151000000D03*
%TD*%
D10*
%TO.N,Net-(J1-Pin_1)*%
%TO.C,Q1*%
X117367500Y-121020000D03*
D21*
X119407500Y-121020000D03*
D14*
%TO.N,Net-(D1-A)*%
X119907500Y-113400000D03*
%TO.N,+9V*%
X117367500Y-113400000D03*
%TD*%
D10*
%TO.N,GND*%
%TO.C,D3*%
X144190000Y-128500000D03*
D14*
%TO.N,DISTORSION_OUT*%
X151810000Y-128500000D03*
%TD*%
D10*
%TO.N,DISTORSION_OUT*%
%TO.C,D4*%
X151810000Y-132200000D03*
D14*
%TO.N,GND*%
X144190000Y-132200000D03*
%TD*%
D22*
%TO.N,GND*%
%TO.C,J3*%
X177861441Y-142299722D03*
D18*
%TO.N,Net-(J3-Pin_2)*%
X177861441Y-137299722D03*
%TD*%
D23*
%TO.N,+4V*%
X152400000Y-115600000D03*
%TO.N,GND*%
X154600000Y-115600000D03*
X115000000Y-102400000D03*
X115000000Y-113600000D03*
X147000000Y-122200000D03*
%TO.N,+9V*%
X154600000Y-126400000D03*
%TO.N,MIX_OUT*%
X164000000Y-147400000D03*
%TO.N,Net-(C13-Pad1)*%
X153200000Y-137000000D03*
%TO.N,Net-(C7-Pad1)*%
X152800000Y-112400000D03*
%TO.N,Net-(C12-Pad2)*%
X139400000Y-137000000D03*
X146600000Y-140000000D03*
%TO.N,Net-(C17-Pad1)*%
X154200000Y-142000000D03*
%TD*%
%TA.AperFunction,Conductor*%
%TO.N,GND*%
G36*
X106392586Y-152039033D02*
G01*
X106621915Y-152268362D01*
X106655400Y-152329685D01*
X106650416Y-152399377D01*
X106608544Y-152455310D01*
X106603126Y-152459144D01*
X106516816Y-152516815D01*
X106516815Y-152516816D01*
X106459144Y-152603126D01*
X106405532Y-152647930D01*
X106336207Y-152656637D01*
X106273180Y-152626482D01*
X106268362Y-152621915D01*
X106039033Y-152392586D01*
X106005548Y-152331263D01*
X106010532Y-152261571D01*
X106046180Y-152210617D01*
X106134870Y-152134870D01*
X106210617Y-152046180D01*
X106269121Y-152007990D01*
X106338989Y-152007490D01*
X106392586Y-152039033D01*
G37*
%TD.AperFunction*%
%TA.AperFunction,Conductor*%
G36*
X103738428Y-152010531D02*
G01*
X103789381Y-152046179D01*
X103865130Y-152134870D01*
X103928855Y-152189296D01*
X103953816Y-152210615D01*
X103992009Y-152269122D01*
X103992507Y-152338990D01*
X103960965Y-152392586D01*
X103731636Y-152621915D01*
X103670313Y-152655400D01*
X103600621Y-152650416D01*
X103544688Y-152608544D01*
X103540853Y-152603124D01*
X103483184Y-152516816D01*
X103404892Y-152464503D01*
X103400489Y-152461561D01*
X103400488Y-152461560D01*
X103396873Y-152459145D01*
X103352068Y-152405533D01*
X103343361Y-152336208D01*
X103373515Y-152273180D01*
X103378083Y-152268362D01*
X103607413Y-152039032D01*
X103668736Y-152005547D01*
X103738428Y-152010531D01*
G37*
%TD.AperFunction*%
%TA.AperFunction,Conductor*%
G36*
X106399377Y-149349582D02*
G01*
X106455310Y-149391454D01*
X106459145Y-149396873D01*
X106461560Y-149400488D01*
X106461561Y-149400489D01*
X106510415Y-149473604D01*
X106516816Y-149483184D01*
X106603124Y-149540853D01*
X106647930Y-149594465D01*
X106656637Y-149663790D01*
X106626483Y-149726817D01*
X106621915Y-149731636D01*
X106392586Y-149960965D01*
X106331263Y-149994450D01*
X106261571Y-149989466D01*
X106210615Y-149953816D01*
X106178045Y-149915682D01*
X106134870Y-149865130D01*
X106046179Y-149789381D01*
X106007989Y-149730878D01*
X106007489Y-149661010D01*
X106039032Y-149607413D01*
X106268362Y-149378083D01*
X106329685Y-149344598D01*
X106399377Y-149349582D01*
G37*
%TD.AperFunction*%
%TA.AperFunction,Conductor*%
G36*
X103726818Y-149373516D02*
G01*
X103731637Y-149378084D01*
X103960966Y-149607413D01*
X103994451Y-149668736D01*
X103989467Y-149738428D01*
X103953817Y-149789384D01*
X103865130Y-149865130D01*
X103789384Y-149953817D01*
X103730877Y-149992010D01*
X103661009Y-149992508D01*
X103607413Y-149960966D01*
X103378084Y-149731637D01*
X103344599Y-149670314D01*
X103349583Y-149600622D01*
X103391455Y-149544689D01*
X103396874Y-149540854D01*
X103400487Y-149538439D01*
X103400489Y-149538439D01*
X103483184Y-149483184D01*
X103538439Y-149400489D01*
X103538439Y-149400487D01*
X103540854Y-149396874D01*
X103594466Y-149352069D01*
X103663791Y-149343362D01*
X103726818Y-149373516D01*
G37*
%TD.AperFunction*%
%TA.AperFunction,Conductor*%
G36*
X181392586Y-152039033D02*
G01*
X181621915Y-152268362D01*
X181655400Y-152329685D01*
X181650416Y-152399377D01*
X181608544Y-152455310D01*
X181603126Y-152459144D01*
X181516816Y-152516815D01*
X181516815Y-152516816D01*
X181459144Y-152603126D01*
X181405532Y-152647930D01*
X181336207Y-152656637D01*
X181273180Y-152626482D01*
X181268362Y-152621915D01*
X181039033Y-152392586D01*
X181005548Y-152331263D01*
X181010532Y-152261571D01*
X181046180Y-152210617D01*
X181134870Y-152134870D01*
X181210617Y-152046180D01*
X181269121Y-152007990D01*
X181338989Y-152007490D01*
X181392586Y-152039033D01*
G37*
%TD.AperFunction*%
%TA.AperFunction,Conductor*%
G36*
X178738428Y-152010531D02*
G01*
X178789381Y-152046179D01*
X178865130Y-152134870D01*
X178928855Y-152189296D01*
X178953816Y-152210615D01*
X178992009Y-152269122D01*
X178992507Y-152338990D01*
X178960965Y-152392586D01*
X178731636Y-152621915D01*
X178670313Y-152655400D01*
X178600621Y-152650416D01*
X178544688Y-152608544D01*
X178540853Y-152603124D01*
X178483184Y-152516816D01*
X178404892Y-152464503D01*
X178400489Y-152461561D01*
X178400488Y-152461560D01*
X178396873Y-152459145D01*
X178352068Y-152405533D01*
X178343361Y-152336208D01*
X178373515Y-152273180D01*
X178378083Y-152268362D01*
X178607413Y-152039032D01*
X178668736Y-152005547D01*
X178738428Y-152010531D01*
G37*
%TD.AperFunction*%
%TA.AperFunction,Conductor*%
G36*
X181399377Y-149349582D02*
G01*
X181455310Y-149391454D01*
X181459145Y-149396873D01*
X181461560Y-149400488D01*
X181461561Y-149400489D01*
X181510415Y-149473604D01*
X181516816Y-149483184D01*
X181603124Y-149540853D01*
X181647930Y-149594465D01*
X181656637Y-149663790D01*
X181626483Y-149726817D01*
X181621915Y-149731636D01*
X181392586Y-149960965D01*
X181331263Y-149994450D01*
X181261571Y-149989466D01*
X181210615Y-149953816D01*
X181178045Y-149915682D01*
X181134870Y-149865130D01*
X181046179Y-149789381D01*
X181007989Y-149730878D01*
X181007489Y-149661010D01*
X181039032Y-149607413D01*
X181268362Y-149378083D01*
X181329685Y-149344598D01*
X181399377Y-149349582D01*
G37*
%TD.AperFunction*%
%TA.AperFunction,Conductor*%
G36*
X178726818Y-149373516D02*
G01*
X178731637Y-149378084D01*
X178960966Y-149607413D01*
X178994451Y-149668736D01*
X178989467Y-149738428D01*
X178953817Y-149789384D01*
X178865130Y-149865130D01*
X178789384Y-149953817D01*
X178730877Y-149992010D01*
X178661009Y-149992508D01*
X178607413Y-149960966D01*
X178378084Y-149731637D01*
X178344599Y-149670314D01*
X178349583Y-149600622D01*
X178391455Y-149544689D01*
X178396874Y-149540854D01*
X178400487Y-149538439D01*
X178400489Y-149538439D01*
X178483184Y-149483184D01*
X178538439Y-149400489D01*
X178538439Y-149400487D01*
X178540854Y-149396874D01*
X178594466Y-149352069D01*
X178663791Y-149343362D01*
X178726818Y-149373516D01*
G37*
%TD.AperFunction*%
%TA.AperFunction,Conductor*%
G36*
X106392586Y-106039033D02*
G01*
X106621915Y-106268362D01*
X106655400Y-106329685D01*
X106650416Y-106399377D01*
X106608544Y-106455310D01*
X106603126Y-106459144D01*
X106516816Y-106516815D01*
X106516815Y-106516816D01*
X106459144Y-106603126D01*
X106405532Y-106647930D01*
X106336207Y-106656637D01*
X106273180Y-106626482D01*
X106268362Y-106621915D01*
X106039033Y-106392586D01*
X106005548Y-106331263D01*
X106010532Y-106261571D01*
X106046180Y-106210617D01*
X106134870Y-106134870D01*
X106210617Y-106046180D01*
X106269121Y-106007990D01*
X106338989Y-106007490D01*
X106392586Y-106039033D01*
G37*
%TD.AperFunction*%
%TA.AperFunction,Conductor*%
G36*
X103738428Y-106010531D02*
G01*
X103789381Y-106046179D01*
X103865130Y-106134870D01*
X103928855Y-106189296D01*
X103953816Y-106210615D01*
X103992009Y-106269122D01*
X103992507Y-106338990D01*
X103960965Y-106392586D01*
X103731636Y-106621915D01*
X103670313Y-106655400D01*
X103600621Y-106650416D01*
X103544688Y-106608544D01*
X103540853Y-106603124D01*
X103537346Y-106597876D01*
X103483184Y-106516816D01*
X103400489Y-106461561D01*
X103400488Y-106461560D01*
X103396873Y-106459145D01*
X103352068Y-106405533D01*
X103343361Y-106336208D01*
X103373515Y-106273180D01*
X103378083Y-106268362D01*
X103607413Y-106039032D01*
X103668736Y-106005547D01*
X103738428Y-106010531D01*
G37*
%TD.AperFunction*%
%TA.AperFunction,Conductor*%
G36*
X106399377Y-103349582D02*
G01*
X106455310Y-103391454D01*
X106459145Y-103396873D01*
X106461560Y-103400488D01*
X106461561Y-103400489D01*
X106516816Y-103483184D01*
X106595163Y-103535534D01*
X106603124Y-103540853D01*
X106647930Y-103594465D01*
X106656637Y-103663790D01*
X106626483Y-103726817D01*
X106621915Y-103731636D01*
X106392586Y-103960965D01*
X106331263Y-103994450D01*
X106261571Y-103989466D01*
X106210615Y-103953816D01*
X106178045Y-103915682D01*
X106134870Y-103865130D01*
X106046179Y-103789381D01*
X106007989Y-103730878D01*
X106007489Y-103661010D01*
X106039032Y-103607413D01*
X106268362Y-103378083D01*
X106329685Y-103344598D01*
X106399377Y-103349582D01*
G37*
%TD.AperFunction*%
%TA.AperFunction,Conductor*%
G36*
X103726818Y-103373516D02*
G01*
X103731637Y-103378084D01*
X103960966Y-103607413D01*
X103994451Y-103668736D01*
X103989467Y-103738428D01*
X103953817Y-103789384D01*
X103865130Y-103865130D01*
X103789384Y-103953817D01*
X103730877Y-103992010D01*
X103661009Y-103992508D01*
X103607413Y-103960966D01*
X103378084Y-103731637D01*
X103344599Y-103670314D01*
X103349583Y-103600622D01*
X103391455Y-103544689D01*
X103396874Y-103540854D01*
X103400487Y-103538439D01*
X103400489Y-103538439D01*
X103483184Y-103483184D01*
X103538439Y-103400489D01*
X103538439Y-103400487D01*
X103540854Y-103396874D01*
X103594466Y-103352069D01*
X103663791Y-103343362D01*
X103726818Y-103373516D01*
G37*
%TD.AperFunction*%
%TA.AperFunction,Conductor*%
G36*
X181392586Y-106039033D02*
G01*
X181621915Y-106268362D01*
X181655400Y-106329685D01*
X181650416Y-106399377D01*
X181608544Y-106455310D01*
X181603126Y-106459144D01*
X181516816Y-106516815D01*
X181516815Y-106516816D01*
X181459144Y-106603126D01*
X181405532Y-106647930D01*
X181336207Y-106656637D01*
X181273180Y-106626482D01*
X181268362Y-106621915D01*
X181039033Y-106392586D01*
X181005548Y-106331263D01*
X181010532Y-106261571D01*
X181046180Y-106210617D01*
X181134870Y-106134870D01*
X181210617Y-106046180D01*
X181269121Y-106007990D01*
X181338989Y-106007490D01*
X181392586Y-106039033D01*
G37*
%TD.AperFunction*%
%TA.AperFunction,Conductor*%
G36*
X178738428Y-106010531D02*
G01*
X178789381Y-106046179D01*
X178865130Y-106134870D01*
X178928855Y-106189296D01*
X178953816Y-106210615D01*
X178992009Y-106269122D01*
X178992507Y-106338990D01*
X178960965Y-106392586D01*
X178731636Y-106621915D01*
X178670313Y-106655400D01*
X178600621Y-106650416D01*
X178544688Y-106608544D01*
X178540853Y-106603124D01*
X178537346Y-106597876D01*
X178483184Y-106516816D01*
X178400489Y-106461561D01*
X178400488Y-106461560D01*
X178396873Y-106459145D01*
X178352068Y-106405533D01*
X178343361Y-106336208D01*
X178373515Y-106273180D01*
X178378083Y-106268362D01*
X178607413Y-106039032D01*
X178668736Y-106005547D01*
X178738428Y-106010531D01*
G37*
%TD.AperFunction*%
%TA.AperFunction,Conductor*%
G36*
X181399377Y-103349582D02*
G01*
X181455310Y-103391454D01*
X181459145Y-103396873D01*
X181461560Y-103400488D01*
X181461561Y-103400489D01*
X181516816Y-103483184D01*
X181595163Y-103535534D01*
X181603124Y-103540853D01*
X181647930Y-103594465D01*
X181656637Y-103663790D01*
X181626483Y-103726817D01*
X181621915Y-103731636D01*
X181392586Y-103960965D01*
X181331263Y-103994450D01*
X181261571Y-103989466D01*
X181210615Y-103953816D01*
X181178045Y-103915682D01*
X181134870Y-103865130D01*
X181046179Y-103789381D01*
X181007989Y-103730878D01*
X181007489Y-103661010D01*
X181039032Y-103607413D01*
X181268362Y-103378083D01*
X181329685Y-103344598D01*
X181399377Y-103349582D01*
G37*
%TD.AperFunction*%
%TA.AperFunction,Conductor*%
G36*
X178726818Y-103373516D02*
G01*
X178731637Y-103378084D01*
X178960966Y-103607413D01*
X178994451Y-103668736D01*
X178989467Y-103738428D01*
X178953817Y-103789384D01*
X178865130Y-103865130D01*
X178789384Y-103953817D01*
X178730877Y-103992010D01*
X178661009Y-103992508D01*
X178607413Y-103960966D01*
X178378084Y-103731637D01*
X178344599Y-103670314D01*
X178349583Y-103600622D01*
X178391455Y-103544689D01*
X178396874Y-103540854D01*
X178400487Y-103538439D01*
X178400489Y-103538439D01*
X178483184Y-103483184D01*
X178538439Y-103400489D01*
X178538439Y-103400487D01*
X178540854Y-103396874D01*
X178594466Y-103352069D01*
X178663791Y-103343362D01*
X178726818Y-103373516D01*
G37*
%TD.AperFunction*%
%TA.AperFunction,Conductor*%
G36*
X180217318Y-100009488D02*
G01*
X180415934Y-100018160D01*
X180420865Y-100018574D01*
X180636792Y-100045489D01*
X180832940Y-100071313D01*
X180837265Y-100071883D01*
X180841894Y-100072671D01*
X181054183Y-100117183D01*
X181252534Y-100161157D01*
X181256778Y-100162257D01*
X181464544Y-100224112D01*
X181658658Y-100285317D01*
X181662530Y-100286680D01*
X181864457Y-100365472D01*
X182052817Y-100443494D01*
X182056252Y-100445045D01*
X182131343Y-100481755D01*
X182250992Y-100540249D01*
X182388629Y-100611897D01*
X182432009Y-100634479D01*
X182435107Y-100636207D01*
X182621382Y-100747202D01*
X182793662Y-100856957D01*
X182796377Y-100858789D01*
X182972918Y-100984837D01*
X183135098Y-101109282D01*
X183137426Y-101111159D01*
X183303055Y-101251439D01*
X183454895Y-101390574D01*
X183609424Y-101545103D01*
X183748555Y-101696938D01*
X183763008Y-101714003D01*
X183888839Y-101862572D01*
X183890716Y-101864900D01*
X184015162Y-102027081D01*
X184141209Y-102203621D01*
X184143040Y-102206335D01*
X184252797Y-102378617D01*
X184363791Y-102564891D01*
X184365525Y-102568000D01*
X184459750Y-102749007D01*
X184502033Y-102835495D01*
X184554953Y-102943744D01*
X184556524Y-102947229D01*
X184634536Y-103135566D01*
X184713309Y-103337445D01*
X184714681Y-103341340D01*
X184775899Y-103535496D01*
X184837735Y-103743200D01*
X184838843Y-103747472D01*
X184882818Y-103945826D01*
X184927326Y-104158101D01*
X184928115Y-104162733D01*
X184954524Y-104363319D01*
X184981422Y-104579114D01*
X184981839Y-104584080D01*
X184990513Y-104782728D01*
X184999500Y-105000000D01*
X184999500Y-151000000D01*
X184990513Y-151217271D01*
X184981839Y-151415918D01*
X184981422Y-151420884D01*
X184954524Y-151636680D01*
X184928115Y-151837265D01*
X184927326Y-151841897D01*
X184882818Y-152054173D01*
X184838843Y-152252526D01*
X184837735Y-152256798D01*
X184775899Y-152464503D01*
X184714681Y-152658658D01*
X184713309Y-152662552D01*
X184634536Y-152864433D01*
X184556524Y-153052769D01*
X184554944Y-153056274D01*
X184459750Y-153250992D01*
X184365525Y-153431998D01*
X184363791Y-153435107D01*
X184252797Y-153621382D01*
X184143040Y-153793663D01*
X184141209Y-153796377D01*
X184015162Y-153972918D01*
X183890716Y-154135099D01*
X183888839Y-154137426D01*
X183748557Y-154303059D01*
X183609426Y-154454895D01*
X183454895Y-154609426D01*
X183303059Y-154748557D01*
X183137426Y-154888839D01*
X183135099Y-154890716D01*
X182972918Y-155015162D01*
X182796377Y-155141209D01*
X182793663Y-155143040D01*
X182621382Y-155252797D01*
X182435107Y-155363791D01*
X182431998Y-155365525D01*
X182250992Y-155459750D01*
X182056274Y-155554944D01*
X182052769Y-155556524D01*
X181864433Y-155634536D01*
X181662552Y-155713309D01*
X181658658Y-155714681D01*
X181464503Y-155775899D01*
X181256798Y-155837735D01*
X181252526Y-155838843D01*
X181054173Y-155882818D01*
X180841897Y-155927326D01*
X180837265Y-155928115D01*
X180636680Y-155954524D01*
X180420884Y-155981422D01*
X180415918Y-155981839D01*
X180217271Y-155990513D01*
X180000000Y-155999500D01*
X105000000Y-155999500D01*
X104782728Y-155990513D01*
X104584080Y-155981839D01*
X104579114Y-155981422D01*
X104363319Y-155954524D01*
X104162733Y-155928115D01*
X104158101Y-155927326D01*
X103945826Y-155882818D01*
X103747472Y-155838843D01*
X103743200Y-155837735D01*
X103535496Y-155775899D01*
X103341340Y-155714681D01*
X103337445Y-155713309D01*
X103135566Y-155634536D01*
X102947229Y-155556524D01*
X102943744Y-155554953D01*
X102884503Y-155525992D01*
X102749007Y-155459750D01*
X102568000Y-155365525D01*
X102564891Y-155363791D01*
X102378617Y-155252797D01*
X102206335Y-155143040D01*
X102203621Y-155141209D01*
X102027081Y-155015162D01*
X101864900Y-154890716D01*
X101862572Y-154888839D01*
X101696940Y-154748557D01*
X101649491Y-154705078D01*
X101545103Y-154609424D01*
X101390574Y-154454895D01*
X101251439Y-154303055D01*
X101111159Y-154137426D01*
X101109282Y-154135098D01*
X100984837Y-153972918D01*
X100858789Y-153796377D01*
X100856957Y-153793662D01*
X100747202Y-153621382D01*
X100636207Y-153435107D01*
X100634473Y-153431998D01*
X100540249Y-153250992D01*
X100476664Y-153120929D01*
X100445045Y-153056252D01*
X100443494Y-153052817D01*
X100365463Y-152864433D01*
X100286680Y-152662530D01*
X100285317Y-152658658D01*
X100282718Y-152650416D01*
X100224100Y-152464503D01*
X100162257Y-152256778D01*
X100161155Y-152252526D01*
X100151863Y-152210614D01*
X100117175Y-152054145D01*
X100115505Y-152046182D01*
X100072671Y-151841894D01*
X100071883Y-151837265D01*
X100055610Y-151713658D01*
X100045489Y-151636791D01*
X100018574Y-151420865D01*
X100018160Y-151415934D01*
X100009486Y-151217271D01*
X100000500Y-151000000D01*
X101294922Y-151000000D01*
X101315219Y-151387287D01*
X101375886Y-151770323D01*
X101375887Y-151770330D01*
X101476262Y-152144936D01*
X101615244Y-152506994D01*
X101791310Y-152852543D01*
X102002531Y-153177793D01*
X102211095Y-153435350D01*
X102211096Y-153435350D01*
X102874250Y-152772195D01*
X102935573Y-152738710D01*
X103005264Y-152743694D01*
X103061198Y-152785565D01*
X103065033Y-152790985D01*
X103067448Y-152794600D01*
X103067449Y-152794601D01*
X103109508Y-152857547D01*
X103122704Y-152877296D01*
X103209012Y-152934965D01*
X103253818Y-152988577D01*
X103262525Y-153057902D01*
X103232371Y-153120929D01*
X103227803Y-153125748D01*
X102564648Y-153788902D01*
X102564649Y-153788904D01*
X102822206Y-153997468D01*
X103147456Y-154208689D01*
X103493005Y-154384755D01*
X103855063Y-154523737D01*
X104229669Y-154624112D01*
X104229676Y-154624113D01*
X104612712Y-154684780D01*
X104999999Y-154705078D01*
X105000001Y-154705078D01*
X105387287Y-154684780D01*
X105770323Y-154624113D01*
X105770330Y-154624112D01*
X106144936Y-154523737D01*
X106506994Y-154384755D01*
X106852543Y-154208689D01*
X107177783Y-153997476D01*
X107177785Y-153997475D01*
X107435349Y-153788902D01*
X106772196Y-153125749D01*
X106738711Y-153064426D01*
X106743695Y-152994734D01*
X106785567Y-152938801D01*
X106790986Y-152934966D01*
X106794599Y-152932551D01*
X106794601Y-152932551D01*
X106877296Y-152877296D01*
X106932551Y-152794601D01*
X106932551Y-152794599D01*
X106934966Y-152790986D01*
X106988578Y-152746181D01*
X107057903Y-152737474D01*
X107120930Y-152767628D01*
X107125749Y-152772196D01*
X107788902Y-153435349D01*
X107997475Y-153177785D01*
X107997476Y-153177783D01*
X108208689Y-152852543D01*
X108363941Y-152547844D01*
X115000000Y-152547844D01*
X115006401Y-152607372D01*
X115006403Y-152607379D01*
X115056645Y-152742086D01*
X115056649Y-152742093D01*
X115142809Y-152857187D01*
X115142812Y-152857190D01*
X115257906Y-152943350D01*
X115257913Y-152943354D01*
X115392620Y-152993596D01*
X115392627Y-152993598D01*
X115452155Y-152999999D01*
X115452172Y-153000000D01*
X116750000Y-153000000D01*
X116750000Y-151713658D01*
X116769685Y-151646619D01*
X116822489Y-151600864D01*
X116890184Y-151590719D01*
X116960677Y-151600000D01*
X116960684Y-151600000D01*
X117039316Y-151600000D01*
X117039323Y-151600000D01*
X117109815Y-151590719D01*
X117178849Y-151601484D01*
X117231105Y-151647864D01*
X117250000Y-151713658D01*
X117250000Y-153000000D01*
X118547828Y-153000000D01*
X118547844Y-152999999D01*
X118607372Y-152993598D01*
X118607379Y-152993596D01*
X118742086Y-152943354D01*
X118742093Y-152943350D01*
X118857187Y-152857190D01*
X118857190Y-152857187D01*
X118943350Y-152742093D01*
X118943354Y-152742086D01*
X118993596Y-152607379D01*
X118993598Y-152607372D01*
X118999999Y-152547844D01*
X119000000Y-152547827D01*
X119000000Y-151250000D01*
X117713658Y-151250000D01*
X117646619Y-151230315D01*
X117600864Y-151177511D01*
X117590719Y-151109816D01*
X117605177Y-151000000D01*
X119994390Y-151000000D01*
X120014804Y-151285433D01*
X120075628Y-151565037D01*
X120075630Y-151565043D01*
X120075631Y-151565046D01*
X120175633Y-151833161D01*
X120175635Y-151833166D01*
X120312770Y-152084309D01*
X120312775Y-152084317D01*
X120484254Y-152313387D01*
X120484270Y-152313405D01*
X120686594Y-152515729D01*
X120686612Y-152515745D01*
X120915682Y-152687224D01*
X120915690Y-152687229D01*
X121166833Y-152824364D01*
X121166832Y-152824364D01*
X121166836Y-152824365D01*
X121166839Y-152824367D01*
X121434954Y-152924369D01*
X121434960Y-152924370D01*
X121434962Y-152924371D01*
X121714566Y-152985195D01*
X121714568Y-152985195D01*
X121714572Y-152985196D01*
X121968220Y-153003337D01*
X121999999Y-153005610D01*
X122000000Y-153005610D01*
X122000001Y-153005610D01*
X122028595Y-153003564D01*
X122285428Y-152985196D01*
X122460756Y-152947056D01*
X122565037Y-152924371D01*
X122565037Y-152924370D01*
X122565046Y-152924369D01*
X122833161Y-152824367D01*
X123084315Y-152687226D01*
X123313395Y-152515739D01*
X123515739Y-152313395D01*
X123687226Y-152084315D01*
X123824367Y-151833161D01*
X123924369Y-151565046D01*
X123954198Y-151427925D01*
X123985195Y-151285433D01*
X123985195Y-151285432D01*
X123985196Y-151285428D01*
X124005610Y-151000000D01*
X124994390Y-151000000D01*
X125014804Y-151285433D01*
X125075628Y-151565037D01*
X125075630Y-151565043D01*
X125075631Y-151565046D01*
X125175633Y-151833161D01*
X125175635Y-151833166D01*
X125312770Y-152084309D01*
X125312775Y-152084317D01*
X125484254Y-152313387D01*
X125484270Y-152313405D01*
X125686594Y-152515729D01*
X125686612Y-152515745D01*
X125915682Y-152687224D01*
X125915690Y-152687229D01*
X126166833Y-152824364D01*
X126166832Y-152824364D01*
X126166836Y-152824365D01*
X126166839Y-152824367D01*
X126434954Y-152924369D01*
X126434960Y-152924370D01*
X126434962Y-152924371D01*
X126714566Y-152985195D01*
X126714568Y-152985195D01*
X126714572Y-152985196D01*
X126968220Y-153003337D01*
X126999999Y-153005610D01*
X127000000Y-153005610D01*
X127000001Y-153005610D01*
X127028595Y-153003564D01*
X127285428Y-152985196D01*
X127460756Y-152947056D01*
X127565037Y-152924371D01*
X127565037Y-152924370D01*
X127565046Y-152924369D01*
X127833161Y-152824367D01*
X128084315Y-152687226D01*
X128270508Y-152547844D01*
X136000000Y-152547844D01*
X136006401Y-152607372D01*
X136006403Y-152607379D01*
X136056645Y-152742086D01*
X136056649Y-152742093D01*
X136142809Y-152857187D01*
X136142812Y-152857190D01*
X136257906Y-152943350D01*
X136257913Y-152943354D01*
X136392620Y-152993596D01*
X136392627Y-152993598D01*
X136452155Y-152999999D01*
X136452172Y-153000000D01*
X137750000Y-153000000D01*
X137750000Y-151713658D01*
X137769685Y-151646619D01*
X137822489Y-151600864D01*
X137890184Y-151590719D01*
X137960677Y-151600000D01*
X137960684Y-151600000D01*
X138039316Y-151600000D01*
X138039323Y-151600000D01*
X138109815Y-151590719D01*
X138178849Y-151601484D01*
X138231105Y-151647864D01*
X138250000Y-151713658D01*
X138250000Y-153000000D01*
X139547828Y-153000000D01*
X139547844Y-152999999D01*
X139607372Y-152993598D01*
X139607379Y-152993596D01*
X139742086Y-152943354D01*
X139742093Y-152943350D01*
X139857187Y-152857190D01*
X139857190Y-152857187D01*
X139943350Y-152742093D01*
X139943354Y-152742086D01*
X139993596Y-152607379D01*
X139993598Y-152607372D01*
X139999999Y-152547844D01*
X140000000Y-152547827D01*
X140000000Y-151250000D01*
X138713658Y-151250000D01*
X138646619Y-151230315D01*
X138600864Y-151177511D01*
X138590719Y-151109816D01*
X138605177Y-151000000D01*
X140994390Y-151000000D01*
X141014804Y-151285433D01*
X141075628Y-151565037D01*
X141075630Y-151565043D01*
X141075631Y-151565046D01*
X141175633Y-151833161D01*
X141175635Y-151833166D01*
X141312770Y-152084309D01*
X141312775Y-152084317D01*
X141484254Y-152313387D01*
X141484270Y-152313405D01*
X141686594Y-152515729D01*
X141686612Y-152515745D01*
X141915682Y-152687224D01*
X141915690Y-152687229D01*
X142166833Y-152824364D01*
X142166832Y-152824364D01*
X142166836Y-152824365D01*
X142166839Y-152824367D01*
X142434954Y-152924369D01*
X142434960Y-152924370D01*
X142434962Y-152924371D01*
X142714566Y-152985195D01*
X142714568Y-152985195D01*
X142714572Y-152985196D01*
X142968220Y-153003337D01*
X142999999Y-153005610D01*
X143000000Y-153005610D01*
X143000001Y-153005610D01*
X143028595Y-153003564D01*
X143285428Y-152985196D01*
X143460756Y-152947056D01*
X143565037Y-152924371D01*
X143565037Y-152924370D01*
X143565046Y-152924369D01*
X143833161Y-152824367D01*
X144084315Y-152687226D01*
X144313395Y-152515739D01*
X144515739Y-152313395D01*
X144687226Y-152084315D01*
X144824367Y-151833161D01*
X144924369Y-151565046D01*
X144954198Y-151427925D01*
X144985195Y-151285433D01*
X144985195Y-151285432D01*
X144985196Y-151285428D01*
X145005610Y-151000000D01*
X145994390Y-151000000D01*
X146014804Y-151285433D01*
X146075628Y-151565037D01*
X146075630Y-151565043D01*
X146075631Y-151565046D01*
X146175633Y-151833161D01*
X146175635Y-151833166D01*
X146312770Y-152084309D01*
X146312775Y-152084317D01*
X146484254Y-152313387D01*
X146484270Y-152313405D01*
X146686594Y-152515729D01*
X146686612Y-152515745D01*
X146915682Y-152687224D01*
X146915690Y-152687229D01*
X147166833Y-152824364D01*
X147166832Y-152824364D01*
X147166836Y-152824365D01*
X147166839Y-152824367D01*
X147434954Y-152924369D01*
X147434960Y-152924370D01*
X147434962Y-152924371D01*
X147714566Y-152985195D01*
X147714568Y-152985195D01*
X147714572Y-152985196D01*
X147968220Y-153003337D01*
X147999999Y-153005610D01*
X148000000Y-153005610D01*
X148000001Y-153005610D01*
X148028595Y-153003564D01*
X148285428Y-152985196D01*
X148460756Y-152947056D01*
X148565037Y-152924371D01*
X148565037Y-152924370D01*
X148565046Y-152924369D01*
X148833161Y-152824367D01*
X149084315Y-152687226D01*
X149270473Y-152547870D01*
X156999500Y-152547870D01*
X156999501Y-152547876D01*
X157005908Y-152607483D01*
X157056202Y-152742328D01*
X157056206Y-152742335D01*
X157142452Y-152857544D01*
X157142455Y-152857547D01*
X157257664Y-152943793D01*
X157257671Y-152943797D01*
X157392517Y-152994091D01*
X157392516Y-152994091D01*
X157399444Y-152994835D01*
X157452127Y-153000500D01*
X160547872Y-153000499D01*
X160607483Y-152994091D01*
X160742331Y-152943796D01*
X160857546Y-152857546D01*
X160943796Y-152742331D01*
X160994091Y-152607483D01*
X161000500Y-152547873D01*
X161000499Y-151000000D01*
X161994390Y-151000000D01*
X162014804Y-151285433D01*
X162075628Y-151565037D01*
X162075630Y-151565043D01*
X162075631Y-151565046D01*
X162175633Y-151833161D01*
X162175635Y-151833166D01*
X162312770Y-152084309D01*
X162312775Y-152084317D01*
X162484254Y-152313387D01*
X162484270Y-152313405D01*
X162686594Y-152515729D01*
X162686612Y-152515745D01*
X162915682Y-152687224D01*
X162915690Y-152687229D01*
X163166833Y-152824364D01*
X163166832Y-152824364D01*
X163166836Y-152824365D01*
X163166839Y-152824367D01*
X163434954Y-152924369D01*
X163434960Y-152924370D01*
X163434962Y-152924371D01*
X163714566Y-152985195D01*
X163714568Y-152985195D01*
X163714572Y-152985196D01*
X163968220Y-153003337D01*
X163999999Y-153005610D01*
X164000000Y-153005610D01*
X164000001Y-153005610D01*
X164028595Y-153003564D01*
X164285428Y-152985196D01*
X164460756Y-152947056D01*
X164565037Y-152924371D01*
X164565037Y-152924370D01*
X164565046Y-152924369D01*
X164833161Y-152824367D01*
X165084315Y-152687226D01*
X165313395Y-152515739D01*
X165515739Y-152313395D01*
X165687226Y-152084315D01*
X165824367Y-151833161D01*
X165924369Y-151565046D01*
X165954198Y-151427925D01*
X165985195Y-151285433D01*
X165985195Y-151285432D01*
X165985196Y-151285428D01*
X166005610Y-151000000D01*
X166994390Y-151000000D01*
X167014804Y-151285433D01*
X167075628Y-151565037D01*
X167075630Y-151565043D01*
X167075631Y-151565046D01*
X167175633Y-151833161D01*
X167175635Y-151833166D01*
X167312770Y-152084309D01*
X167312775Y-152084317D01*
X167484254Y-152313387D01*
X167484270Y-152313405D01*
X167686594Y-152515729D01*
X167686612Y-152515745D01*
X167915682Y-152687224D01*
X167915690Y-152687229D01*
X168166833Y-152824364D01*
X168166832Y-152824364D01*
X168166836Y-152824365D01*
X168166839Y-152824367D01*
X168434954Y-152924369D01*
X168434960Y-152924370D01*
X168434962Y-152924371D01*
X168714566Y-152985195D01*
X168714568Y-152985195D01*
X168714572Y-152985196D01*
X168968220Y-153003337D01*
X168999999Y-153005610D01*
X169000000Y-153005610D01*
X169000001Y-153005610D01*
X169028595Y-153003564D01*
X169285428Y-152985196D01*
X169460756Y-152947056D01*
X169565037Y-152924371D01*
X169565037Y-152924370D01*
X169565046Y-152924369D01*
X169833161Y-152824367D01*
X170084315Y-152687226D01*
X170313395Y-152515739D01*
X170515739Y-152313395D01*
X170687226Y-152084315D01*
X170824367Y-151833161D01*
X170924369Y-151565046D01*
X170954198Y-151427925D01*
X170985195Y-151285433D01*
X170985195Y-151285432D01*
X170985196Y-151285428D01*
X171005610Y-151000000D01*
X176294922Y-151000000D01*
X176315219Y-151387287D01*
X176375886Y-151770323D01*
X176375887Y-151770330D01*
X176476262Y-152144936D01*
X176615244Y-152506994D01*
X176791310Y-152852543D01*
X177002531Y-153177793D01*
X177211095Y-153435350D01*
X177211096Y-153435350D01*
X177874250Y-152772195D01*
X177935573Y-152738710D01*
X178005264Y-152743694D01*
X178061198Y-152785565D01*
X178065033Y-152790985D01*
X178067448Y-152794600D01*
X178067449Y-152794601D01*
X178109508Y-152857547D01*
X178122704Y-152877296D01*
X178209012Y-152934965D01*
X178253818Y-152988577D01*
X178262525Y-153057902D01*
X178232371Y-153120929D01*
X178227803Y-153125748D01*
X177564648Y-153788902D01*
X177564649Y-153788904D01*
X177822206Y-153997468D01*
X178147456Y-154208689D01*
X178493005Y-154384755D01*
X178855063Y-154523737D01*
X179229669Y-154624112D01*
X179229676Y-154624113D01*
X179612712Y-154684780D01*
X179999999Y-154705078D01*
X180000001Y-154705078D01*
X180387287Y-154684780D01*
X180770323Y-154624113D01*
X180770330Y-154624112D01*
X181144936Y-154523737D01*
X181506994Y-154384755D01*
X181852543Y-154208689D01*
X182177783Y-153997476D01*
X182177785Y-153997475D01*
X182435349Y-153788902D01*
X181772196Y-153125749D01*
X181738711Y-153064426D01*
X181743695Y-152994734D01*
X181785567Y-152938801D01*
X181790986Y-152934966D01*
X181794599Y-152932551D01*
X181794601Y-152932551D01*
X181877296Y-152877296D01*
X181932551Y-152794601D01*
X181932551Y-152794599D01*
X181934966Y-152790986D01*
X181988578Y-152746181D01*
X182057903Y-152737474D01*
X182120930Y-152767628D01*
X182125749Y-152772196D01*
X182788902Y-153435349D01*
X182997475Y-153177785D01*
X182997476Y-153177783D01*
X183208689Y-152852543D01*
X183384755Y-152506994D01*
X183523737Y-152144936D01*
X183624112Y-151770330D01*
X183624113Y-151770323D01*
X183684780Y-151387287D01*
X183705078Y-151000000D01*
X183705078Y-150999999D01*
X183684780Y-150612712D01*
X183624113Y-150229676D01*
X183624112Y-150229669D01*
X183523737Y-149855063D01*
X183384755Y-149493005D01*
X183208689Y-149147456D01*
X182997468Y-148822206D01*
X182788904Y-148564649D01*
X182788902Y-148564648D01*
X182125748Y-149227803D01*
X182064425Y-149261288D01*
X181994733Y-149256304D01*
X181938800Y-149214432D01*
X181934965Y-149209012D01*
X181890492Y-149142454D01*
X181877296Y-149122704D01*
X181794601Y-149067449D01*
X181794600Y-149067448D01*
X181790985Y-149065033D01*
X181746180Y-149011421D01*
X181737473Y-148942096D01*
X181767627Y-148879068D01*
X181772195Y-148874250D01*
X182435350Y-148211096D01*
X182435350Y-148211095D01*
X182177793Y-148002531D01*
X181852543Y-147791310D01*
X181506994Y-147615244D01*
X181144936Y-147476262D01*
X180770330Y-147375887D01*
X180770323Y-147375886D01*
X180387287Y-147315219D01*
X180000001Y-147294922D01*
X179999999Y-147294922D01*
X179612712Y-147315219D01*
X179229676Y-147375886D01*
X179229669Y-147375887D01*
X178855063Y-147476262D01*
X178493005Y-147615244D01*
X178147456Y-147791310D01*
X177822206Y-148002531D01*
X177564648Y-148211095D01*
X177564648Y-148211096D01*
X178227803Y-148874251D01*
X178261288Y-148935574D01*
X178256304Y-149005266D01*
X178214432Y-149061199D01*
X178209013Y-149065034D01*
X178122704Y-149122704D01*
X178065034Y-149209013D01*
X178011422Y-149253818D01*
X177942097Y-149262525D01*
X177879069Y-149232370D01*
X177874251Y-149227803D01*
X177211096Y-148564648D01*
X177211095Y-148564648D01*
X177002531Y-148822206D01*
X176791310Y-149147456D01*
X176615244Y-149493005D01*
X176476262Y-149855063D01*
X176375887Y-150229669D01*
X176375886Y-150229676D01*
X176315219Y-150612712D01*
X176294922Y-150999999D01*
X176294922Y-151000000D01*
X171005610Y-151000000D01*
X170985196Y-150714572D01*
X170933276Y-150475901D01*
X170924371Y-150434962D01*
X170924370Y-150434960D01*
X170924369Y-150434954D01*
X170824367Y-150166839D01*
X170711951Y-149960966D01*
X170687229Y-149915690D01*
X170687224Y-149915682D01*
X170515745Y-149686612D01*
X170515729Y-149686594D01*
X170313405Y-149484270D01*
X170313387Y-149484254D01*
X170084317Y-149312775D01*
X170084309Y-149312770D01*
X169833166Y-149175635D01*
X169833167Y-149175635D01*
X169691253Y-149122704D01*
X169565046Y-149075631D01*
X169565043Y-149075630D01*
X169565037Y-149075628D01*
X169285433Y-149014804D01*
X169000001Y-148994390D01*
X168999999Y-148994390D01*
X168714566Y-149014804D01*
X168434962Y-149075628D01*
X168166833Y-149175635D01*
X167915690Y-149312770D01*
X167915682Y-149312775D01*
X167686612Y-149484254D01*
X167686594Y-149484270D01*
X167484270Y-149686594D01*
X167484254Y-149686612D01*
X167312775Y-149915682D01*
X167312770Y-149915690D01*
X167175635Y-150166833D01*
X167075628Y-150434962D01*
X167014804Y-150714566D01*
X166994390Y-150999998D01*
X166994390Y-151000000D01*
X166005610Y-151000000D01*
X165985196Y-150714572D01*
X165933276Y-150475901D01*
X165924371Y-150434962D01*
X165924370Y-150434960D01*
X165924369Y-150434954D01*
X165824367Y-150166839D01*
X165711951Y-149960966D01*
X165687229Y-149915690D01*
X165687224Y-149915682D01*
X165515745Y-149686612D01*
X165515729Y-149686594D01*
X165313405Y-149484270D01*
X165313387Y-149484254D01*
X165084317Y-149312775D01*
X165084309Y-149312770D01*
X164833166Y-149175635D01*
X164833167Y-149175635D01*
X164691253Y-149122704D01*
X164565046Y-149075631D01*
X164565043Y-149075630D01*
X164565037Y-149075628D01*
X164285433Y-149014804D01*
X164000001Y-148994390D01*
X163999999Y-148994390D01*
X163714566Y-149014804D01*
X163434962Y-149075628D01*
X163166833Y-149175635D01*
X162915690Y-149312770D01*
X162915682Y-149312775D01*
X162686612Y-149484254D01*
X162686594Y-149484270D01*
X162484270Y-149686594D01*
X162484254Y-149686612D01*
X162312775Y-149915682D01*
X162312770Y-149915690D01*
X162175635Y-150166833D01*
X162075628Y-150434962D01*
X162014804Y-150714566D01*
X161994390Y-150999998D01*
X161994390Y-151000000D01*
X161000499Y-151000000D01*
X161000499Y-149452128D01*
X160994091Y-149392517D01*
X160988707Y-149378083D01*
X160943797Y-149257671D01*
X160943793Y-149257664D01*
X160857547Y-149142455D01*
X160857544Y-149142452D01*
X160742335Y-149056206D01*
X160742328Y-149056202D01*
X160607482Y-149005908D01*
X160607483Y-149005908D01*
X160547883Y-148999501D01*
X160547881Y-148999500D01*
X160547873Y-148999500D01*
X160547864Y-148999500D01*
X157452129Y-148999500D01*
X157452123Y-148999501D01*
X157392516Y-149005908D01*
X157257671Y-149056202D01*
X157257664Y-149056206D01*
X157142455Y-149142452D01*
X157142452Y-149142455D01*
X157056206Y-149257664D01*
X157056202Y-149257671D01*
X157005908Y-149392517D01*
X156999501Y-149452116D01*
X156999501Y-149452123D01*
X156999500Y-149452135D01*
X156999500Y-152547870D01*
X149270473Y-152547870D01*
X149313395Y-152515739D01*
X149515739Y-152313395D01*
X149687226Y-152084315D01*
X149824367Y-151833161D01*
X149924369Y-151565046D01*
X149954198Y-151427925D01*
X149985195Y-151285433D01*
X149985195Y-151285432D01*
X149985196Y-151285428D01*
X150005610Y-151000000D01*
X149985196Y-150714572D01*
X149933276Y-150475901D01*
X149924371Y-150434962D01*
X149924370Y-150434960D01*
X149924369Y-150434954D01*
X149824367Y-150166839D01*
X149711951Y-149960966D01*
X149687229Y-149915690D01*
X149687224Y-149915682D01*
X149515745Y-149686612D01*
X149515729Y-149686594D01*
X149313405Y-149484270D01*
X149313387Y-149484254D01*
X149084317Y-149312775D01*
X149084309Y-149312770D01*
X148833166Y-149175635D01*
X148833167Y-149175635D01*
X148691253Y-149122704D01*
X148565046Y-149075631D01*
X148565043Y-149075630D01*
X148565037Y-149075628D01*
X148285433Y-149014804D01*
X148000001Y-148994390D01*
X147999999Y-148994390D01*
X147714566Y-149014804D01*
X147434962Y-149075628D01*
X147166833Y-149175635D01*
X146915690Y-149312770D01*
X146915682Y-149312775D01*
X146686612Y-149484254D01*
X146686594Y-149484270D01*
X146484270Y-149686594D01*
X146484254Y-149686612D01*
X146312775Y-149915682D01*
X146312770Y-149915690D01*
X146175635Y-150166833D01*
X146075628Y-150434962D01*
X146014804Y-150714566D01*
X145994390Y-150999998D01*
X145994390Y-151000000D01*
X145005610Y-151000000D01*
X144985196Y-150714572D01*
X144933276Y-150475901D01*
X144924371Y-150434962D01*
X144924370Y-150434960D01*
X144924369Y-150434954D01*
X144824367Y-150166839D01*
X144711951Y-149960966D01*
X144687229Y-149915690D01*
X144687224Y-149915682D01*
X144515745Y-149686612D01*
X144515729Y-149686594D01*
X144313405Y-149484270D01*
X144313387Y-149484254D01*
X144084317Y-149312775D01*
X144084309Y-149312770D01*
X143833166Y-149175635D01*
X143833167Y-149175635D01*
X143691253Y-149122704D01*
X143565046Y-149075631D01*
X143565043Y-149075630D01*
X143565037Y-149075628D01*
X143285433Y-149014804D01*
X143000001Y-148994390D01*
X142999999Y-148994390D01*
X142714566Y-149014804D01*
X142434962Y-149075628D01*
X142166833Y-149175635D01*
X141915690Y-149312770D01*
X141915682Y-149312775D01*
X141686612Y-149484254D01*
X141686594Y-149484270D01*
X141484270Y-149686594D01*
X141484254Y-149686612D01*
X141312775Y-149915682D01*
X141312770Y-149915690D01*
X141175635Y-150166833D01*
X141075628Y-150434962D01*
X141014804Y-150714566D01*
X140994390Y-150999998D01*
X140994390Y-151000000D01*
X138605177Y-151000000D01*
X138590719Y-150890183D01*
X138601484Y-150821151D01*
X138647864Y-150768895D01*
X138713658Y-150750000D01*
X140000000Y-150750000D01*
X140000000Y-149452172D01*
X139999999Y-149452155D01*
X139993598Y-149392627D01*
X139993596Y-149392620D01*
X139943354Y-149257913D01*
X139943350Y-149257906D01*
X139857190Y-149142812D01*
X139857187Y-149142809D01*
X139742093Y-149056649D01*
X139742086Y-149056645D01*
X139607379Y-149006403D01*
X139607372Y-149006401D01*
X139547844Y-149000000D01*
X138250000Y-149000000D01*
X138250000Y-150286341D01*
X138230315Y-150353380D01*
X138177511Y-150399135D01*
X138109815Y-150409280D01*
X138039333Y-150400001D01*
X138039328Y-150400000D01*
X138039323Y-150400000D01*
X137960677Y-150400000D01*
X137960671Y-150400000D01*
X137960666Y-150400001D01*
X137890185Y-150409280D01*
X137821150Y-150398514D01*
X137768894Y-150352134D01*
X137750000Y-150286341D01*
X137750000Y-149000000D01*
X136452155Y-149000000D01*
X136392627Y-149006401D01*
X136392620Y-149006403D01*
X136257913Y-149056645D01*
X136257906Y-149056649D01*
X136142812Y-149142809D01*
X136142809Y-149142812D01*
X136056649Y-149257906D01*
X136056645Y-149257913D01*
X136006403Y-149392620D01*
X136006401Y-149392627D01*
X136000000Y-149452155D01*
X136000000Y-150750000D01*
X137286342Y-150750000D01*
X137353381Y-150769685D01*
X137399136Y-150822489D01*
X137409280Y-150890183D01*
X137394823Y-151000000D01*
X137409280Y-151109816D01*
X137398516Y-151178849D01*
X137352136Y-151231105D01*
X137286342Y-151250000D01*
X136000000Y-151250000D01*
X136000000Y-152547844D01*
X128270508Y-152547844D01*
X128313395Y-152515739D01*
X128515739Y-152313395D01*
X128687226Y-152084315D01*
X128824367Y-151833161D01*
X128924369Y-151565046D01*
X128954198Y-151427925D01*
X128985195Y-151285433D01*
X128985195Y-151285432D01*
X128985196Y-151285428D01*
X129005610Y-151000000D01*
X128985196Y-150714572D01*
X128933276Y-150475901D01*
X128924371Y-150434962D01*
X128924370Y-150434960D01*
X128924369Y-150434954D01*
X128824367Y-150166839D01*
X128711951Y-149960966D01*
X128687229Y-149915690D01*
X128687224Y-149915682D01*
X128515745Y-149686612D01*
X128515729Y-149686594D01*
X128313405Y-149484270D01*
X128313387Y-149484254D01*
X128084317Y-149312775D01*
X128084309Y-149312770D01*
X127833166Y-149175635D01*
X127833167Y-149175635D01*
X127691253Y-149122704D01*
X127565046Y-149075631D01*
X127565043Y-149075630D01*
X127565037Y-149075628D01*
X127285433Y-149014804D01*
X127000001Y-148994390D01*
X126999999Y-148994390D01*
X126714566Y-149014804D01*
X126434962Y-149075628D01*
X126166833Y-149175635D01*
X125915690Y-149312770D01*
X125915682Y-149312775D01*
X125686612Y-149484254D01*
X125686594Y-149484270D01*
X125484270Y-149686594D01*
X125484254Y-149686612D01*
X125312775Y-149915682D01*
X125312770Y-149915690D01*
X125175635Y-150166833D01*
X125075628Y-150434962D01*
X125014804Y-150714566D01*
X124994390Y-150999998D01*
X124994390Y-151000000D01*
X124005610Y-151000000D01*
X123985196Y-150714572D01*
X123933276Y-150475901D01*
X123924371Y-150434962D01*
X123924370Y-150434960D01*
X123924369Y-150434954D01*
X123824367Y-150166839D01*
X123711951Y-149960966D01*
X123687229Y-149915690D01*
X123687224Y-149915682D01*
X123515745Y-149686612D01*
X123515729Y-149686594D01*
X123313405Y-149484270D01*
X123313387Y-149484254D01*
X123084317Y-149312775D01*
X123084309Y-149312770D01*
X122833166Y-149175635D01*
X122833167Y-149175635D01*
X122691253Y-149122704D01*
X122565046Y-149075631D01*
X122565043Y-149075630D01*
X122565037Y-149075628D01*
X122285433Y-149014804D01*
X122000001Y-148994390D01*
X121999999Y-148994390D01*
X121714566Y-149014804D01*
X121434962Y-149075628D01*
X121166833Y-149175635D01*
X120915690Y-149312770D01*
X120915682Y-149312775D01*
X120686612Y-149484254D01*
X120686594Y-149484270D01*
X120484270Y-149686594D01*
X120484254Y-149686612D01*
X120312775Y-149915682D01*
X120312770Y-149915690D01*
X120175635Y-150166833D01*
X120075628Y-150434962D01*
X120014804Y-150714566D01*
X119994390Y-150999998D01*
X119994390Y-151000000D01*
X117605177Y-151000000D01*
X117590719Y-150890183D01*
X117601484Y-150821151D01*
X117647864Y-150768895D01*
X117713658Y-150750000D01*
X119000000Y-150750000D01*
X119000000Y-149452172D01*
X118999999Y-149452155D01*
X118993598Y-149392627D01*
X118993596Y-149392620D01*
X118943354Y-149257913D01*
X118943350Y-149257906D01*
X118857190Y-149142812D01*
X118857187Y-149142809D01*
X118742093Y-149056649D01*
X118742086Y-149056645D01*
X118607379Y-149006403D01*
X118607372Y-149006401D01*
X118547844Y-149000000D01*
X117250000Y-149000000D01*
X117250000Y-150286341D01*
X117230315Y-150353380D01*
X117177511Y-150399135D01*
X117109815Y-150409280D01*
X117039333Y-150400001D01*
X117039328Y-150400000D01*
X117039323Y-150400000D01*
X116960677Y-150400000D01*
X116960671Y-150400000D01*
X116960666Y-150400001D01*
X116890185Y-150409280D01*
X116821150Y-150398514D01*
X116768894Y-150352134D01*
X116750000Y-150286341D01*
X116750000Y-149000000D01*
X115452155Y-149000000D01*
X115392627Y-149006401D01*
X115392620Y-149006403D01*
X115257913Y-149056645D01*
X115257906Y-149056649D01*
X115142812Y-149142809D01*
X115142809Y-149142812D01*
X115056649Y-149257906D01*
X115056645Y-149257913D01*
X115006403Y-149392620D01*
X115006401Y-149392627D01*
X115000000Y-149452155D01*
X115000000Y-150750000D01*
X116286342Y-150750000D01*
X116353381Y-150769685D01*
X116399136Y-150822489D01*
X116409280Y-150890183D01*
X116394823Y-151000000D01*
X116409280Y-151109816D01*
X116398516Y-151178849D01*
X116352136Y-151231105D01*
X116286342Y-151250000D01*
X115000000Y-151250000D01*
X115000000Y-152547844D01*
X108363941Y-152547844D01*
X108384755Y-152506994D01*
X108523737Y-152144936D01*
X108624112Y-151770330D01*
X108624113Y-151770323D01*
X108684780Y-151387287D01*
X108705078Y-151000000D01*
X108705078Y-150999999D01*
X108684780Y-150612712D01*
X108624113Y-150229676D01*
X108624112Y-150229669D01*
X108523737Y-149855063D01*
X108384755Y-149493005D01*
X108208689Y-149147456D01*
X107997468Y-148822206D01*
X107788904Y-148564649D01*
X107788902Y-148564648D01*
X107125748Y-149227803D01*
X107064425Y-149261288D01*
X106994733Y-149256304D01*
X106938800Y-149214432D01*
X106934965Y-149209012D01*
X106890492Y-149142454D01*
X106877296Y-149122704D01*
X106794601Y-149067449D01*
X106794600Y-149067448D01*
X106790985Y-149065033D01*
X106746180Y-149011421D01*
X106737473Y-148942096D01*
X106767627Y-148879068D01*
X106772195Y-148874250D01*
X107435350Y-148211096D01*
X107435350Y-148211095D01*
X107177793Y-148002531D01*
X106852543Y-147791310D01*
X106506994Y-147615244D01*
X106144936Y-147476262D01*
X105860321Y-147400000D01*
X163094540Y-147400000D01*
X163114326Y-147588256D01*
X163114327Y-147588259D01*
X163172818Y-147768277D01*
X163172821Y-147768284D01*
X163267467Y-147932216D01*
X163330779Y-148002531D01*
X163394129Y-148072888D01*
X163547265Y-148184148D01*
X163547270Y-148184151D01*
X163720192Y-148261142D01*
X163720197Y-148261144D01*
X163905354Y-148300500D01*
X163905355Y-148300500D01*
X164094644Y-148300500D01*
X164094646Y-148300500D01*
X164279803Y-148261144D01*
X164452730Y-148184151D01*
X164605871Y-148072888D01*
X164732533Y-147932216D01*
X164827179Y-147768284D01*
X164885674Y-147588256D01*
X164905460Y-147400000D01*
X164885674Y-147211744D01*
X164827179Y-147031716D01*
X164732533Y-146867784D01*
X164605871Y-146727112D01*
X164605870Y-146727111D01*
X164452734Y-146615851D01*
X164452729Y-146615848D01*
X164279807Y-146538857D01*
X164279802Y-146538855D01*
X164134000Y-146507865D01*
X164094646Y-146499500D01*
X163905354Y-146499500D01*
X163872897Y-146506398D01*
X163720197Y-146538855D01*
X163720192Y-146538857D01*
X163547270Y-146615848D01*
X163547265Y-146615851D01*
X163394129Y-146727111D01*
X163267466Y-146867785D01*
X163172821Y-147031715D01*
X163172818Y-147031722D01*
X163114327Y-147211740D01*
X163114326Y-147211744D01*
X163094540Y-147400000D01*
X105860321Y-147400000D01*
X105770330Y-147375887D01*
X105770323Y-147375886D01*
X105387287Y-147315219D01*
X105000001Y-147294922D01*
X104999999Y-147294922D01*
X104612712Y-147315219D01*
X104229676Y-147375886D01*
X104229669Y-147375887D01*
X103855063Y-147476262D01*
X103493005Y-147615244D01*
X103147456Y-147791310D01*
X102822206Y-148002531D01*
X102564648Y-148211095D01*
X102564648Y-148211096D01*
X103227803Y-148874251D01*
X103261288Y-148935574D01*
X103256304Y-149005266D01*
X103214432Y-149061199D01*
X103209013Y-149065034D01*
X103122704Y-149122704D01*
X103065034Y-149209013D01*
X103011422Y-149253818D01*
X102942097Y-149262525D01*
X102879069Y-149232370D01*
X102874251Y-149227803D01*
X102211096Y-148564648D01*
X102211095Y-148564648D01*
X102002531Y-148822206D01*
X101791310Y-149147456D01*
X101615244Y-149493005D01*
X101476262Y-149855063D01*
X101375887Y-150229669D01*
X101375886Y-150229676D01*
X101315219Y-150612712D01*
X101294922Y-150999999D01*
X101294922Y-151000000D01*
X100000500Y-151000000D01*
X100000500Y-150999500D01*
X100000500Y-143449707D01*
X176011441Y-143449707D01*
X176021934Y-143552411D01*
X176021935Y-143552418D01*
X176077082Y-143718840D01*
X176077084Y-143718845D01*
X176169125Y-143868066D01*
X176293096Y-143992037D01*
X176442317Y-144084078D01*
X176442322Y-144084080D01*
X176608744Y-144139227D01*
X176608751Y-144139228D01*
X176711455Y-144149721D01*
X176711468Y-144149722D01*
X177611441Y-144149722D01*
X177611441Y-143269303D01*
X177631126Y-143202264D01*
X177683930Y-143156509D01*
X177753088Y-143146565D01*
X177762069Y-143148196D01*
X177768998Y-143149722D01*
X177769002Y-143149722D01*
X177907520Y-143149722D01*
X177907525Y-143149722D01*
X177974035Y-143142488D01*
X178042808Y-143154808D01*
X178094004Y-143202355D01*
X178111441Y-143265761D01*
X178111441Y-144149722D01*
X179011414Y-144149722D01*
X179011426Y-144149721D01*
X179114130Y-144139228D01*
X179114137Y-144139227D01*
X179280559Y-144084080D01*
X179280564Y-144084078D01*
X179429785Y-143992037D01*
X179553756Y-143868066D01*
X179645797Y-143718845D01*
X179645799Y-143718840D01*
X179700946Y-143552418D01*
X179700947Y-143552411D01*
X179711440Y-143449707D01*
X179711441Y-143449694D01*
X179711441Y-142549722D01*
X178827786Y-142549722D01*
X178760747Y-142530037D01*
X178714992Y-142477233D01*
X178705048Y-142408075D01*
X178705420Y-142405661D01*
X178715199Y-142346011D01*
X178706222Y-142180434D01*
X178722248Y-142112428D01*
X178772498Y-142063882D01*
X178830040Y-142049722D01*
X179711441Y-142049722D01*
X179711441Y-141149749D01*
X179711440Y-141149736D01*
X179700947Y-141047032D01*
X179700946Y-141047025D01*
X179645799Y-140880603D01*
X179645797Y-140880598D01*
X179553756Y-140731377D01*
X179429785Y-140607406D01*
X179280564Y-140515365D01*
X179280559Y-140515363D01*
X179114137Y-140460216D01*
X179114130Y-140460215D01*
X179011426Y-140449722D01*
X178111441Y-140449722D01*
X178111441Y-141330140D01*
X178091756Y-141397179D01*
X178038952Y-141442934D01*
X177969794Y-141452878D01*
X177960801Y-141451244D01*
X177953884Y-141449722D01*
X177815357Y-141449722D01*
X177815352Y-141449722D01*
X177748847Y-141456955D01*
X177680072Y-141444634D01*
X177628877Y-141397086D01*
X177611441Y-141333682D01*
X177611441Y-140449722D01*
X176711455Y-140449722D01*
X176608751Y-140460215D01*
X176608744Y-140460216D01*
X176442322Y-140515363D01*
X176442317Y-140515365D01*
X176293096Y-140607406D01*
X176169125Y-140731377D01*
X176077084Y-140880598D01*
X176077082Y-140880603D01*
X176021935Y-141047025D01*
X176021934Y-141047032D01*
X176011441Y-141149736D01*
X176011441Y-142049722D01*
X176895096Y-142049722D01*
X176962135Y-142069407D01*
X177007890Y-142122211D01*
X177017834Y-142191369D01*
X177017462Y-142193783D01*
X177007683Y-142253430D01*
X177007683Y-142253433D01*
X177016660Y-142419009D01*
X177000634Y-142487016D01*
X176950384Y-142535562D01*
X176892842Y-142549722D01*
X176011441Y-142549722D01*
X176011441Y-143449707D01*
X100000500Y-143449707D01*
X100000500Y-142000000D01*
X153294540Y-142000000D01*
X153314326Y-142188256D01*
X153314327Y-142188259D01*
X153372818Y-142368277D01*
X153372821Y-142368284D01*
X153467467Y-142532216D01*
X153594128Y-142672887D01*
X153594129Y-142672888D01*
X153747265Y-142784148D01*
X153747270Y-142784151D01*
X153920192Y-142861142D01*
X153920197Y-142861144D01*
X154105354Y-142900500D01*
X154105355Y-142900500D01*
X154294644Y-142900500D01*
X154294646Y-142900500D01*
X154479803Y-142861144D01*
X154652730Y-142784151D01*
X154805871Y-142672888D01*
X154932533Y-142532216D01*
X155027179Y-142368284D01*
X155085674Y-142188256D01*
X155105460Y-142000000D01*
X155085674Y-141811744D01*
X155027179Y-141631716D01*
X154932533Y-141467784D01*
X154805871Y-141327112D01*
X154805870Y-141327111D01*
X154652734Y-141215851D01*
X154652729Y-141215848D01*
X154479807Y-141138857D01*
X154479802Y-141138855D01*
X154334001Y-141107865D01*
X154294646Y-141099500D01*
X154105354Y-141099500D01*
X154072897Y-141106398D01*
X153920197Y-141138855D01*
X153920192Y-141138857D01*
X153747270Y-141215848D01*
X153747265Y-141215851D01*
X153594129Y-141327111D01*
X153467466Y-141467785D01*
X153372821Y-141631715D01*
X153372818Y-141631722D01*
X153314327Y-141811740D01*
X153314326Y-141811744D01*
X153294540Y-142000000D01*
X100000500Y-142000000D01*
X100000500Y-140000001D01*
X104145274Y-140000001D01*
X104164152Y-140263960D01*
X104220400Y-140522528D01*
X104312884Y-140770487D01*
X104439701Y-141002735D01*
X104439706Y-141002743D01*
X104527038Y-141119405D01*
X104527039Y-141119406D01*
X105139476Y-140506969D01*
X105200799Y-140473484D01*
X105270490Y-140478468D01*
X105321665Y-140514374D01*
X105412008Y-140620734D01*
X105481190Y-140673325D01*
X105522648Y-140729566D01*
X105527117Y-140799293D01*
X105493830Y-140859722D01*
X104880592Y-141472959D01*
X104880592Y-141472960D01*
X104997256Y-141560293D01*
X104997264Y-141560298D01*
X105229513Y-141687115D01*
X105229512Y-141687115D01*
X105477471Y-141779599D01*
X105736039Y-141835847D01*
X105999999Y-141854726D01*
X106000001Y-141854726D01*
X106263960Y-141835847D01*
X106522528Y-141779599D01*
X106770487Y-141687115D01*
X107002735Y-141560298D01*
X107002736Y-141560297D01*
X107119406Y-141472959D01*
X106509745Y-140863299D01*
X106476260Y-140801976D01*
X106481244Y-140732285D01*
X106514609Y-140687466D01*
X106512550Y-140685292D01*
X106517429Y-140680669D01*
X106517431Y-140680669D01*
X106651658Y-140553523D01*
X106670652Y-140525508D01*
X106724562Y-140481067D01*
X106793944Y-140472827D01*
X106856767Y-140503405D01*
X106860966Y-140507413D01*
X107472959Y-141119406D01*
X107560297Y-141002736D01*
X107560298Y-141002735D01*
X107687115Y-140770487D01*
X107779599Y-140522528D01*
X107835847Y-140263960D01*
X107854726Y-140000001D01*
X107854726Y-140000000D01*
X145694540Y-140000000D01*
X145714326Y-140188256D01*
X145714327Y-140188259D01*
X145772818Y-140368277D01*
X145772821Y-140368284D01*
X145867467Y-140532216D01*
X145935169Y-140607406D01*
X145994129Y-140672888D01*
X146147265Y-140784148D01*
X146147270Y-140784151D01*
X146320192Y-140861142D01*
X146320197Y-140861144D01*
X146505354Y-140900500D01*
X146505355Y-140900500D01*
X146694644Y-140900500D01*
X146694646Y-140900500D01*
X146879803Y-140861144D01*
X147052730Y-140784151D01*
X147205871Y-140672888D01*
X147332533Y-140532216D01*
X147427179Y-140368284D01*
X147485674Y-140188256D01*
X147505460Y-140000000D01*
X147485674Y-139811744D01*
X147427179Y-139631716D01*
X147332533Y-139467784D01*
X147205871Y-139327112D01*
X147205870Y-139327111D01*
X147052734Y-139215851D01*
X147052729Y-139215848D01*
X146879807Y-139138857D01*
X146879802Y-139138855D01*
X146734001Y-139107865D01*
X146694646Y-139099500D01*
X146505354Y-139099500D01*
X146472897Y-139106398D01*
X146320197Y-139138855D01*
X146320192Y-139138857D01*
X146147270Y-139215848D01*
X146147265Y-139215851D01*
X145994129Y-139327111D01*
X145867466Y-139467785D01*
X145772821Y-139631715D01*
X145772818Y-139631722D01*
X145755986Y-139683527D01*
X145714326Y-139811744D01*
X145694540Y-140000000D01*
X107854726Y-140000000D01*
X107854726Y-139999998D01*
X107835847Y-139736039D01*
X107779599Y-139477471D01*
X107687115Y-139229512D01*
X107560298Y-138997264D01*
X107560293Y-138997256D01*
X107472960Y-138880593D01*
X107472959Y-138880592D01*
X106860523Y-139493029D01*
X106799200Y-139526514D01*
X106729508Y-139521530D01*
X106678334Y-139485624D01*
X106587990Y-139379264D01*
X106518807Y-139326672D01*
X106477350Y-139270431D01*
X106472881Y-139200704D01*
X106506168Y-139140276D01*
X107119406Y-138527038D01*
X107002743Y-138439706D01*
X107002735Y-138439701D01*
X106770486Y-138312884D01*
X106770487Y-138312884D01*
X106522528Y-138220400D01*
X106263960Y-138164152D01*
X106000001Y-138145274D01*
X105999999Y-138145274D01*
X105736039Y-138164152D01*
X105477471Y-138220400D01*
X105229512Y-138312884D01*
X104997264Y-138439701D01*
X104880593Y-138527039D01*
X105490254Y-139136700D01*
X105523739Y-139198023D01*
X105518755Y-139267715D01*
X105485444Y-139312589D01*
X105487450Y-139314707D01*
X105348342Y-139446476D01*
X105329347Y-139474493D01*
X105275433Y-139518933D01*
X105206050Y-139527171D01*
X105143228Y-139496590D01*
X105139033Y-139492586D01*
X104527039Y-138880593D01*
X104439701Y-138997264D01*
X104312884Y-139229512D01*
X104220400Y-139477471D01*
X104164152Y-139736039D01*
X104145274Y-139999998D01*
X104145274Y-140000001D01*
X100000500Y-140000001D01*
X100000500Y-137000000D01*
X138494540Y-137000000D01*
X138514326Y-137188256D01*
X138514327Y-137188259D01*
X138572818Y-137368277D01*
X138572821Y-137368284D01*
X138667467Y-137532216D01*
X138695859Y-137563748D01*
X138794129Y-137672888D01*
X138947265Y-137784148D01*
X138947270Y-137784151D01*
X139120192Y-137861142D01*
X139120197Y-137861144D01*
X139305354Y-137900500D01*
X139305355Y-137900500D01*
X139494644Y-137900500D01*
X139494646Y-137900500D01*
X139679803Y-137861144D01*
X139852730Y-137784151D01*
X140005871Y-137672888D01*
X140132533Y-137532216D01*
X140227179Y-137368284D01*
X140285674Y-137188256D01*
X140305460Y-137000000D01*
X152294540Y-137000000D01*
X152314326Y-137188256D01*
X152314327Y-137188259D01*
X152372818Y-137368277D01*
X152372821Y-137368284D01*
X152467467Y-137532216D01*
X152495859Y-137563748D01*
X152594129Y-137672888D01*
X152747265Y-137784148D01*
X152747270Y-137784151D01*
X152920192Y-137861142D01*
X152920197Y-137861144D01*
X153105354Y-137900500D01*
X153105355Y-137900500D01*
X153294644Y-137900500D01*
X153294646Y-137900500D01*
X153479803Y-137861144D01*
X153652730Y-137784151D01*
X153805871Y-137672888D01*
X153932533Y-137532216D01*
X154027179Y-137368284D01*
X154049456Y-137299723D01*
X176006214Y-137299723D01*
X176025098Y-137563749D01*
X176025099Y-137563756D01*
X176081362Y-137822395D01*
X176173867Y-138070412D01*
X176173869Y-138070416D01*
X176300721Y-138302727D01*
X176300726Y-138302735D01*
X176459347Y-138514629D01*
X176459363Y-138514647D01*
X176646515Y-138701799D01*
X176646533Y-138701815D01*
X176858427Y-138860436D01*
X176858435Y-138860441D01*
X177090746Y-138987293D01*
X177090750Y-138987295D01*
X177090752Y-138987296D01*
X177338763Y-139079799D01*
X177338766Y-139079799D01*
X177338767Y-139079800D01*
X177533993Y-139122268D01*
X177597415Y-139136065D01*
X177841101Y-139153494D01*
X177861440Y-139154949D01*
X177861441Y-139154949D01*
X177861442Y-139154949D01*
X177880326Y-139153598D01*
X178125467Y-139136065D01*
X178384119Y-139079799D01*
X178632130Y-138987296D01*
X178864452Y-138860438D01*
X179076356Y-138701809D01*
X179263528Y-138514637D01*
X179422157Y-138302733D01*
X179549015Y-138070411D01*
X179641518Y-137822400D01*
X179697784Y-137563748D01*
X179716668Y-137299722D01*
X179697784Y-137035696D01*
X179655213Y-136839998D01*
X179641519Y-136777048D01*
X179610063Y-136692711D01*
X179549015Y-136529033D01*
X179515570Y-136467784D01*
X179422160Y-136296716D01*
X179422155Y-136296708D01*
X179263534Y-136084814D01*
X179263518Y-136084796D01*
X179076366Y-135897644D01*
X179076348Y-135897628D01*
X178864454Y-135739007D01*
X178864446Y-135739002D01*
X178632135Y-135612150D01*
X178632131Y-135612148D01*
X178384114Y-135519643D01*
X178125475Y-135463380D01*
X178125468Y-135463379D01*
X177861442Y-135444495D01*
X177861440Y-135444495D01*
X177597413Y-135463379D01*
X177597406Y-135463380D01*
X177338767Y-135519643D01*
X177090750Y-135612148D01*
X177090746Y-135612150D01*
X176858435Y-135739002D01*
X176858427Y-135739007D01*
X176646533Y-135897628D01*
X176646515Y-135897644D01*
X176459363Y-136084796D01*
X176459347Y-136084814D01*
X176300726Y-136296708D01*
X176300721Y-136296716D01*
X176173869Y-136529027D01*
X176173867Y-136529031D01*
X176081362Y-136777048D01*
X176025099Y-137035687D01*
X176025098Y-137035694D01*
X176006214Y-137299720D01*
X176006214Y-137299723D01*
X154049456Y-137299723D01*
X154085674Y-137188256D01*
X154105460Y-137000000D01*
X154085674Y-136811744D01*
X154027179Y-136631716D01*
X153932533Y-136467784D01*
X153805871Y-136327112D01*
X153805870Y-136327111D01*
X153652734Y-136215851D01*
X153652729Y-136215848D01*
X153479807Y-136138857D01*
X153479802Y-136138855D01*
X153334001Y-136107865D01*
X153294646Y-136099500D01*
X153105354Y-136099500D01*
X153072897Y-136106398D01*
X152920197Y-136138855D01*
X152920192Y-136138857D01*
X152747270Y-136215848D01*
X152747265Y-136215851D01*
X152594129Y-136327111D01*
X152467466Y-136467785D01*
X152372821Y-136631715D01*
X152372818Y-136631722D01*
X152323076Y-136784813D01*
X152314326Y-136811744D01*
X152294540Y-137000000D01*
X140305460Y-137000000D01*
X140285674Y-136811744D01*
X140227179Y-136631716D01*
X140132533Y-136467784D01*
X140005871Y-136327112D01*
X140005870Y-136327111D01*
X139852734Y-136215851D01*
X139852729Y-136215848D01*
X139679807Y-136138857D01*
X139679802Y-136138855D01*
X139534000Y-136107865D01*
X139494646Y-136099500D01*
X139305354Y-136099500D01*
X139272897Y-136106398D01*
X139120197Y-136138855D01*
X139120192Y-136138857D01*
X138947270Y-136215848D01*
X138947265Y-136215851D01*
X138794129Y-136327111D01*
X138667466Y-136467785D01*
X138572821Y-136631715D01*
X138572818Y-136631722D01*
X138523076Y-136784813D01*
X138514326Y-136811744D01*
X138494540Y-137000000D01*
X100000500Y-137000000D01*
X100000500Y-136150015D01*
X104149500Y-136150015D01*
X104160000Y-136252795D01*
X104160001Y-136252796D01*
X104215186Y-136419335D01*
X104215187Y-136419337D01*
X104307286Y-136568651D01*
X104307289Y-136568655D01*
X104431344Y-136692710D01*
X104431348Y-136692713D01*
X104580662Y-136784812D01*
X104580664Y-136784813D01*
X104580666Y-136784814D01*
X104747203Y-136839999D01*
X104849992Y-136850500D01*
X104849997Y-136850500D01*
X107150003Y-136850500D01*
X107150008Y-136850500D01*
X107252797Y-136839999D01*
X107419334Y-136784814D01*
X107568655Y-136692711D01*
X107692711Y-136568655D01*
X107784814Y-136419334D01*
X107839999Y-136252797D01*
X107850500Y-136150008D01*
X107850500Y-133849992D01*
X107839999Y-133747203D01*
X107784814Y-133580666D01*
X107762072Y-133543796D01*
X107692713Y-133431348D01*
X107692710Y-133431344D01*
X107568655Y-133307289D01*
X107568651Y-133307286D01*
X107419337Y-133215187D01*
X107419335Y-133215186D01*
X107336065Y-133187593D01*
X107252797Y-133160001D01*
X107252795Y-133160000D01*
X107150015Y-133149500D01*
X107150008Y-133149500D01*
X104849992Y-133149500D01*
X104849984Y-133149500D01*
X104747204Y-133160000D01*
X104747203Y-133160001D01*
X104580664Y-133215186D01*
X104580662Y-133215187D01*
X104431348Y-133307286D01*
X104431344Y-133307289D01*
X104307289Y-133431344D01*
X104307286Y-133431348D01*
X104215187Y-133580662D01*
X104215186Y-133580664D01*
X104160001Y-133747203D01*
X104160000Y-133747204D01*
X104149500Y-133849984D01*
X104149500Y-136150015D01*
X100000500Y-136150015D01*
X100000500Y-132450000D01*
X142809117Y-132450000D01*
X142861317Y-132656135D01*
X142954516Y-132868609D01*
X143081414Y-133062842D01*
X143238558Y-133233545D01*
X143238562Y-133233548D01*
X143421644Y-133376047D01*
X143421648Y-133376050D01*
X143625697Y-133486476D01*
X143625706Y-133486479D01*
X143845139Y-133561811D01*
X143939999Y-133577640D01*
X143940000Y-133577639D01*
X143940000Y-132761821D01*
X143959685Y-132694782D01*
X144012489Y-132649027D01*
X144081647Y-132639083D01*
X144100547Y-132643329D01*
X144122173Y-132650000D01*
X144223723Y-132650000D01*
X144223724Y-132650000D01*
X144297519Y-132638877D01*
X144366742Y-132648350D01*
X144419857Y-132693744D01*
X144439997Y-132760648D01*
X144440000Y-132761492D01*
X144440000Y-133577640D01*
X144534860Y-133561811D01*
X144754293Y-133486479D01*
X144754302Y-133486476D01*
X144958351Y-133376050D01*
X144958355Y-133376047D01*
X145141437Y-133233548D01*
X145141441Y-133233545D01*
X145220311Y-133147870D01*
X150409500Y-133147870D01*
X150409501Y-133147876D01*
X150415908Y-133207483D01*
X150466202Y-133342328D01*
X150466206Y-133342335D01*
X150552452Y-133457544D01*
X150552455Y-133457547D01*
X150667664Y-133543793D01*
X150667671Y-133543797D01*
X150802517Y-133594091D01*
X150802516Y-133594091D01*
X150809444Y-133594835D01*
X150862127Y-133600500D01*
X152757872Y-133600499D01*
X152817483Y-133594091D01*
X152952331Y-133543796D01*
X153067546Y-133457546D01*
X153153796Y-133342331D01*
X153204091Y-133207483D01*
X153210500Y-133147873D01*
X153210499Y-131252128D01*
X153204091Y-131192517D01*
X153153796Y-131057669D01*
X153153795Y-131057668D01*
X153153793Y-131057664D01*
X153067547Y-130942455D01*
X153067544Y-130942452D01*
X152952335Y-130856206D01*
X152952328Y-130856202D01*
X152817482Y-130805908D01*
X152817483Y-130805908D01*
X152757883Y-130799501D01*
X152757881Y-130799500D01*
X152757873Y-130799500D01*
X152757864Y-130799500D01*
X150862129Y-130799500D01*
X150862123Y-130799501D01*
X150802516Y-130805908D01*
X150667671Y-130856202D01*
X150667664Y-130856206D01*
X150552455Y-130942452D01*
X150552452Y-130942455D01*
X150466206Y-131057664D01*
X150466202Y-131057671D01*
X150415908Y-131192517D01*
X150409501Y-131252116D01*
X150409501Y-131252123D01*
X150409500Y-131252135D01*
X150409500Y-133147870D01*
X145220311Y-133147870D01*
X145298585Y-133062842D01*
X145425483Y-132868609D01*
X145518682Y-132656135D01*
X145570883Y-132450000D01*
X144750003Y-132450000D01*
X144682964Y-132430315D01*
X144637209Y-132377511D01*
X144627265Y-132308353D01*
X144629112Y-132298408D01*
X144643810Y-132234007D01*
X144643810Y-132234006D01*
X144632979Y-132089468D01*
X144635079Y-132089310D01*
X144638595Y-132031861D01*
X144679890Y-131975501D01*
X144745101Y-131950413D01*
X144755216Y-131950000D01*
X145570883Y-131950000D01*
X145518682Y-131743864D01*
X145425483Y-131531390D01*
X145298585Y-131337157D01*
X145141441Y-131166454D01*
X145141437Y-131166451D01*
X144958355Y-131023952D01*
X144958351Y-131023949D01*
X144754302Y-130913523D01*
X144754293Y-130913520D01*
X144534861Y-130838188D01*
X144440000Y-130822359D01*
X144440000Y-131638178D01*
X144420315Y-131705217D01*
X144367511Y-131750972D01*
X144298353Y-131760916D01*
X144279454Y-131756670D01*
X144257829Y-131750000D01*
X144257827Y-131750000D01*
X144156276Y-131750000D01*
X144156268Y-131750000D01*
X144082481Y-131761122D01*
X144013256Y-131751649D01*
X143960143Y-131706254D01*
X143940003Y-131639350D01*
X143940000Y-131638507D01*
X143940000Y-130822359D01*
X143939999Y-130822359D01*
X143845138Y-130838188D01*
X143625706Y-130913520D01*
X143625697Y-130913523D01*
X143421648Y-131023949D01*
X143421644Y-131023952D01*
X143238562Y-131166451D01*
X143238558Y-131166454D01*
X143081414Y-131337157D01*
X142954516Y-131531390D01*
X142861317Y-131743864D01*
X142809117Y-131950000D01*
X143629997Y-131950000D01*
X143697036Y-131969685D01*
X143742791Y-132022489D01*
X143752735Y-132091647D01*
X143750888Y-132101592D01*
X143736189Y-132165992D01*
X143736189Y-132165993D01*
X143747021Y-132310532D01*
X143744920Y-132310689D01*
X143741405Y-132368139D01*
X143700110Y-132424499D01*
X143634899Y-132449587D01*
X143624784Y-132450000D01*
X142809117Y-132450000D01*
X100000500Y-132450000D01*
X100000500Y-129447844D01*
X142790000Y-129447844D01*
X142796401Y-129507372D01*
X142796403Y-129507379D01*
X142846645Y-129642086D01*
X142846649Y-129642093D01*
X142932809Y-129757187D01*
X142932812Y-129757190D01*
X143047906Y-129843350D01*
X143047913Y-129843354D01*
X143182620Y-129893596D01*
X143182627Y-129893598D01*
X143242155Y-129899999D01*
X143242172Y-129900000D01*
X143940000Y-129900000D01*
X143940000Y-129061821D01*
X143959685Y-128994782D01*
X144012489Y-128949027D01*
X144081647Y-128939083D01*
X144100547Y-128943329D01*
X144122173Y-128950000D01*
X144223723Y-128950000D01*
X144223724Y-128950000D01*
X144297519Y-128938877D01*
X144366742Y-128948350D01*
X144419857Y-128993744D01*
X144439997Y-129060648D01*
X144440000Y-129061492D01*
X144440000Y-129900000D01*
X145137828Y-129900000D01*
X145137844Y-129899999D01*
X145197372Y-129893598D01*
X145197379Y-129893596D01*
X145332086Y-129843354D01*
X145332093Y-129843350D01*
X145447187Y-129757190D01*
X145447190Y-129757187D01*
X145533350Y-129642093D01*
X145533354Y-129642086D01*
X145583596Y-129507379D01*
X145583598Y-129507372D01*
X145589999Y-129447844D01*
X145590000Y-129447827D01*
X145590000Y-128750000D01*
X144750003Y-128750000D01*
X144682964Y-128730315D01*
X144637209Y-128677511D01*
X144627265Y-128608353D01*
X144629112Y-128598408D01*
X144643810Y-128534007D01*
X144643810Y-128534006D01*
X144641262Y-128500006D01*
X150404700Y-128500006D01*
X150423864Y-128731297D01*
X150423866Y-128731308D01*
X150480842Y-128956300D01*
X150574075Y-129168848D01*
X150701016Y-129363147D01*
X150701019Y-129363151D01*
X150701021Y-129363153D01*
X150858216Y-129533913D01*
X150858219Y-129533915D01*
X150858222Y-129533918D01*
X151041365Y-129676464D01*
X151041371Y-129676468D01*
X151041374Y-129676470D01*
X151245497Y-129786936D01*
X151359487Y-129826068D01*
X151465015Y-129862297D01*
X151465017Y-129862297D01*
X151465019Y-129862298D01*
X151693951Y-129900500D01*
X151693952Y-129900500D01*
X151926048Y-129900500D01*
X151926049Y-129900500D01*
X152154981Y-129862298D01*
X152374503Y-129786936D01*
X152578626Y-129676470D01*
X152761784Y-129533913D01*
X152918979Y-129363153D01*
X153045924Y-129168849D01*
X153139157Y-128956300D01*
X153196134Y-128731305D01*
X153196698Y-128724499D01*
X153215300Y-128500006D01*
X153215300Y-128499993D01*
X153196135Y-128268702D01*
X153196133Y-128268691D01*
X153139157Y-128043699D01*
X153045924Y-127831151D01*
X152918983Y-127636852D01*
X152918980Y-127636849D01*
X152918979Y-127636847D01*
X152761784Y-127466087D01*
X152761779Y-127466083D01*
X152761777Y-127466081D01*
X152578634Y-127323535D01*
X152578628Y-127323531D01*
X152374504Y-127213064D01*
X152374495Y-127213061D01*
X152154984Y-127137702D01*
X151967404Y-127106401D01*
X151926049Y-127099500D01*
X151693951Y-127099500D01*
X151652596Y-127106401D01*
X151465015Y-127137702D01*
X151245504Y-127213061D01*
X151245495Y-127213064D01*
X151041371Y-127323531D01*
X151041365Y-127323535D01*
X150858222Y-127466081D01*
X150858219Y-127466084D01*
X150701016Y-127636852D01*
X150574075Y-127831151D01*
X150480842Y-128043699D01*
X150423866Y-128268691D01*
X150423864Y-128268702D01*
X150404700Y-128499993D01*
X150404700Y-128500006D01*
X144641262Y-128500006D01*
X144632979Y-128389468D01*
X144635079Y-128389310D01*
X144638595Y-128331861D01*
X144679890Y-128275501D01*
X144745101Y-128250413D01*
X144755216Y-128250000D01*
X145590000Y-128250000D01*
X145590000Y-127552172D01*
X145589999Y-127552155D01*
X145583598Y-127492627D01*
X145583596Y-127492620D01*
X145533354Y-127357913D01*
X145533350Y-127357906D01*
X145447190Y-127242812D01*
X145447187Y-127242809D01*
X145332093Y-127156649D01*
X145332086Y-127156645D01*
X145197379Y-127106403D01*
X145197372Y-127106401D01*
X145137844Y-127100000D01*
X144440000Y-127100000D01*
X144440000Y-127938178D01*
X144420315Y-128005217D01*
X144367511Y-128050972D01*
X144298353Y-128060916D01*
X144279454Y-128056670D01*
X144257829Y-128050000D01*
X144257827Y-128050000D01*
X144156276Y-128050000D01*
X144156268Y-128050000D01*
X144082481Y-128061122D01*
X144013256Y-128051649D01*
X143960143Y-128006254D01*
X143940003Y-127939350D01*
X143940000Y-127938507D01*
X143940000Y-127100000D01*
X143242155Y-127100000D01*
X143182627Y-127106401D01*
X143182620Y-127106403D01*
X143047913Y-127156645D01*
X143047906Y-127156649D01*
X142932812Y-127242809D01*
X142932809Y-127242812D01*
X142846649Y-127357906D01*
X142846645Y-127357913D01*
X142796403Y-127492620D01*
X142796401Y-127492627D01*
X142790000Y-127552155D01*
X142790000Y-128250000D01*
X143629997Y-128250000D01*
X143697036Y-128269685D01*
X143742791Y-128322489D01*
X143752735Y-128391647D01*
X143750888Y-128401592D01*
X143736189Y-128465992D01*
X143736189Y-128465993D01*
X143747021Y-128610532D01*
X143744920Y-128610689D01*
X143741405Y-128668139D01*
X143700110Y-128724499D01*
X143634899Y-128749587D01*
X143624784Y-128750000D01*
X142790000Y-128750000D01*
X142790000Y-129447844D01*
X100000500Y-129447844D01*
X100000500Y-126400000D01*
X153694540Y-126400000D01*
X153714326Y-126588256D01*
X153714327Y-126588259D01*
X153772818Y-126768277D01*
X153772821Y-126768284D01*
X153867467Y-126932216D01*
X153994128Y-127072887D01*
X153994129Y-127072888D01*
X154147265Y-127184148D01*
X154147270Y-127184151D01*
X154320192Y-127261142D01*
X154320197Y-127261144D01*
X154505354Y-127300500D01*
X154505355Y-127300500D01*
X154694644Y-127300500D01*
X154694646Y-127300500D01*
X154879803Y-127261144D01*
X155052730Y-127184151D01*
X155205871Y-127072888D01*
X155332533Y-126932216D01*
X155427179Y-126768284D01*
X155485674Y-126588256D01*
X155505460Y-126400000D01*
X155485674Y-126211744D01*
X155427179Y-126031716D01*
X155332533Y-125867784D01*
X155205871Y-125727112D01*
X155205870Y-125727111D01*
X155052734Y-125615851D01*
X155052729Y-125615848D01*
X154879807Y-125538857D01*
X154879802Y-125538855D01*
X154734000Y-125507865D01*
X154694646Y-125499500D01*
X154505354Y-125499500D01*
X154472897Y-125506398D01*
X154320197Y-125538855D01*
X154320192Y-125538857D01*
X154147270Y-125615848D01*
X154147265Y-125615851D01*
X153994129Y-125727111D01*
X153867466Y-125867785D01*
X153772821Y-126031715D01*
X153772818Y-126031722D01*
X153714327Y-126211740D01*
X153714326Y-126211744D01*
X153694540Y-126400000D01*
X100000500Y-126400000D01*
X100000500Y-120500001D01*
X104145274Y-120500001D01*
X104164152Y-120763960D01*
X104220400Y-121022528D01*
X104312884Y-121270487D01*
X104439701Y-121502735D01*
X104439706Y-121502743D01*
X104527038Y-121619405D01*
X104527039Y-121619406D01*
X105139476Y-121006969D01*
X105200799Y-120973484D01*
X105270490Y-120978468D01*
X105321665Y-121014374D01*
X105412008Y-121120734D01*
X105481190Y-121173325D01*
X105522648Y-121229566D01*
X105527117Y-121299293D01*
X105493830Y-121359722D01*
X104880592Y-121972959D01*
X104880592Y-121972960D01*
X104997256Y-122060293D01*
X104997264Y-122060298D01*
X105229513Y-122187115D01*
X105229512Y-122187115D01*
X105477471Y-122279599D01*
X105736039Y-122335847D01*
X105999999Y-122354726D01*
X106000001Y-122354726D01*
X106263960Y-122335847D01*
X106522528Y-122279599D01*
X106770487Y-122187115D01*
X107002735Y-122060298D01*
X107002736Y-122060297D01*
X107119406Y-121972959D01*
X107114317Y-121967870D01*
X115967000Y-121967870D01*
X115967001Y-121967876D01*
X115973408Y-122027483D01*
X116023702Y-122162328D01*
X116023706Y-122162335D01*
X116109952Y-122277544D01*
X116109955Y-122277547D01*
X116225164Y-122363793D01*
X116225171Y-122363797D01*
X116360017Y-122414091D01*
X116360016Y-122414091D01*
X116366944Y-122414835D01*
X116419627Y-122420500D01*
X117959619Y-122420499D01*
X117959627Y-122420500D01*
X120855372Y-122420499D01*
X120914983Y-122414091D01*
X121049831Y-122363796D01*
X121165046Y-122277546D01*
X121251296Y-122162331D01*
X121301591Y-122027483D01*
X121308000Y-121967873D01*
X121307999Y-120972870D01*
X127437000Y-120972870D01*
X127437001Y-120972876D01*
X127443408Y-121032483D01*
X127493702Y-121167328D01*
X127493706Y-121167335D01*
X127579952Y-121282544D01*
X127579955Y-121282547D01*
X127695164Y-121368793D01*
X127695171Y-121368797D01*
X127830017Y-121419091D01*
X127830016Y-121419091D01*
X127836944Y-121419835D01*
X127889627Y-121425500D01*
X129185372Y-121425499D01*
X129244983Y-121419091D01*
X129379831Y-121368796D01*
X129495046Y-121282546D01*
X129581296Y-121167331D01*
X129631591Y-121032483D01*
X129633538Y-121014374D01*
X129637999Y-120972886D01*
X129637999Y-120972882D01*
X129638000Y-120972873D01*
X129637999Y-120922306D01*
X129657682Y-120855270D01*
X129674318Y-120834627D01*
X130074379Y-120434566D01*
X130135702Y-120401081D01*
X130205394Y-120406065D01*
X130261327Y-120447937D01*
X130273060Y-120466974D01*
X130293948Y-120508922D01*
X130376834Y-120584484D01*
X130382988Y-120586868D01*
X130438390Y-120629441D01*
X130461981Y-120695207D01*
X130446270Y-120763288D01*
X130425876Y-120790176D01*
X129956810Y-121259240D01*
X129956811Y-121259241D01*
X130045081Y-121313895D01*
X130045088Y-121313899D01*
X130235178Y-121387539D01*
X130435572Y-121425000D01*
X130639428Y-121425000D01*
X130839821Y-121387539D01*
X131029914Y-121313897D01*
X131118188Y-121259240D01*
X130647763Y-120788815D01*
X130614278Y-120727492D01*
X130619262Y-120657800D01*
X130661134Y-120601867D01*
X130670153Y-120595716D01*
X130743110Y-120550543D01*
X130810701Y-120461038D01*
X130810700Y-120461038D01*
X130817626Y-120451868D01*
X130821040Y-120454446D01*
X130853221Y-120419673D01*
X130920868Y-120402190D01*
X130987228Y-120424056D01*
X131004495Y-120438443D01*
X131474965Y-120908912D01*
X131476747Y-120906552D01*
X131476749Y-120906550D01*
X131567613Y-120724069D01*
X131567616Y-120724063D01*
X131623402Y-120527992D01*
X131623403Y-120527989D01*
X131642213Y-120325000D01*
X131642213Y-120324999D01*
X131623403Y-120122010D01*
X131623402Y-120122007D01*
X131567616Y-119925936D01*
X131567613Y-119925930D01*
X131476744Y-119743441D01*
X131474966Y-119741086D01*
X131474965Y-119741085D01*
X131000619Y-120215432D01*
X130939296Y-120248917D01*
X130869604Y-120243933D01*
X130813671Y-120202061D01*
X130801940Y-120183028D01*
X130781052Y-120141078D01*
X130760133Y-120122007D01*
X130698166Y-120065515D01*
X130698163Y-120065514D01*
X130692007Y-120063129D01*
X130636606Y-120020555D01*
X130613018Y-119954788D01*
X130628731Y-119886708D01*
X130649123Y-119859823D01*
X131118188Y-119390758D01*
X131118187Y-119390757D01*
X131029918Y-119336104D01*
X131029911Y-119336100D01*
X130839821Y-119262460D01*
X130639428Y-119225000D01*
X130435572Y-119225000D01*
X130235178Y-119262460D01*
X130045088Y-119336100D01*
X130045084Y-119336102D01*
X129956810Y-119390758D01*
X130427236Y-119861183D01*
X130460721Y-119922506D01*
X130455737Y-119992197D01*
X130413866Y-120048131D01*
X130404834Y-120054290D01*
X130331890Y-120099456D01*
X130257374Y-120198132D01*
X130253976Y-120195566D01*
X130221597Y-120230435D01*
X130153920Y-120247803D01*
X130087598Y-120225824D01*
X130070504Y-120211557D01*
X129674318Y-119815371D01*
X129640833Y-119754048D01*
X129637999Y-119727690D01*
X129637999Y-119677129D01*
X129637998Y-119677123D01*
X129637997Y-119677116D01*
X129631591Y-119617517D01*
X129581296Y-119482669D01*
X129581295Y-119482668D01*
X129581293Y-119482664D01*
X129495047Y-119367455D01*
X129495044Y-119367452D01*
X129379835Y-119281206D01*
X129379828Y-119281202D01*
X129244982Y-119230908D01*
X129244983Y-119230908D01*
X129185383Y-119224501D01*
X129185381Y-119224500D01*
X129185373Y-119224500D01*
X129185364Y-119224500D01*
X127889629Y-119224500D01*
X127889623Y-119224501D01*
X127830016Y-119230908D01*
X127695171Y-119281202D01*
X127695164Y-119281206D01*
X127579955Y-119367452D01*
X127579952Y-119367455D01*
X127493706Y-119482664D01*
X127493702Y-119482671D01*
X127443408Y-119617517D01*
X127438306Y-119664978D01*
X127437001Y-119677123D01*
X127437000Y-119677135D01*
X127437000Y-120972870D01*
X121307999Y-120972870D01*
X121307999Y-120072128D01*
X121301591Y-120012517D01*
X121294322Y-119993029D01*
X121251297Y-119877671D01*
X121251293Y-119877664D01*
X121165047Y-119762455D01*
X121165044Y-119762452D01*
X121049835Y-119676206D01*
X121049828Y-119676202D01*
X120914982Y-119625908D01*
X120914983Y-119625908D01*
X120855383Y-119619501D01*
X120855381Y-119619500D01*
X120855373Y-119619500D01*
X118315381Y-119619500D01*
X118315373Y-119619500D01*
X116419629Y-119619500D01*
X116419623Y-119619501D01*
X116360016Y-119625908D01*
X116225171Y-119676202D01*
X116225164Y-119676206D01*
X116109955Y-119762452D01*
X116109952Y-119762455D01*
X116023706Y-119877664D01*
X116023702Y-119877671D01*
X115973408Y-120012517D01*
X115967967Y-120063129D01*
X115967001Y-120072123D01*
X115967000Y-120072135D01*
X115967000Y-121967870D01*
X107114317Y-121967870D01*
X106509745Y-121363299D01*
X106476260Y-121301976D01*
X106481244Y-121232285D01*
X106514609Y-121187466D01*
X106512550Y-121185292D01*
X106517429Y-121180669D01*
X106517431Y-121180669D01*
X106651658Y-121053523D01*
X106670652Y-121025508D01*
X106724562Y-120981067D01*
X106793944Y-120972827D01*
X106856767Y-121003405D01*
X106860966Y-121007413D01*
X107472959Y-121619406D01*
X107560297Y-121502736D01*
X107560298Y-121502735D01*
X107687115Y-121270487D01*
X107779599Y-121022528D01*
X107835847Y-120763960D01*
X107854726Y-120500001D01*
X107854726Y-120499998D01*
X107835847Y-120236039D01*
X107779599Y-119977471D01*
X107687115Y-119729512D01*
X107560298Y-119497264D01*
X107560293Y-119497256D01*
X107472960Y-119380593D01*
X107472959Y-119380592D01*
X106860523Y-119993029D01*
X106799200Y-120026514D01*
X106729508Y-120021530D01*
X106678334Y-119985624D01*
X106587990Y-119879264D01*
X106518807Y-119826672D01*
X106477350Y-119770431D01*
X106472881Y-119700704D01*
X106506168Y-119640276D01*
X107119406Y-119027038D01*
X107002743Y-118939706D01*
X107002735Y-118939701D01*
X106770486Y-118812884D01*
X106770487Y-118812884D01*
X106522528Y-118720400D01*
X106263960Y-118664152D01*
X106000001Y-118645274D01*
X105999999Y-118645274D01*
X105736039Y-118664152D01*
X105477471Y-118720400D01*
X105229512Y-118812884D01*
X104997264Y-118939701D01*
X104880593Y-119027039D01*
X105490254Y-119636700D01*
X105523739Y-119698023D01*
X105518755Y-119767715D01*
X105485444Y-119812589D01*
X105487450Y-119814707D01*
X105348342Y-119946476D01*
X105329347Y-119974493D01*
X105275433Y-120018933D01*
X105206050Y-120027171D01*
X105143228Y-119996590D01*
X105139033Y-119992586D01*
X104527039Y-119380593D01*
X104439701Y-119497264D01*
X104312884Y-119729512D01*
X104220400Y-119977471D01*
X104164152Y-120236039D01*
X104145274Y-120499998D01*
X104145274Y-120500001D01*
X100000500Y-120500001D01*
X100000500Y-116650015D01*
X104149500Y-116650015D01*
X104160000Y-116752795D01*
X104160001Y-116752796D01*
X104215186Y-116919335D01*
X104215187Y-116919337D01*
X104307286Y-117068651D01*
X104307289Y-117068655D01*
X104431344Y-117192710D01*
X104431348Y-117192713D01*
X104580662Y-117284812D01*
X104580664Y-117284813D01*
X104580666Y-117284814D01*
X104747203Y-117339999D01*
X104849992Y-117350500D01*
X104849997Y-117350500D01*
X107150003Y-117350500D01*
X107150008Y-117350500D01*
X107252797Y-117339999D01*
X107419334Y-117284814D01*
X107568655Y-117192711D01*
X107692711Y-117068655D01*
X107784814Y-116919334D01*
X107839999Y-116752797D01*
X107850500Y-116650008D01*
X107850500Y-115547870D01*
X127464401Y-115547870D01*
X127464402Y-115547876D01*
X127470809Y-115607483D01*
X127521103Y-115742328D01*
X127521107Y-115742335D01*
X127607353Y-115857544D01*
X127607356Y-115857547D01*
X127722565Y-115943793D01*
X127722572Y-115943797D01*
X127857418Y-115994091D01*
X127857417Y-115994091D01*
X127864345Y-115994835D01*
X127917028Y-116000500D01*
X129212773Y-116000499D01*
X129272384Y-115994091D01*
X129407232Y-115943796D01*
X129522447Y-115857546D01*
X129608697Y-115742331D01*
X129658992Y-115607483D01*
X129665401Y-115547873D01*
X129665400Y-115497306D01*
X129685083Y-115430270D01*
X129701719Y-115409627D01*
X130101780Y-115009566D01*
X130163103Y-114976081D01*
X130232795Y-114981065D01*
X130288728Y-115022937D01*
X130300461Y-115041974D01*
X130321349Y-115083922D01*
X130404235Y-115159484D01*
X130410389Y-115161868D01*
X130465791Y-115204441D01*
X130489382Y-115270207D01*
X130473671Y-115338288D01*
X130453277Y-115365176D01*
X129984211Y-115834240D01*
X129984212Y-115834241D01*
X130072482Y-115888895D01*
X130072489Y-115888899D01*
X130262579Y-115962539D01*
X130462973Y-116000000D01*
X130666829Y-116000000D01*
X130867222Y-115962539D01*
X131057315Y-115888897D01*
X131145589Y-115834240D01*
X130911349Y-115600000D01*
X151494540Y-115600000D01*
X151514326Y-115788256D01*
X151514327Y-115788259D01*
X151572818Y-115968277D01*
X151572821Y-115968284D01*
X151667467Y-116132216D01*
X151794128Y-116272887D01*
X151794129Y-116272888D01*
X151947265Y-116384148D01*
X151947270Y-116384151D01*
X152120192Y-116461142D01*
X152120197Y-116461144D01*
X152305354Y-116500500D01*
X152305355Y-116500500D01*
X152494644Y-116500500D01*
X152494646Y-116500500D01*
X152679803Y-116461144D01*
X152852730Y-116384151D01*
X153005871Y-116272888D01*
X153132533Y-116132216D01*
X153227179Y-115968284D01*
X153285674Y-115788256D01*
X153305460Y-115600000D01*
X153285674Y-115411744D01*
X153227179Y-115231716D01*
X153132533Y-115067784D01*
X153005871Y-114927112D01*
X153005870Y-114927111D01*
X152852734Y-114815851D01*
X152852729Y-114815848D01*
X152679807Y-114738857D01*
X152679802Y-114738855D01*
X152534001Y-114707865D01*
X152494646Y-114699500D01*
X152305354Y-114699500D01*
X152272897Y-114706398D01*
X152120197Y-114738855D01*
X152120192Y-114738857D01*
X151947270Y-114815848D01*
X151947265Y-114815851D01*
X151794129Y-114927111D01*
X151667466Y-115067785D01*
X151572821Y-115231715D01*
X151572818Y-115231722D01*
X151515014Y-115409627D01*
X151514326Y-115411744D01*
X151494540Y-115600000D01*
X130911349Y-115600000D01*
X130675164Y-115363815D01*
X130641679Y-115302492D01*
X130646663Y-115232800D01*
X130688535Y-115176867D01*
X130697554Y-115170716D01*
X130770511Y-115125543D01*
X130838102Y-115036038D01*
X130838101Y-115036038D01*
X130845027Y-115026868D01*
X130848441Y-115029446D01*
X130880622Y-114994673D01*
X130948269Y-114977190D01*
X131014629Y-114999056D01*
X131031896Y-115013443D01*
X131502366Y-115483912D01*
X131504148Y-115481552D01*
X131504150Y-115481550D01*
X131595014Y-115299069D01*
X131595017Y-115299063D01*
X131650803Y-115102992D01*
X131650804Y-115102989D01*
X131669614Y-114900000D01*
X131669614Y-114899999D01*
X131650804Y-114697010D01*
X131650803Y-114697007D01*
X131595017Y-114500936D01*
X131595014Y-114500930D01*
X131504145Y-114318441D01*
X131502367Y-114316086D01*
X131502366Y-114316085D01*
X131028020Y-114790432D01*
X130966697Y-114823917D01*
X130897005Y-114818933D01*
X130841072Y-114777061D01*
X130829341Y-114758028D01*
X130808453Y-114716078D01*
X130808451Y-114716076D01*
X130725567Y-114640515D01*
X130719409Y-114638130D01*
X130664008Y-114595557D01*
X130640418Y-114529790D01*
X130656130Y-114461710D01*
X130676523Y-114434823D01*
X131145589Y-113965758D01*
X131145588Y-113965757D01*
X131057319Y-113911104D01*
X131057312Y-113911100D01*
X130867222Y-113837460D01*
X130666829Y-113800000D01*
X130462973Y-113800000D01*
X130262579Y-113837460D01*
X130072489Y-113911100D01*
X130072485Y-113911102D01*
X129984211Y-113965758D01*
X130454637Y-114436184D01*
X130488122Y-114497507D01*
X130483138Y-114567199D01*
X130441266Y-114623132D01*
X130432234Y-114629291D01*
X130359292Y-114674455D01*
X130359291Y-114674455D01*
X130284775Y-114773132D01*
X130281377Y-114770566D01*
X130248998Y-114805435D01*
X130181321Y-114822803D01*
X130114999Y-114800824D01*
X130097905Y-114786557D01*
X129701719Y-114390371D01*
X129668234Y-114329048D01*
X129665400Y-114302690D01*
X129665400Y-114252129D01*
X129665399Y-114252123D01*
X129665398Y-114252116D01*
X129658992Y-114192517D01*
X129652676Y-114175584D01*
X129608698Y-114057671D01*
X129608694Y-114057664D01*
X129522448Y-113942455D01*
X129522445Y-113942452D01*
X129407236Y-113856206D01*
X129407229Y-113856202D01*
X129272383Y-113805908D01*
X129272384Y-113805908D01*
X129212784Y-113799501D01*
X129212782Y-113799500D01*
X129212774Y-113799500D01*
X129212765Y-113799500D01*
X127917030Y-113799500D01*
X127917024Y-113799501D01*
X127857417Y-113805908D01*
X127722572Y-113856202D01*
X127722565Y-113856206D01*
X127607356Y-113942452D01*
X127607353Y-113942455D01*
X127521107Y-114057664D01*
X127521103Y-114057671D01*
X127470809Y-114192517D01*
X127464930Y-114247203D01*
X127464402Y-114252123D01*
X127464401Y-114252135D01*
X127464401Y-115547870D01*
X107850500Y-115547870D01*
X107850500Y-114349992D01*
X107839999Y-114247203D01*
X107784814Y-114080666D01*
X107777525Y-114068849D01*
X107692713Y-113931348D01*
X107692710Y-113931344D01*
X107568655Y-113807289D01*
X107568651Y-113807286D01*
X107419337Y-113715187D01*
X107419335Y-113715186D01*
X107336065Y-113687593D01*
X107252797Y-113660001D01*
X107252795Y-113660000D01*
X107150015Y-113649500D01*
X107150008Y-113649500D01*
X104849992Y-113649500D01*
X104849984Y-113649500D01*
X104747204Y-113660000D01*
X104747203Y-113660001D01*
X104580664Y-113715186D01*
X104580662Y-113715187D01*
X104431348Y-113807286D01*
X104431344Y-113807289D01*
X104307289Y-113931344D01*
X104307286Y-113931348D01*
X104215187Y-114080662D01*
X104215186Y-114080664D01*
X104160001Y-114247203D01*
X104160000Y-114247204D01*
X104149500Y-114349984D01*
X104149500Y-116650015D01*
X100000500Y-116650015D01*
X100000500Y-113400006D01*
X115962200Y-113400006D01*
X115981364Y-113631297D01*
X115981366Y-113631308D01*
X116038342Y-113856300D01*
X116131575Y-114068848D01*
X116258516Y-114263147D01*
X116258518Y-114263149D01*
X116258521Y-114263153D01*
X116415716Y-114433913D01*
X116415719Y-114433915D01*
X116415722Y-114433918D01*
X116598865Y-114576464D01*
X116598871Y-114576468D01*
X116598874Y-114576470D01*
X116802997Y-114686936D01*
X116832342Y-114697010D01*
X117022515Y-114762297D01*
X117022517Y-114762297D01*
X117022519Y-114762298D01*
X117251451Y-114800500D01*
X117251452Y-114800500D01*
X117483548Y-114800500D01*
X117483549Y-114800500D01*
X117712481Y-114762298D01*
X117932003Y-114686936D01*
X118136126Y-114576470D01*
X118148038Y-114567199D01*
X118316366Y-114436184D01*
X118319284Y-114433913D01*
X118476479Y-114263153D01*
X118533692Y-114175580D01*
X118586835Y-114130226D01*
X118656066Y-114120802D01*
X118719403Y-114150303D01*
X118741308Y-114175582D01*
X118798517Y-114263148D01*
X118798521Y-114263153D01*
X118955716Y-114433913D01*
X118955719Y-114433915D01*
X118955722Y-114433918D01*
X119138865Y-114576464D01*
X119138871Y-114576468D01*
X119138874Y-114576470D01*
X119342997Y-114686936D01*
X119372342Y-114697010D01*
X119562515Y-114762297D01*
X119562517Y-114762297D01*
X119562519Y-114762298D01*
X119791451Y-114800500D01*
X119791452Y-114800500D01*
X120023548Y-114800500D01*
X120023549Y-114800500D01*
X120252481Y-114762298D01*
X120472003Y-114686936D01*
X120676126Y-114576470D01*
X120688038Y-114567199D01*
X120856366Y-114436184D01*
X120859284Y-114433913D01*
X121016479Y-114263153D01*
X121143424Y-114068849D01*
X121236657Y-113856300D01*
X121293634Y-113631305D01*
X121312800Y-113400000D01*
X121312800Y-113399993D01*
X121293635Y-113168702D01*
X121293633Y-113168691D01*
X121236657Y-112943699D01*
X121143424Y-112731151D01*
X121016483Y-112536852D01*
X121016480Y-112536849D01*
X121016479Y-112536847D01*
X120890503Y-112400000D01*
X151894540Y-112400000D01*
X151914326Y-112588256D01*
X151914327Y-112588259D01*
X151972818Y-112768277D01*
X151972821Y-112768284D01*
X152067467Y-112932216D01*
X152194128Y-113072887D01*
X152194129Y-113072888D01*
X152347265Y-113184148D01*
X152347270Y-113184151D01*
X152520192Y-113261142D01*
X152520197Y-113261144D01*
X152705354Y-113300500D01*
X152705355Y-113300500D01*
X152894644Y-113300500D01*
X152894646Y-113300500D01*
X153079803Y-113261144D01*
X153252730Y-113184151D01*
X153405871Y-113072888D01*
X153532533Y-112932216D01*
X153627179Y-112768284D01*
X153685674Y-112588256D01*
X153705460Y-112400000D01*
X153685674Y-112211744D01*
X153627179Y-112031716D01*
X153532533Y-111867784D01*
X153405871Y-111727112D01*
X153405870Y-111727111D01*
X153252734Y-111615851D01*
X153252729Y-111615848D01*
X153079807Y-111538857D01*
X153079802Y-111538855D01*
X152934001Y-111507865D01*
X152894646Y-111499500D01*
X152705354Y-111499500D01*
X152672897Y-111506398D01*
X152520197Y-111538855D01*
X152520192Y-111538857D01*
X152347270Y-111615848D01*
X152347265Y-111615851D01*
X152194129Y-111727111D01*
X152067466Y-111867785D01*
X151972821Y-112031715D01*
X151972818Y-112031722D01*
X151946390Y-112113061D01*
X151914326Y-112211744D01*
X151894540Y-112400000D01*
X120890503Y-112400000D01*
X120859284Y-112366087D01*
X120859279Y-112366083D01*
X120859277Y-112366081D01*
X120676134Y-112223535D01*
X120676128Y-112223531D01*
X120472004Y-112113064D01*
X120471995Y-112113061D01*
X120252484Y-112037702D01*
X120080781Y-112009050D01*
X120023549Y-111999500D01*
X119791451Y-111999500D01*
X119745664Y-112007140D01*
X119562515Y-112037702D01*
X119343004Y-112113061D01*
X119342995Y-112113064D01*
X119138871Y-112223531D01*
X119138865Y-112223535D01*
X118955722Y-112366081D01*
X118955719Y-112366084D01*
X118798515Y-112536854D01*
X118741307Y-112624417D01*
X118688160Y-112669774D01*
X118618929Y-112679197D01*
X118555594Y-112649694D01*
X118533691Y-112624417D01*
X118476484Y-112536854D01*
X118476483Y-112536852D01*
X118476480Y-112536849D01*
X118476479Y-112536847D01*
X118319284Y-112366087D01*
X118319279Y-112366083D01*
X118319277Y-112366081D01*
X118136134Y-112223535D01*
X118136128Y-112223531D01*
X117932004Y-112113064D01*
X117931995Y-112113061D01*
X117712484Y-112037702D01*
X117540782Y-112009050D01*
X117483549Y-111999500D01*
X117251451Y-111999500D01*
X117205664Y-112007140D01*
X117022515Y-112037702D01*
X116803004Y-112113061D01*
X116802995Y-112113064D01*
X116598871Y-112223531D01*
X116598865Y-112223535D01*
X116415722Y-112366081D01*
X116415719Y-112366084D01*
X116258516Y-112536852D01*
X116131575Y-112731151D01*
X116038342Y-112943699D01*
X115981366Y-113168691D01*
X115981364Y-113168702D01*
X115962200Y-113399993D01*
X115962200Y-113400006D01*
X100000500Y-113400006D01*
X100000500Y-110347870D01*
X114654500Y-110347870D01*
X114654501Y-110347876D01*
X114660908Y-110407483D01*
X114711202Y-110542328D01*
X114711206Y-110542335D01*
X114797452Y-110657544D01*
X114797455Y-110657547D01*
X114912664Y-110743793D01*
X114912671Y-110743797D01*
X115047517Y-110794091D01*
X115047516Y-110794091D01*
X115054444Y-110794835D01*
X115107127Y-110800500D01*
X117002872Y-110800499D01*
X117062483Y-110794091D01*
X117197331Y-110743796D01*
X117312546Y-110657546D01*
X117398796Y-110542331D01*
X117449091Y-110407483D01*
X117455500Y-110347873D01*
X117455500Y-109400006D01*
X122269700Y-109400006D01*
X122288864Y-109631297D01*
X122288866Y-109631308D01*
X122345842Y-109856300D01*
X122439075Y-110068848D01*
X122566016Y-110263147D01*
X122566019Y-110263151D01*
X122566021Y-110263153D01*
X122723216Y-110433913D01*
X122723219Y-110433915D01*
X122723222Y-110433918D01*
X122906365Y-110576464D01*
X122906371Y-110576468D01*
X122906374Y-110576470D01*
X123110497Y-110686936D01*
X123224487Y-110726068D01*
X123330015Y-110762297D01*
X123330017Y-110762297D01*
X123330019Y-110762298D01*
X123558951Y-110800500D01*
X123558952Y-110800500D01*
X123791048Y-110800500D01*
X123791049Y-110800500D01*
X124019981Y-110762298D01*
X124239503Y-110686936D01*
X124443626Y-110576470D01*
X124626784Y-110433913D01*
X124783979Y-110263153D01*
X124910924Y-110068849D01*
X125004157Y-109856300D01*
X125061134Y-109631305D01*
X125080300Y-109400000D01*
X125080300Y-109399993D01*
X125061135Y-109168702D01*
X125061133Y-109168691D01*
X125004157Y-108943699D01*
X124910924Y-108731151D01*
X124783983Y-108536852D01*
X124783980Y-108536849D01*
X124783979Y-108536847D01*
X124626784Y-108366087D01*
X124626779Y-108366083D01*
X124626777Y-108366081D01*
X124443634Y-108223535D01*
X124443628Y-108223531D01*
X124239504Y-108113064D01*
X124239495Y-108113061D01*
X124019984Y-108037702D01*
X123829450Y-108005908D01*
X123791049Y-107999500D01*
X123558951Y-107999500D01*
X123520550Y-108005908D01*
X123330015Y-108037702D01*
X123110504Y-108113061D01*
X123110495Y-108113064D01*
X122906371Y-108223531D01*
X122906365Y-108223535D01*
X122723222Y-108366081D01*
X122723219Y-108366084D01*
X122723216Y-108366086D01*
X122723216Y-108366087D01*
X122698886Y-108392517D01*
X122566016Y-108536852D01*
X122439075Y-108731151D01*
X122345842Y-108943699D01*
X122288866Y-109168691D01*
X122288864Y-109168702D01*
X122269700Y-109399993D01*
X122269700Y-109400006D01*
X117455500Y-109400006D01*
X117455499Y-108452128D01*
X117449091Y-108392517D01*
X117439233Y-108366087D01*
X117398797Y-108257671D01*
X117398793Y-108257664D01*
X117312547Y-108142455D01*
X117312544Y-108142452D01*
X117197335Y-108056206D01*
X117197328Y-108056202D01*
X117062482Y-108005908D01*
X117062483Y-108005908D01*
X117002883Y-107999501D01*
X117002881Y-107999500D01*
X117002873Y-107999500D01*
X117002864Y-107999500D01*
X115107129Y-107999500D01*
X115107123Y-107999501D01*
X115047516Y-108005908D01*
X114912671Y-108056202D01*
X114912664Y-108056206D01*
X114797455Y-108142452D01*
X114797452Y-108142455D01*
X114711206Y-108257664D01*
X114711202Y-108257671D01*
X114660908Y-108392517D01*
X114654501Y-108452116D01*
X114654501Y-108452123D01*
X114654500Y-108452135D01*
X114654500Y-110347870D01*
X100000500Y-110347870D01*
X100000500Y-104999999D01*
X101294922Y-104999999D01*
X101315219Y-105387287D01*
X101375886Y-105770323D01*
X101375887Y-105770330D01*
X101476262Y-106144936D01*
X101615244Y-106506994D01*
X101791310Y-106852543D01*
X102002531Y-107177793D01*
X102211095Y-107435350D01*
X102211096Y-107435350D01*
X102874250Y-106772195D01*
X102935573Y-106738710D01*
X103005264Y-106743694D01*
X103061198Y-106785565D01*
X103065033Y-106790985D01*
X103067448Y-106794600D01*
X103067449Y-106794601D01*
X103122704Y-106877296D01*
X103156672Y-106899993D01*
X103209012Y-106934965D01*
X103253818Y-106988577D01*
X103262525Y-107057902D01*
X103232371Y-107120929D01*
X103227803Y-107125748D01*
X102564648Y-107788902D01*
X102564649Y-107788904D01*
X102822206Y-107997468D01*
X103147456Y-108208689D01*
X103493005Y-108384755D01*
X103855063Y-108523737D01*
X104229669Y-108624112D01*
X104229676Y-108624113D01*
X104612712Y-108684780D01*
X104999999Y-108705078D01*
X105000001Y-108705078D01*
X105387287Y-108684780D01*
X105770323Y-108624113D01*
X105770330Y-108624112D01*
X106144936Y-108523737D01*
X106506994Y-108384755D01*
X106852543Y-108208689D01*
X107177783Y-107997476D01*
X107177785Y-107997475D01*
X107362530Y-107847870D01*
X126197000Y-107847870D01*
X126197001Y-107847876D01*
X126203408Y-107907483D01*
X126253702Y-108042328D01*
X126253706Y-108042335D01*
X126339952Y-108157544D01*
X126339955Y-108157547D01*
X126455164Y-108243793D01*
X126455171Y-108243797D01*
X126590017Y-108294091D01*
X126590016Y-108294091D01*
X126596944Y-108294835D01*
X126649627Y-108300500D01*
X128545372Y-108300499D01*
X128604983Y-108294091D01*
X128739831Y-108243796D01*
X128855046Y-108157546D01*
X128941296Y-108042331D01*
X128969954Y-107965493D01*
X129011826Y-107909559D01*
X129077290Y-107885141D01*
X129145563Y-107899992D01*
X129177366Y-107924843D01*
X129184802Y-107932920D01*
X129185715Y-107933912D01*
X129185722Y-107933918D01*
X129368865Y-108076464D01*
X129368871Y-108076468D01*
X129368874Y-108076470D01*
X129572997Y-108186936D01*
X129679592Y-108223530D01*
X129792515Y-108262297D01*
X129792517Y-108262297D01*
X129792519Y-108262298D01*
X130021451Y-108300500D01*
X130021452Y-108300500D01*
X130253548Y-108300500D01*
X130253549Y-108300500D01*
X130482481Y-108262298D01*
X130702003Y-108186936D01*
X130906126Y-108076470D01*
X130932167Y-108056202D01*
X131007628Y-107997468D01*
X131089284Y-107933913D01*
X131246479Y-107763153D01*
X131373424Y-107568849D01*
X131466657Y-107356300D01*
X131523634Y-107131305D01*
X131523635Y-107131297D01*
X131542800Y-106900006D01*
X131542800Y-106899993D01*
X131523635Y-106668702D01*
X131523633Y-106668691D01*
X131466657Y-106443699D01*
X131373424Y-106231151D01*
X131246483Y-106036852D01*
X131246480Y-106036849D01*
X131246479Y-106036847D01*
X131089284Y-105866087D01*
X131089279Y-105866083D01*
X131089277Y-105866081D01*
X130906134Y-105723535D01*
X130906128Y-105723531D01*
X130702004Y-105613064D01*
X130701995Y-105613061D01*
X130482484Y-105537702D01*
X130291950Y-105505908D01*
X130253549Y-105499500D01*
X130021451Y-105499500D01*
X129983050Y-105505908D01*
X129792515Y-105537702D01*
X129573004Y-105613061D01*
X129572995Y-105613064D01*
X129368871Y-105723531D01*
X129368865Y-105723535D01*
X129185722Y-105866081D01*
X129185718Y-105866085D01*
X129177366Y-105875158D01*
X129117479Y-105911148D01*
X129047641Y-105909047D01*
X128990025Y-105869522D01*
X128969955Y-105834507D01*
X128941297Y-105757671D01*
X128941293Y-105757664D01*
X128855047Y-105642455D01*
X128855044Y-105642452D01*
X128739835Y-105556206D01*
X128739828Y-105556202D01*
X128604982Y-105505908D01*
X128604983Y-105505908D01*
X128545383Y-105499501D01*
X128545381Y-105499500D01*
X128545373Y-105499500D01*
X128545364Y-105499500D01*
X126649629Y-105499500D01*
X126649623Y-105499501D01*
X126590016Y-105505908D01*
X126455171Y-105556202D01*
X126455164Y-105556206D01*
X126339955Y-105642452D01*
X126339952Y-105642455D01*
X126253706Y-105757664D01*
X126253702Y-105757671D01*
X126203408Y-105892517D01*
X126197001Y-105952116D01*
X126197000Y-105952135D01*
X126197000Y-107847870D01*
X107362530Y-107847870D01*
X107435349Y-107788902D01*
X106772196Y-107125749D01*
X106738711Y-107064426D01*
X106743695Y-106994734D01*
X106785567Y-106938801D01*
X106790986Y-106934966D01*
X106794599Y-106932551D01*
X106794601Y-106932551D01*
X106877296Y-106877296D01*
X106932551Y-106794601D01*
X106932551Y-106794599D01*
X106934966Y-106790986D01*
X106988578Y-106746181D01*
X107057903Y-106737474D01*
X107120930Y-106767628D01*
X107125749Y-106772196D01*
X107788902Y-107435349D01*
X107997475Y-107177785D01*
X107997476Y-107177783D01*
X108208689Y-106852543D01*
X108384755Y-106506994D01*
X108523737Y-106144936D01*
X108624112Y-105770330D01*
X108624113Y-105770323D01*
X108684780Y-105387287D01*
X108702457Y-105050001D01*
X134994390Y-105050001D01*
X135014804Y-105335433D01*
X135075628Y-105615037D01*
X135075630Y-105615043D01*
X135075631Y-105615046D01*
X135169264Y-105866084D01*
X135175635Y-105883166D01*
X135312770Y-106134309D01*
X135312775Y-106134317D01*
X135484254Y-106363387D01*
X135484270Y-106363405D01*
X135686594Y-106565729D01*
X135686612Y-106565745D01*
X135915682Y-106737224D01*
X135915690Y-106737229D01*
X136166833Y-106874364D01*
X136166832Y-106874364D01*
X136166836Y-106874365D01*
X136166839Y-106874367D01*
X136434954Y-106974369D01*
X136434960Y-106974370D01*
X136434962Y-106974371D01*
X136714566Y-107035195D01*
X136714568Y-107035195D01*
X136714572Y-107035196D01*
X136968220Y-107053337D01*
X136999999Y-107055610D01*
X137000000Y-107055610D01*
X137000001Y-107055610D01*
X137028595Y-107053564D01*
X137285428Y-107035196D01*
X137447227Y-106999999D01*
X137565037Y-106974371D01*
X137565037Y-106974370D01*
X137565046Y-106974369D01*
X137833161Y-106874367D01*
X138084315Y-106737226D01*
X138313395Y-106565739D01*
X138515739Y-106363395D01*
X138687226Y-106134315D01*
X138824367Y-105883161D01*
X138924369Y-105615046D01*
X138948110Y-105505909D01*
X138985195Y-105335433D01*
X138985195Y-105335432D01*
X138985196Y-105335428D01*
X139005610Y-105050001D01*
X139994390Y-105050001D01*
X140014804Y-105335433D01*
X140075628Y-105615037D01*
X140075630Y-105615043D01*
X140075631Y-105615046D01*
X140169264Y-105866084D01*
X140175635Y-105883166D01*
X140312770Y-106134309D01*
X140312775Y-106134317D01*
X140484254Y-106363387D01*
X140484270Y-106363405D01*
X140686594Y-106565729D01*
X140686612Y-106565745D01*
X140915682Y-106737224D01*
X140915690Y-106737229D01*
X141166833Y-106874364D01*
X141166832Y-106874364D01*
X141166836Y-106874365D01*
X141166839Y-106874367D01*
X141434954Y-106974369D01*
X141434960Y-106974370D01*
X141434962Y-106974371D01*
X141714566Y-107035195D01*
X141714568Y-107035195D01*
X141714572Y-107035196D01*
X141968220Y-107053337D01*
X141999999Y-107055610D01*
X142000000Y-107055610D01*
X142000001Y-107055610D01*
X142028595Y-107053564D01*
X142285428Y-107035196D01*
X142447227Y-106999999D01*
X142565037Y-106974371D01*
X142565037Y-106974370D01*
X142565046Y-106974369D01*
X142833161Y-106874367D01*
X143084315Y-106737226D01*
X143270473Y-106597870D01*
X144999500Y-106597870D01*
X144999501Y-106597876D01*
X145005908Y-106657483D01*
X145056202Y-106792328D01*
X145056206Y-106792335D01*
X145142452Y-106907544D01*
X145142455Y-106907547D01*
X145257664Y-106993793D01*
X145257671Y-106993797D01*
X145392517Y-107044091D01*
X145392516Y-107044091D01*
X145399444Y-107044835D01*
X145452127Y-107050500D01*
X148547872Y-107050499D01*
X148607483Y-107044091D01*
X148742331Y-106993796D01*
X148857546Y-106907546D01*
X148943796Y-106792331D01*
X148994091Y-106657483D01*
X149000500Y-106597873D01*
X149000499Y-104999999D01*
X156994390Y-104999999D01*
X157014804Y-105285433D01*
X157075628Y-105565037D01*
X157075630Y-105565043D01*
X157075631Y-105565046D01*
X157106521Y-105647864D01*
X157175635Y-105833166D01*
X157312770Y-106084309D01*
X157312775Y-106084317D01*
X157484254Y-106313387D01*
X157484270Y-106313405D01*
X157686594Y-106515729D01*
X157686612Y-106515745D01*
X157915682Y-106687224D01*
X157915690Y-106687229D01*
X158166833Y-106824364D01*
X158166832Y-106824364D01*
X158166836Y-106824365D01*
X158166839Y-106824367D01*
X158434954Y-106924369D01*
X158434960Y-106924370D01*
X158434962Y-106924371D01*
X158714566Y-106985195D01*
X158714568Y-106985195D01*
X158714572Y-106985196D01*
X158968220Y-107003337D01*
X158999999Y-107005610D01*
X159000000Y-107005610D01*
X159000001Y-107005610D01*
X159028595Y-107003564D01*
X159285428Y-106985196D01*
X159460756Y-106947056D01*
X159565037Y-106924371D01*
X159565037Y-106924370D01*
X159565046Y-106924369D01*
X159833161Y-106824367D01*
X160084315Y-106687226D01*
X160313395Y-106515739D01*
X160515739Y-106313395D01*
X160687226Y-106084315D01*
X160824367Y-105833161D01*
X160924369Y-105565046D01*
X160985196Y-105285428D01*
X161005610Y-105000000D01*
X161005610Y-104999999D01*
X161994390Y-104999999D01*
X162014804Y-105285433D01*
X162075628Y-105565037D01*
X162075630Y-105565043D01*
X162075631Y-105565046D01*
X162106521Y-105647864D01*
X162175635Y-105833166D01*
X162312770Y-106084309D01*
X162312775Y-106084317D01*
X162484254Y-106313387D01*
X162484270Y-106313405D01*
X162686594Y-106515729D01*
X162686612Y-106515745D01*
X162915682Y-106687224D01*
X162915690Y-106687229D01*
X163166833Y-106824364D01*
X163166832Y-106824364D01*
X163166836Y-106824365D01*
X163166839Y-106824367D01*
X163434954Y-106924369D01*
X163434960Y-106924370D01*
X163434962Y-106924371D01*
X163714566Y-106985195D01*
X163714568Y-106985195D01*
X163714572Y-106985196D01*
X163968220Y-107003337D01*
X163999999Y-107005610D01*
X164000000Y-107005610D01*
X164000001Y-107005610D01*
X164028595Y-107003564D01*
X164285428Y-106985196D01*
X164460756Y-106947056D01*
X164565037Y-106924371D01*
X164565037Y-106924370D01*
X164565046Y-106924369D01*
X164833161Y-106824367D01*
X165084315Y-106687226D01*
X165270508Y-106547844D01*
X167000000Y-106547844D01*
X167006401Y-106607372D01*
X167006403Y-106607379D01*
X167056645Y-106742086D01*
X167056649Y-106742093D01*
X167142809Y-106857187D01*
X167142812Y-106857190D01*
X167257906Y-106943350D01*
X167257913Y-106943354D01*
X167392620Y-106993596D01*
X167392627Y-106993598D01*
X167452155Y-106999999D01*
X167452172Y-107000000D01*
X168750000Y-107000000D01*
X168750000Y-105713658D01*
X168769685Y-105646619D01*
X168822489Y-105600864D01*
X168890184Y-105590719D01*
X168960677Y-105600000D01*
X168960684Y-105600000D01*
X169039316Y-105600000D01*
X169039323Y-105600000D01*
X169109815Y-105590719D01*
X169178849Y-105601484D01*
X169231105Y-105647864D01*
X169250000Y-105713658D01*
X169250000Y-107000000D01*
X170547828Y-107000000D01*
X170547844Y-106999999D01*
X170607372Y-106993598D01*
X170607379Y-106993596D01*
X170742086Y-106943354D01*
X170742093Y-106943350D01*
X170857187Y-106857190D01*
X170857190Y-106857187D01*
X170943350Y-106742093D01*
X170943354Y-106742086D01*
X170993596Y-106607379D01*
X170993598Y-106607372D01*
X170999999Y-106547844D01*
X171000000Y-106547827D01*
X171000000Y-105250000D01*
X169713658Y-105250000D01*
X169646619Y-105230315D01*
X169600864Y-105177511D01*
X169590719Y-105109816D01*
X169605177Y-105000000D01*
X169605177Y-104999999D01*
X176294922Y-104999999D01*
X176315219Y-105387287D01*
X176375886Y-105770323D01*
X176375887Y-105770330D01*
X176476262Y-106144936D01*
X176615244Y-106506994D01*
X176791310Y-106852543D01*
X177002531Y-107177793D01*
X177211095Y-107435350D01*
X177211096Y-107435350D01*
X177874250Y-106772195D01*
X177935573Y-106738710D01*
X178005264Y-106743694D01*
X178061198Y-106785565D01*
X178065033Y-106790985D01*
X178067448Y-106794600D01*
X178067449Y-106794601D01*
X178122704Y-106877296D01*
X178156672Y-106899993D01*
X178209012Y-106934965D01*
X178253818Y-106988577D01*
X178262525Y-107057902D01*
X178232371Y-107120929D01*
X178227803Y-107125748D01*
X177564648Y-107788902D01*
X177564649Y-107788904D01*
X177822206Y-107997468D01*
X178147456Y-108208689D01*
X178493005Y-108384755D01*
X178855063Y-108523737D01*
X179229669Y-108624112D01*
X179229676Y-108624113D01*
X179612712Y-108684780D01*
X179999999Y-108705078D01*
X180000001Y-108705078D01*
X180387287Y-108684780D01*
X180770323Y-108624113D01*
X180770330Y-108624112D01*
X181144936Y-108523737D01*
X181506994Y-108384755D01*
X181852543Y-108208689D01*
X182177783Y-107997476D01*
X182177785Y-107997475D01*
X182435349Y-107788902D01*
X181772196Y-107125749D01*
X181738711Y-107064426D01*
X181743695Y-106994734D01*
X181785567Y-106938801D01*
X181790986Y-106934966D01*
X181794599Y-106932551D01*
X181794601Y-106932551D01*
X181877296Y-106877296D01*
X181932551Y-106794601D01*
X181932551Y-106794599D01*
X181934966Y-106790986D01*
X181988578Y-106746181D01*
X182057903Y-106737474D01*
X182120930Y-106767628D01*
X182125749Y-106772196D01*
X182788902Y-107435349D01*
X182997475Y-107177785D01*
X182997476Y-107177783D01*
X183208689Y-106852543D01*
X183384755Y-106506994D01*
X183523737Y-106144936D01*
X183624112Y-105770330D01*
X183624113Y-105770323D01*
X183684780Y-105387287D01*
X183705078Y-104999999D01*
X183684780Y-104612712D01*
X183624113Y-104229676D01*
X183624112Y-104229669D01*
X183523737Y-103855063D01*
X183384755Y-103493005D01*
X183208689Y-103147456D01*
X182997468Y-102822206D01*
X182788904Y-102564649D01*
X182788902Y-102564648D01*
X182125748Y-103227803D01*
X182064425Y-103261288D01*
X181994733Y-103256304D01*
X181938800Y-103214432D01*
X181934965Y-103209012D01*
X181877296Y-103122704D01*
X181790985Y-103065033D01*
X181746180Y-103011421D01*
X181737473Y-102942096D01*
X181767627Y-102879068D01*
X181772195Y-102874250D01*
X182435350Y-102211096D01*
X182435350Y-102211095D01*
X182177793Y-102002531D01*
X181852543Y-101791310D01*
X181506994Y-101615244D01*
X181144936Y-101476262D01*
X180770330Y-101375887D01*
X180770323Y-101375886D01*
X180387287Y-101315219D01*
X180000001Y-101294922D01*
X179999999Y-101294922D01*
X179612712Y-101315219D01*
X179229676Y-101375886D01*
X179229669Y-101375887D01*
X178855063Y-101476262D01*
X178493005Y-101615244D01*
X178147456Y-101791310D01*
X177822206Y-102002531D01*
X177564648Y-102211095D01*
X177564648Y-102211096D01*
X178227803Y-102874251D01*
X178261288Y-102935574D01*
X178256304Y-103005266D01*
X178214432Y-103061199D01*
X178209013Y-103065034D01*
X178122704Y-103122704D01*
X178065034Y-103209013D01*
X178011422Y-103253818D01*
X177942097Y-103262525D01*
X177879069Y-103232370D01*
X177874251Y-103227803D01*
X177211096Y-102564648D01*
X177211095Y-102564648D01*
X177002531Y-102822206D01*
X176791310Y-103147456D01*
X176615244Y-103493005D01*
X176476262Y-103855063D01*
X176375887Y-104229669D01*
X176375886Y-104229676D01*
X176315219Y-104612712D01*
X176294922Y-104999999D01*
X169605177Y-104999999D01*
X169590719Y-104890183D01*
X169601484Y-104821151D01*
X169647864Y-104768895D01*
X169713658Y-104750000D01*
X171000000Y-104750000D01*
X171000000Y-103452172D01*
X170999999Y-103452155D01*
X170993598Y-103392627D01*
X170993596Y-103392620D01*
X170943354Y-103257913D01*
X170943350Y-103257906D01*
X170857190Y-103142812D01*
X170857187Y-103142809D01*
X170742093Y-103056649D01*
X170742086Y-103056645D01*
X170607379Y-103006403D01*
X170607372Y-103006401D01*
X170547844Y-103000000D01*
X169250000Y-103000000D01*
X169250000Y-104286341D01*
X169230315Y-104353380D01*
X169177511Y-104399135D01*
X169109815Y-104409280D01*
X169039333Y-104400001D01*
X169039328Y-104400000D01*
X169039323Y-104400000D01*
X168960677Y-104400000D01*
X168960671Y-104400000D01*
X168960666Y-104400001D01*
X168890185Y-104409280D01*
X168821150Y-104398514D01*
X168768894Y-104352134D01*
X168750000Y-104286341D01*
X168750000Y-103000000D01*
X167452155Y-103000000D01*
X167392627Y-103006401D01*
X167392620Y-103006403D01*
X167257913Y-103056645D01*
X167257906Y-103056649D01*
X167142812Y-103142809D01*
X167142809Y-103142812D01*
X167056649Y-103257906D01*
X167056645Y-103257913D01*
X167006403Y-103392620D01*
X167006401Y-103392627D01*
X167000000Y-103452155D01*
X167000000Y-104750000D01*
X168286342Y-104750000D01*
X168353381Y-104769685D01*
X168399136Y-104822489D01*
X168409280Y-104890183D01*
X168394823Y-105000000D01*
X168409280Y-105109816D01*
X168398516Y-105178849D01*
X168352136Y-105231105D01*
X168286342Y-105250000D01*
X167000000Y-105250000D01*
X167000000Y-106547844D01*
X165270508Y-106547844D01*
X165313395Y-106515739D01*
X165515739Y-106313395D01*
X165687226Y-106084315D01*
X165824367Y-105833161D01*
X165924369Y-105565046D01*
X165985196Y-105285428D01*
X166005610Y-105000000D01*
X165985196Y-104714572D01*
X165956809Y-104584080D01*
X165924371Y-104434962D01*
X165924370Y-104434960D01*
X165924369Y-104434954D01*
X165824367Y-104166839D01*
X165718491Y-103972943D01*
X165687229Y-103915690D01*
X165687224Y-103915682D01*
X165515745Y-103686612D01*
X165515729Y-103686594D01*
X165313405Y-103484270D01*
X165313387Y-103484254D01*
X165084317Y-103312775D01*
X165084309Y-103312770D01*
X164833166Y-103175635D01*
X164833167Y-103175635D01*
X164691253Y-103122704D01*
X164565046Y-103075631D01*
X164565043Y-103075630D01*
X164565037Y-103075628D01*
X164285433Y-103014804D01*
X164000001Y-102994390D01*
X163999999Y-102994390D01*
X163714566Y-103014804D01*
X163434962Y-103075628D01*
X163166833Y-103175635D01*
X162915690Y-103312770D01*
X162915682Y-103312775D01*
X162686612Y-103484254D01*
X162686594Y-103484270D01*
X162484270Y-103686594D01*
X162484254Y-103686612D01*
X162312775Y-103915682D01*
X162312770Y-103915690D01*
X162175635Y-104166833D01*
X162075628Y-104434962D01*
X162014804Y-104714566D01*
X161994390Y-104999998D01*
X161994390Y-104999999D01*
X161005610Y-104999999D01*
X160985196Y-104714572D01*
X160956809Y-104584080D01*
X160924371Y-104434962D01*
X160924370Y-104434960D01*
X160924369Y-104434954D01*
X160824367Y-104166839D01*
X160718491Y-103972943D01*
X160687229Y-103915690D01*
X160687224Y-103915682D01*
X160515745Y-103686612D01*
X160515729Y-103686594D01*
X160313405Y-103484270D01*
X160313387Y-103484254D01*
X160084317Y-103312775D01*
X160084309Y-103312770D01*
X159833166Y-103175635D01*
X159833167Y-103175635D01*
X159691253Y-103122704D01*
X159565046Y-103075631D01*
X159565043Y-103075630D01*
X159565037Y-103075628D01*
X159285433Y-103014804D01*
X159000001Y-102994390D01*
X158999999Y-102994390D01*
X158714566Y-103014804D01*
X158434962Y-103075628D01*
X158166833Y-103175635D01*
X157915690Y-103312770D01*
X157915682Y-103312775D01*
X157686612Y-103484254D01*
X157686594Y-103484270D01*
X157484270Y-103686594D01*
X157484254Y-103686612D01*
X157312775Y-103915682D01*
X157312770Y-103915690D01*
X157175635Y-104166833D01*
X157075628Y-104434962D01*
X157014804Y-104714566D01*
X156994390Y-104999998D01*
X156994390Y-104999999D01*
X149000499Y-104999999D01*
X149000499Y-103502128D01*
X148994091Y-103442517D01*
X148978233Y-103400000D01*
X148943797Y-103307671D01*
X148943793Y-103307664D01*
X148857547Y-103192455D01*
X148857544Y-103192452D01*
X148742335Y-103106206D01*
X148742328Y-103106202D01*
X148607482Y-103055908D01*
X148607483Y-103055908D01*
X148547883Y-103049501D01*
X148547881Y-103049500D01*
X148547873Y-103049500D01*
X148547864Y-103049500D01*
X145452129Y-103049500D01*
X145452123Y-103049501D01*
X145392516Y-103055908D01*
X145257671Y-103106202D01*
X145257664Y-103106206D01*
X145142455Y-103192452D01*
X145142452Y-103192455D01*
X145056206Y-103307664D01*
X145056202Y-103307671D01*
X145005908Y-103442517D01*
X144999501Y-103502116D01*
X144999501Y-103502123D01*
X144999500Y-103502135D01*
X144999500Y-106597870D01*
X143270473Y-106597870D01*
X143313395Y-106565739D01*
X143515739Y-106363395D01*
X143687226Y-106134315D01*
X143824367Y-105883161D01*
X143924369Y-105615046D01*
X143948110Y-105505909D01*
X143985195Y-105335433D01*
X143985195Y-105335432D01*
X143985196Y-105335428D01*
X144005610Y-105050000D01*
X143985196Y-104764572D01*
X143985181Y-104764505D01*
X143924371Y-104484962D01*
X143924370Y-104484960D01*
X143924369Y-104484954D01*
X143824367Y-104216839D01*
X143792293Y-104158101D01*
X143687229Y-103965690D01*
X143687224Y-103965682D01*
X143515745Y-103736612D01*
X143515729Y-103736594D01*
X143313405Y-103534270D01*
X143313387Y-103534254D01*
X143084317Y-103362775D01*
X143084309Y-103362770D01*
X142833166Y-103225635D01*
X142833167Y-103225635D01*
X142712756Y-103180724D01*
X142565046Y-103125631D01*
X142565043Y-103125630D01*
X142565037Y-103125628D01*
X142285433Y-103064804D01*
X142000001Y-103044390D01*
X141999999Y-103044390D01*
X141714566Y-103064804D01*
X141434962Y-103125628D01*
X141166833Y-103225635D01*
X140915690Y-103362770D01*
X140915682Y-103362775D01*
X140686612Y-103534254D01*
X140686594Y-103534270D01*
X140484270Y-103736594D01*
X140484254Y-103736612D01*
X140312775Y-103965682D01*
X140312770Y-103965690D01*
X140175635Y-104216833D01*
X140075628Y-104484962D01*
X140014804Y-104764566D01*
X139994390Y-105049998D01*
X139994390Y-105050001D01*
X139005610Y-105050001D01*
X139005610Y-105050000D01*
X138985196Y-104764572D01*
X138985181Y-104764505D01*
X138924371Y-104484962D01*
X138924370Y-104484960D01*
X138924369Y-104484954D01*
X138824367Y-104216839D01*
X138792293Y-104158101D01*
X138687229Y-103965690D01*
X138687224Y-103965682D01*
X138515745Y-103736612D01*
X138515729Y-103736594D01*
X138313405Y-103534270D01*
X138313387Y-103534254D01*
X138084317Y-103362775D01*
X138084309Y-103362770D01*
X137833166Y-103225635D01*
X137833167Y-103225635D01*
X137712756Y-103180724D01*
X137565046Y-103125631D01*
X137565043Y-103125630D01*
X137565037Y-103125628D01*
X137285433Y-103064804D01*
X137000001Y-103044390D01*
X136999999Y-103044390D01*
X136714566Y-103064804D01*
X136434962Y-103125628D01*
X136166833Y-103225635D01*
X135915690Y-103362770D01*
X135915682Y-103362775D01*
X135686612Y-103534254D01*
X135686594Y-103534270D01*
X135484270Y-103736594D01*
X135484254Y-103736612D01*
X135312775Y-103965682D01*
X135312770Y-103965690D01*
X135175635Y-104216833D01*
X135075628Y-104484962D01*
X135014804Y-104764566D01*
X134994390Y-105049998D01*
X134994390Y-105050001D01*
X108702457Y-105050001D01*
X108705078Y-104999999D01*
X108684780Y-104612712D01*
X108624113Y-104229676D01*
X108624112Y-104229669D01*
X108523737Y-103855063D01*
X108384755Y-103493005D01*
X108208689Y-103147456D01*
X107997468Y-102822206D01*
X107788904Y-102564649D01*
X107788902Y-102564648D01*
X107125748Y-103227803D01*
X107064425Y-103261288D01*
X106994733Y-103256304D01*
X106938800Y-103214432D01*
X106934965Y-103209012D01*
X106877296Y-103122704D01*
X106790985Y-103065033D01*
X106746180Y-103011421D01*
X106737473Y-102942096D01*
X106767627Y-102879068D01*
X106772195Y-102874250D01*
X107435350Y-102211096D01*
X107435350Y-102211095D01*
X107177793Y-102002531D01*
X106852543Y-101791310D01*
X106506994Y-101615244D01*
X106144936Y-101476262D01*
X105770330Y-101375887D01*
X105770323Y-101375886D01*
X105387287Y-101315219D01*
X105000001Y-101294922D01*
X104999999Y-101294922D01*
X104612712Y-101315219D01*
X104229676Y-101375886D01*
X104229669Y-101375887D01*
X103855063Y-101476262D01*
X103493005Y-101615244D01*
X103147456Y-101791310D01*
X102822206Y-102002531D01*
X102564648Y-102211095D01*
X102564648Y-102211096D01*
X103227803Y-102874251D01*
X103261288Y-102935574D01*
X103256304Y-103005266D01*
X103214432Y-103061199D01*
X103209013Y-103065034D01*
X103122704Y-103122704D01*
X103065034Y-103209013D01*
X103011422Y-103253818D01*
X102942097Y-103262525D01*
X102879069Y-103232370D01*
X102874251Y-103227803D01*
X102211096Y-102564648D01*
X102211095Y-102564648D01*
X102002531Y-102822206D01*
X101791310Y-103147456D01*
X101615244Y-103493005D01*
X101476262Y-103855063D01*
X101375887Y-104229669D01*
X101375886Y-104229676D01*
X101315219Y-104612712D01*
X101294922Y-104999999D01*
X100000500Y-104999999D01*
X100009488Y-104782673D01*
X100018160Y-104584059D01*
X100018573Y-104579140D01*
X100045487Y-104363223D01*
X100071884Y-104162726D01*
X100072669Y-104158114D01*
X100117191Y-103945778D01*
X100161160Y-103747451D01*
X100162253Y-103743235D01*
X100224112Y-103535457D01*
X100285324Y-103341320D01*
X100286673Y-103337488D01*
X100365469Y-103135551D01*
X100443499Y-102947170D01*
X100445033Y-102943771D01*
X100514381Y-102801920D01*
X100540249Y-102749007D01*
X100573419Y-102685284D01*
X100634494Y-102567960D01*
X100636207Y-102564891D01*
X100747211Y-102378601D01*
X100856972Y-102206313D01*
X100858765Y-102203656D01*
X100984856Y-102027054D01*
X101109313Y-101864861D01*
X101111135Y-101862601D01*
X101251448Y-101696933D01*
X101390563Y-101545115D01*
X101545115Y-101390563D01*
X101696933Y-101251448D01*
X101862601Y-101111135D01*
X101864861Y-101109313D01*
X102027054Y-100984856D01*
X102203656Y-100858765D01*
X102206313Y-100856972D01*
X102378601Y-100747211D01*
X102564900Y-100636201D01*
X102567960Y-100634494D01*
X102685284Y-100573419D01*
X102749007Y-100540249D01*
X102823655Y-100503755D01*
X102943771Y-100445033D01*
X102947170Y-100443499D01*
X103135551Y-100365469D01*
X103337488Y-100286673D01*
X103341320Y-100285324D01*
X103535457Y-100224112D01*
X103743235Y-100162253D01*
X103747451Y-100161160D01*
X103945778Y-100117191D01*
X104158114Y-100072669D01*
X104162726Y-100071884D01*
X104363223Y-100045487D01*
X104579138Y-100018574D01*
X104584061Y-100018160D01*
X104782569Y-100009493D01*
X105000000Y-100000500D01*
X105000500Y-100000500D01*
X179999500Y-100000500D01*
X180000000Y-100000500D01*
X180217318Y-100009488D01*
G37*
%TD.AperFunction*%
%TD*%
M02*
