M48
; DRILL file {KiCad 7.0.7} date Sat Jan 13 16:34:26 2024
; FORMAT={-:-/ absolute / inch / decimal}
; #@! TF.CreationDate,2024-01-13T16:34:26+01:00
; #@! TF.GenerationSoftware,Kicad,Pcbnew,7.0.7
; #@! TF.FileFunction,Plated,1,4,PTH
FMAT,2
INCH
; #@! TA.AperFunction,Plated,PTH,ViaDrill
T1C0.0157
; #@! TA.AperFunction,Plated,PTH,ComponentDrill
T2C0.0197
; #@! TA.AperFunction,Plated,PTH,ComponentDrill
T3C0.0236
; #@! TA.AperFunction,Plated,PTH,ComponentDrill
T4C0.0354
; #@! TA.AperFunction,Plated,PTH,ComponentDrill
T5C0.0472
; #@! TA.AperFunction,Plated,PTH,ComponentDrill
T6C0.0669
; #@! TA.AperFunction,Plated,PTH,ComponentDrill
T7C0.1260
%
G90
G05
T1
X4.5276Y-4.0315
X4.5276Y-4.4724
X5.4882Y-5.3937
X5.7717Y-5.5118
X5.7874Y-4.811
X6.0Y-4.5512
X6.0157Y-4.4252
X6.0315Y-5.3937
X6.0709Y-5.5906
X6.0866Y-4.5512
X6.0866Y-4.9764
X6.4567Y-5.8031
T2
X4.0394Y-4.1339
X4.0394Y-5.9449
X4.067Y-4.067
X4.067Y-4.2007
X4.067Y-5.8781
X4.067Y-6.0117
X4.1339Y-4.0394
X4.1339Y-4.2283
X4.1339Y-5.8504
X4.1339Y-6.0394
X4.2007Y-4.067
X4.2007Y-4.2007
X4.2007Y-5.8781
X4.2007Y-6.0117
X4.2283Y-4.1339
X4.2283Y-5.9449
X6.9921Y-4.1339
X6.9921Y-5.9449
X7.0198Y-4.067
X7.0198Y-4.2007
X7.0198Y-5.8781
X7.0198Y-6.0117
X7.0866Y-4.0394
X7.0866Y-4.2283
X7.0866Y-5.8504
X7.0866Y-6.0394
X7.1534Y-4.067
X7.1534Y-4.2007
X7.1534Y-5.8781
X7.1534Y-6.0117
X7.1811Y-4.1339
X7.1811Y-5.9449
T3
X5.0605Y-4.7372
X5.0616Y-4.5236
X5.1393Y-4.7372
X5.1404Y-4.5236
T4
X4.5691Y-4.3071
X4.6208Y-4.4646
X4.6208Y-4.7646
X4.7208Y-4.4646
X4.7208Y-4.7646
X4.8691Y-4.3071
X5.0235Y-4.2087
X5.1235Y-4.2087
X5.6768Y-5.0591
X5.6768Y-5.2047
X5.9768Y-5.0591
X5.9768Y-5.2047
T5
X4.6063Y-5.9449
X4.8031Y-5.9449
X5.0Y-5.9449
X5.3937Y-4.1358
X5.4331Y-5.9449
X5.5906Y-4.1358
X5.6299Y-5.9449
X5.7874Y-4.1358
X5.8268Y-5.9449
X6.2598Y-4.1339
X6.2598Y-5.9449
X6.4567Y-4.1339
X6.4567Y-5.9449
X6.6535Y-4.1339
X6.6535Y-5.9449
T6
X4.1732Y-4.5385
X4.1732Y-4.7353
X4.1732Y-5.315
X4.1732Y-5.5118
X7.0024Y-5.4055
X7.0024Y-5.6024
T7
X4.1339Y-4.1339
X4.1339Y-5.9449
X7.0866Y-4.1339
X7.0866Y-5.9449
T0
M30
